<?xml version="1.0" standalone="no"?><!DOCTYPE svg PUBLIC "-//W3C//DTD SVG 1.1//EN" "http://www.w3.org/Graphics/SVG/1.1/DTD/svg11.dtd"><svg height="1024" node-id="1" sillyvg="true" template-height="1024" template-width="1024" version="1.1" viewBox="0 0 1024 1024" width="1024" xmlns="http://www.w3.org/2000/svg" xmlns:xlink="http://www.w3.org/1999/xlink"><defs node-id="159"><clipPath id="master_svg0_45_2083" node-id="3"><path d="M 0.00 0.00 L 1024.00 0.00 L 1024.00 1024.00 L 0.00 1024.00 Z" fill="#000000" fill-rule="nonzero" node-id="162" stroke="none" target-height="1024" target-width="1024" target-x="0" target-y="0"></path></clipPath></defs><g node-id="547"><g clip-path="url(#master_svg0_45_2083)" group-id="1" id="sillyvg_g_1" node-id="168"><path d="M 47.90 654.40 L 44.30 657.10 L 14.80 639.90 L 11.80 616.50 L 44.50 591.30 L 58.80 579.50 L 73.00 567.30 L 91.50 550.50 L 109.70 533.40 L 127.40 515.70 L 144.80 497.70 L 161.70 479.50 L 178.20 461.20 L 209.80 424.10 L 239.30 387.10 L 266.30 351.40 L 285.40 325.00 L 302.70 300.40 L 319.00 276.40 L 346.40 234.10 L 374.40 188.10 L 354.50 176.60 L 419.00 130.70 L 448.60 147.90 L 437.60 224.10 L 419.80 214.00 L 398.40 249.40 L 375.50 285.30 L 346.60 328.30 L 329.80 352.20 L 312.20 376.60 L 279.70 419.60 L 251.30 455.20 L 236.50 472.90 L 205.50 508.60 L 189.40 526.20 L 172.90 543.60 L 155.90 560.90 L 138.70 577.70 L 121.10 594.10 L 103.30 610.10 L 89.60 621.80 L 75.80 633.00 L 47.90 654.40 Z M 310.40 435.70 L 339.90 452.80 L 340.40 655.90 L 287.80 686.30 L 258.20 669.20 L 257.80 502.50 L 276.40 479.60 L 293.90 457.30 L 310.40 435.70 Z M 132.60 679.30 L 132.90 775.70 L 80.30 806.10 L 50.70 788.90 L 50.50 703.90 L 77.10 683.60 L 103.10 662.20 L 132.60 679.30 Z M 206.80 561.30 L 236.30 578.40 L 236.70 715.80 L 184.10 746.20 L 154.50 729.00 L 154.20 615.50 L 172.20 597.60 L 189.70 579.50 L 206.80 561.30 Z M 413.90 283.20 L 443.40 300.40 L 444.20 595.90 L 391.60 626.30 L 362.10 609.20 L 361.30 364.50 L 390.70 320.20 L 413.90 283.20 Z" fill="#5b5e71" fill-rule="nonzero" group-id="1,2,76" node-id="174" stroke="none" target-height="675.39996" target-width="436.80002" target-x="11.8" target-y="130.7"></path><path d="M 972.30 400.00 L 961.40 406.30 L 972.20 412.50 L 972.30 467.60 L 961.40 474.00 L 972.20 480.20 L 972.30 535.30 L 961.40 541.70 L 972.20 547.90 L 972.30 603.00 L 961.40 609.40 L 972.20 615.60 L 972.30 670.70 L 961.40 677.10 L 972.20 683.30 L 972.30 738.40 L 738.40 873.50 L 684.60 842.20 L 682.10 846.80 L 679.20 851.10 L 675.90 855.00 L 672.20 858.60 L 668.20 861.80 L 663.90 864.70 L 637.70 879.80 L 639.50 878.50 L 634.90 881.20 L 630.00 883.40 L 624.80 885.30 L 619.50 886.70 L 613.90 887.60 L 608.00 888.00 L 601.80 887.90 L 595.10 887.20 L 592.90 889.30 L 590.00 891.40 L 412.90 993.60 L 406.50 996.40 L 402.90 997.30 L 397.40 998.30 L 391.70 998.60 L 385.90 998.30 L 380.50 997.30 L 376.90 996.40 L 370.60 993.60 L 147.10 863.70 L 144.40 861.90 L 142.30 859.90 L 140.70 857.90 L 139.50 855.70 L 138.80 853.60 L 138.20 824.50 L 138.50 826.80 L 139.40 829.20 L 140.80 831.40 L 142.80 833.60 L 140.70 831.10 L 139.30 828.70 L 138.60 826.30 L 138.40 823.80 L 138.90 821.40 L 140.00 818.90 L 141.70 816.60 L 144.00 814.40 L 147.20 812.20 L 324.30 710.00 L 330.60 707.30 L 334.10 706.30 L 341.60 705.10 L 349.30 705.10 L 356.70 706.20 L 360.30 707.20 L 366.70 710.00 L 517.10 797.40 L 511.30 785.00 L 506.30 772.50 L 501.80 759.90 L 496.30 740.90 L 492.40 722.40 L 491.00 713.00 L 490.00 703.90 L 489.20 686.40 L 489.50 613.20 L 508.30 602.30 L 516.90 608.00 L 525.00 613.00 L 532.80 617.10 L 532.60 563.50 L 543.60 557.10 L 532.80 550.80 L 532.60 495.80 L 543.60 489.50 L 532.80 483.10 L 532.70 465.20 L 519.50 457.20 L 516.50 454.60 L 513.70 451.50 L 511.30 448.00 L 509.10 443.90 L 507.40 439.70 L 506.00 435.20 L 505.00 430.10 L 504.30 424.50 L 504.00 418.00 L 504.30 410.50 L 505.30 402.70 L 506.80 394.70 L 508.90 386.80 L 511.50 378.90 L 514.70 371.00 L 518.30 363.20 L 522.40 355.70 L 526.90 348.30 L 531.80 341.30 L 537.00 334.60 L 542.50 328.30 L 541.30 324.00 L 540.40 319.40 L 539.80 314.30 L 539.90 302.60 L 541.50 290.10 L 542.90 283.60 L 545.30 275.10 L 548.30 266.60 L 551.90 258.20 L 556.10 249.90 L 560.70 242.00 L 565.80 234.30 L 571.30 226.90 L 577.20 220.00 L 583.40 213.70 L 593.30 205.20 L 603.60 198.30 L 609.70 195.10 L 615.60 192.50 L 616.70 184.80 L 618.40 177.10 L 620.70 169.20 L 623.40 161.40 L 626.60 153.70 L 630.30 146.10 L 634.40 138.70 L 638.90 131.60 L 643.80 124.70 L 649.00 118.10 L 654.50 112.00 L 660.20 106.40 L 666.30 101.10 L 672.50 96.50 L 678.90 92.40 L 684.20 89.70 L 689.20 87.50 L 693.90 85.80 L 698.80 84.60 L 703.30 83.80 L 711.00 83.70 L 717.00 84.90 L 721.10 77.90 L 725.60 71.20 L 730.30 64.70 L 735.40 58.50 L 740.70 52.70 L 746.20 47.40 L 752.00 42.40 L 757.80 38.00 L 763.80 34.20 L 769.90 31.00 L 775.70 28.60 L 781.10 27.00 L 786.60 25.90 L 791.80 25.50 L 796.50 25.60 L 800.10 26.20 L 803.50 27.10 L 809.60 29.80 L 842.60 49.30 L 848.00 46.70 L 853.00 44.70 L 857.80 43.20 L 862.30 42.20 L 866.60 41.70 L 871.10 41.70 L 875.30 42.10 L 879.20 42.90 L 882.90 44.20 L 886.30 45.90 L 935.70 75.10 L 939.00 77.20 L 942.00 79.80 L 944.80 82.90 L 947.20 86.40 L 949.50 90.40 L 951.20 94.50 L 952.50 99.10 L 953.60 104.20 L 954.30 109.80 L 954.50 118.50 L 993.70 141.60 L 991.60 140.60 L 997.50 144.30 L 1002.60 149.40 L 1006.60 155.70 L 1008.30 159.40 L 1010.80 167.70 L 1012.10 177.20 L 1012.10 188.70 L 1010.50 201.20 L 1009.10 207.70 L 1006.70 216.20 L 1003.70 224.70 L 1000.10 233.20 L 995.90 241.50 L 991.30 249.50 L 986.30 257.20 L 980.70 264.60 L 974.90 271.50 L 968.70 277.80 L 963.80 282.30 L 958.80 286.40 L 948.50 293.30 L 915.80 312.10 L 972.20 344.80 L 972.30 400.00 Z" fill="#5b5e71" fill-rule="nonzero" group-id="1,2,77" node-id="179" stroke="none" target-height="973.1" target-width="873.89996" target-x="138.2" target-y="25.5"></path><path d="M 738.30 818.40 L 532.60 698.90 L 532.70 753.90 L 738.40 873.50 L 738.30 818.40 Z" fill="#474b59" fill-rule="nonzero" group-id="1,3" node-id="185" stroke="none" target-height="174.59998" target-width="205.80005" target-x="532.6" target-y="698.9"></path><path d="M 972.20 683.30 L 766.50 563.80 L 532.60 698.80 L 738.30 818.40 L 972.20 683.30 Z" fill="#5b5e71" fill-rule="nonzero" group-id="1,4" node-id="190" stroke="none" target-height="254.60004" target-width="439.60004" target-x="532.6" target-y="563.8"></path><path d="M 738.30 818.40 L 738.40 873.50 L 972.30 738.40 L 972.20 683.30 L 738.30 818.40 Z" fill="#525566" fill-rule="nonzero" group-id="1,5" node-id="195" stroke="none" target-height="190.20001" target-width="234" target-x="738.3" target-y="683.3"></path><path d="M 947.40 705.50 L 947.40 720.10 L 959.90 712.90 L 959.90 698.30 L 947.40 705.50 Z M 925.70 718.10 L 925.70 732.60 L 938.30 725.40 L 938.20 710.80 L 925.70 718.10 Z M 904.00 730.60 L 904.00 745.20 L 916.60 737.90 L 916.50 723.30 L 904.00 730.60 Z M 882.30 743.10 L 882.40 757.70 L 894.90 750.40 L 894.90 735.80 L 882.30 743.10 Z M 947.40 730.80 L 947.50 745.40 L 960.00 738.20 L 960.00 723.60 L 947.40 730.80 Z M 925.80 743.30 L 925.80 757.90 L 938.30 750.70 L 938.30 736.10 L 925.80 743.30 Z M 904.10 755.90 L 904.10 770.50 L 916.60 763.20 L 916.60 748.60 L 904.10 755.90 Z M 882.40 768.40 L 882.40 783.00 L 895.00 775.70 L 894.90 761.10 L 882.40 768.40 Z" fill="#cad0dd" fill-rule="nonzero" group-id="1,6" node-id="200" stroke="none" target-height="84.70001" target-width="77.70001" target-x="882.3" target-y="698.3"></path><path d="M 808.20 797.00 L 806.10 798.50 L 804.30 800.40 L 802.70 802.70 L 801.50 805.20 L 800.70 807.80 L 800.40 810.30 L 800.50 811.80 L 801.50 814.00 L 803.20 815.30 L 805.50 815.50 L 808.20 814.50 L 810.20 813.10 L 812.00 811.10 L 813.50 808.80 L 814.70 806.40 L 815.40 803.80 L 815.60 801.50 L 815.30 799.10 L 814.60 797.50 L 813.50 796.50 L 812.40 796.10 L 809.90 796.30 L 808.20 797.00 Z M 783.30 811.40 L 781.20 812.90 L 779.40 814.80 L 777.80 817.10 L 776.60 819.60 L 775.80 822.20 L 775.50 824.60 L 776.00 827.40 L 777.40 829.20 L 779.40 829.90 L 781.80 829.60 L 785.20 827.50 L 787.00 825.50 L 788.60 823.20 L 789.70 820.80 L 790.50 818.20 L 790.70 815.80 L 790.40 813.50 L 789.60 811.90 L 788.50 810.90 L 787.10 810.40 L 785.40 810.50 L 783.30 811.40 Z M 758.20 825.90 L 756.20 827.30 L 754.30 829.30 L 752.80 831.50 L 751.60 834.00 L 750.80 836.60 L 750.60 839.00 L 750.90 841.30 L 751.70 842.80 L 752.80 843.90 L 755.10 844.40 L 756.50 844.10 L 758.20 843.40 L 760.20 841.90 L 762.10 839.90 L 763.60 837.70 L 764.70 835.20 L 765.40 832.70 L 765.70 830.30 L 765.30 828.00 L 764.60 826.40 L 763.50 825.30 L 761.30 824.80 L 758.20 825.90 Z" fill="#f9bb4a" fill-rule="nonzero" group-id="1,7" node-id="205" stroke="none" target-height="48.30005" target-width="65" target-x="750.6" target-y="796.1"></path><path d="M 738.30 750.70 L 532.60 631.20 L 532.70 686.20 L 738.40 805.80 L 738.30 750.70 Z" fill="#474b59" fill-rule="nonzero" group-id="1,8" node-id="210" stroke="none" target-height="174.59998" target-width="205.80005" target-x="532.6" target-y="631.2"></path><path d="M 972.20 615.60 L 766.50 496.10 L 532.60 631.20 L 738.30 750.70 L 972.20 615.60 Z" fill="#5b5e71" fill-rule="nonzero" group-id="1,9" node-id="215" stroke="none" target-height="254.6" target-width="439.60004" target-x="532.6" target-y="496.1"></path><path d="M 738.30 750.70 L 738.40 805.80 L 972.30 670.70 L 972.20 615.60 L 738.30 750.70 Z" fill="#525566" fill-rule="nonzero" group-id="1,10" node-id="220" stroke="none" target-height="190.20001" target-width="234" target-x="738.3" target-y="615.6"></path><path d="M 947.40 637.80 L 947.40 652.40 L 959.90 645.20 L 959.90 630.60 L 947.40 637.80 Z M 925.70 650.30 L 925.70 665.00 L 938.30 657.70 L 938.20 643.10 L 925.70 650.30 Z M 904.00 662.90 L 904.00 677.50 L 916.60 670.20 L 916.50 655.60 L 904.00 662.90 Z M 882.30 675.40 L 882.40 690.00 L 894.90 682.70 L 894.90 668.10 L 882.30 675.40 Z M 947.40 663.10 L 947.50 677.70 L 960.00 670.50 L 960.00 655.90 L 947.40 663.10 Z M 925.80 675.70 L 925.80 690.20 L 938.30 683.00 L 938.30 668.40 L 925.80 675.70 Z M 904.10 688.20 L 904.10 702.80 L 916.60 695.50 L 916.60 680.90 L 904.10 688.20 Z M 882.40 700.70 L 882.40 715.30 L 895.00 708.00 L 894.90 693.50 L 882.40 700.70 Z" fill="#cad0dd" fill-rule="nonzero" group-id="1,11" node-id="225" stroke="none" target-height="84.70001" target-width="77.70001" target-x="882.3" target-y="630.6"></path><path d="M 808.20 729.30 L 806.10 730.80 L 804.30 732.80 L 802.70 735.00 L 801.50 737.50 L 800.70 740.10 L 800.40 742.60 L 800.90 745.30 L 802.30 747.10 L 803.20 747.60 L 805.50 747.80 L 808.20 746.80 L 810.20 745.40 L 812.00 743.40 L 813.50 741.10 L 814.70 738.70 L 815.40 736.10 L 815.60 733.80 L 815.30 731.40 L 814.60 729.80 L 813.50 728.80 L 811.30 728.30 L 808.20 729.30 Z M 783.30 743.70 L 781.20 745.20 L 779.40 747.10 L 777.80 749.40 L 776.60 751.90 L 775.80 754.50 L 775.50 756.90 L 776.00 759.70 L 777.40 761.50 L 779.40 762.20 L 781.80 761.90 L 785.20 759.80 L 787.00 757.80 L 788.60 755.60 L 790.50 750.50 L 790.70 748.10 L 790.40 745.80 L 789.60 744.20 L 788.50 743.20 L 787.10 742.70 L 785.40 742.80 L 783.30 743.70 Z M 758.20 758.20 L 756.20 759.60 L 754.30 761.60 L 752.80 763.80 L 751.60 766.30 L 750.80 768.90 L 750.60 771.30 L 750.90 773.60 L 751.70 775.10 L 752.80 776.20 L 755.10 776.70 L 756.50 776.40 L 758.20 775.70 L 760.20 774.20 L 762.10 772.20 L 763.60 770.00 L 764.70 767.50 L 765.40 765.00 L 765.70 762.60 L 765.30 760.30 L 764.60 758.70 L 763.50 757.60 L 761.30 757.10 L 758.20 758.20 Z" fill="#f9bb4a" fill-rule="nonzero" group-id="1,12" node-id="230" stroke="none" target-height="48.400024" target-width="65" target-x="750.6" target-y="728.3"></path><path d="M 738.30 683.00 L 532.60 563.50 L 532.70 618.50 L 738.40 738.10 L 738.30 683.00 Z" fill="#474b59" fill-rule="nonzero" group-id="1,13" node-id="235" stroke="none" target-height="174.59998" target-width="205.80005" target-x="532.6" target-y="563.5"></path><path d="M 972.20 547.90 L 766.50 428.40 L 532.60 563.50 L 738.30 683.00 L 972.20 547.90 Z" fill="#5b5e71" fill-rule="nonzero" group-id="1,14" node-id="240" stroke="none" target-height="254.6" target-width="439.60004" target-x="532.6" target-y="428.4"></path><path d="M 738.30 683.00 L 738.40 738.10 L 972.30 603.00 L 972.20 547.90 L 738.30 683.00 Z" fill="#525566" fill-rule="nonzero" group-id="1,15" node-id="245" stroke="none" target-height="190.19995" target-width="234" target-x="738.3" target-y="547.9"></path><path d="M 947.40 570.10 L 947.40 584.70 L 959.90 577.50 L 959.90 562.90 L 947.40 570.10 Z M 925.70 582.70 L 925.70 597.20 L 938.30 590.00 L 938.20 575.40 L 925.70 582.70 Z M 904.00 595.20 L 904.00 609.80 L 916.60 602.50 L 916.50 587.90 L 904.00 595.20 Z M 882.30 607.70 L 882.40 622.30 L 894.90 615.00 L 894.90 600.50 L 882.30 607.70 Z M 947.40 595.40 L 947.50 610.00 L 960.00 602.80 L 960.00 588.20 L 947.40 595.40 Z M 925.80 608.00 L 925.80 622.60 L 938.30 615.30 L 938.30 600.70 L 925.80 608.00 Z M 904.10 620.50 L 904.10 635.10 L 916.60 627.80 L 916.60 613.20 L 904.10 620.50 Z M 882.40 633.00 L 882.40 647.60 L 895.00 640.40 L 894.90 625.80 L 882.40 633.00 Z" fill="#cad0dd" fill-rule="nonzero" group-id="1,16" node-id="250" stroke="none" target-height="84.69995" target-width="77.70001" target-x="882.3" target-y="562.9"></path><path d="M 808.20 661.60 L 806.10 663.10 L 804.30 665.10 L 802.70 667.30 L 801.50 669.80 L 800.70 672.40 L 800.40 674.90 L 800.90 677.60 L 802.30 679.40 L 803.20 679.90 L 805.50 680.10 L 808.20 679.10 L 810.20 677.70 L 812.00 675.70 L 813.50 673.40 L 814.70 671.00 L 815.40 668.50 L 815.60 666.10 L 815.30 663.70 L 814.60 662.10 L 813.50 661.10 L 812.40 660.70 L 811.30 660.60 L 808.20 661.60 Z M 783.30 676.00 L 781.20 677.50 L 779.40 679.40 L 777.80 681.70 L 776.60 684.20 L 775.80 686.80 L 775.50 689.20 L 776.00 692.00 L 777.40 693.80 L 779.40 694.50 L 781.80 694.20 L 785.20 692.10 L 787.00 690.10 L 788.60 687.80 L 789.70 685.40 L 790.50 682.80 L 790.70 680.50 L 790.40 678.10 L 789.60 676.50 L 788.50 675.50 L 787.10 675.00 L 785.40 675.10 L 783.30 676.00 Z M 758.20 690.50 L 756.20 691.90 L 754.30 693.90 L 752.80 696.10 L 751.60 698.60 L 750.80 701.20 L 750.60 703.60 L 750.90 705.90 L 751.70 707.40 L 752.80 708.50 L 755.10 709.00 L 758.20 708.00 L 760.20 706.50 L 762.10 704.50 L 763.60 702.30 L 764.70 699.80 L 765.40 697.30 L 765.70 694.90 L 765.30 692.60 L 764.60 691.00 L 763.50 689.90 L 762.50 689.50 L 759.90 689.70 L 758.20 690.50 Z" fill="#f9bb4a" fill-rule="nonzero" group-id="1,17" node-id="255" stroke="none" target-height="48.400024" target-width="65" target-x="750.6" target-y="660.6"></path><path d="M 738.30 615.30 L 532.60 495.80 L 532.70 550.80 L 738.40 670.40 L 738.30 615.30 Z" fill="#474b59" fill-rule="nonzero" group-id="1,18" node-id="260" stroke="none" target-height="174.60004" target-width="205.80005" target-x="532.6" target-y="495.8"></path><path d="M 972.20 480.20 L 766.50 360.70 L 532.60 495.80 L 738.30 615.30 L 972.20 480.20 Z" fill="#5b5e71" fill-rule="nonzero" group-id="1,19" node-id="265" stroke="none" target-height="254.59998" target-width="439.60004" target-x="532.6" target-y="360.7"></path><path d="M 738.30 615.30 L 738.40 670.40 L 972.30 535.30 L 972.20 480.20 L 738.30 615.30 Z" fill="#525566" fill-rule="nonzero" group-id="1,20" node-id="270" stroke="none" target-height="190.20001" target-width="234" target-x="738.3" target-y="480.2"></path><path d="M 947.40 502.40 L 947.40 517.00 L 959.90 509.80 L 959.90 495.20 L 947.40 502.40 Z M 925.70 515.00 L 925.70 529.60 L 938.30 522.30 L 938.20 507.70 L 925.70 515.00 Z M 904.00 527.50 L 904.00 542.10 L 916.60 534.80 L 916.50 520.20 L 904.00 527.50 Z M 882.30 540.00 L 882.40 554.60 L 894.90 547.40 L 894.90 532.80 L 882.30 540.00 Z M 947.40 527.70 L 947.50 542.30 L 960.00 535.10 L 960.00 520.50 L 947.40 527.70 Z M 925.80 540.30 L 925.80 554.90 L 938.30 547.60 L 938.30 533.00 L 925.80 540.30 Z M 904.10 552.80 L 904.10 567.40 L 916.60 560.10 L 916.60 545.50 L 904.10 552.80 Z M 882.40 565.30 L 882.40 579.90 L 895.00 572.70 L 894.90 558.10 L 882.40 565.30 Z" fill="#cad0dd" fill-rule="nonzero" group-id="1,21" node-id="275" stroke="none" target-height="84.70001" target-width="77.70001" target-x="882.3" target-y="495.2"></path><path d="M 808.20 593.90 L 806.10 595.40 L 804.30 597.40 L 802.70 599.60 L 801.50 602.10 L 800.70 604.70 L 800.40 607.20 L 800.90 609.90 L 802.30 611.70 L 804.30 612.50 L 806.70 612.10 L 810.20 610.00 L 812.00 608.00 L 813.50 605.70 L 814.70 603.30 L 815.40 600.80 L 815.60 598.40 L 815.30 596.00 L 814.60 594.40 L 813.50 593.40 L 811.30 592.90 L 808.20 593.90 Z M 783.30 608.30 L 781.20 609.80 L 779.40 611.70 L 777.80 614.00 L 776.60 616.50 L 775.80 619.10 L 775.50 621.60 L 776.00 624.30 L 777.40 626.10 L 779.40 626.80 L 781.80 626.50 L 785.20 624.40 L 787.00 622.40 L 788.60 620.20 L 789.70 617.70 L 790.50 615.10 L 790.70 612.80 L 790.40 610.40 L 789.60 608.80 L 788.50 607.80 L 787.10 607.30 L 785.40 607.40 L 783.30 608.30 Z M 758.20 622.80 L 756.20 624.20 L 754.30 626.20 L 752.80 628.40 L 751.60 630.90 L 750.80 633.50 L 750.60 635.90 L 750.90 638.20 L 751.70 639.70 L 752.80 640.80 L 755.10 641.30 L 758.20 640.30 L 760.20 638.80 L 762.10 636.90 L 763.60 634.60 L 764.70 632.10 L 765.40 629.60 L 765.70 627.20 L 765.30 624.90 L 764.60 623.30 L 763.50 622.30 L 762.50 621.80 L 759.90 622.00 L 758.20 622.80 Z" fill="#f9bb4a" fill-rule="nonzero" group-id="1,22" node-id="280" stroke="none" target-height="48.399963" target-width="65" target-x="750.6" target-y="592.9"></path><path d="M 738.30 547.60 L 532.60 428.10 L 532.70 483.20 L 738.40 602.70 L 738.30 547.60 Z" fill="#474b59" fill-rule="nonzero" group-id="1,23" node-id="285" stroke="none" target-height="174.6" target-width="205.80005" target-x="532.6" target-y="428.1"></path><path d="M 972.20 412.50 L 766.50 293.00 L 532.60 428.10 L 738.30 547.60 L 972.20 412.50 Z" fill="#5b5e71" fill-rule="nonzero" group-id="1,24" node-id="290" stroke="none" target-height="254.59998" target-width="439.60004" target-x="532.6" target-y="293"></path><path d="M 738.30 547.60 L 738.40 602.70 L 972.30 467.60 L 972.20 412.50 L 738.30 547.60 Z" fill="#525566" fill-rule="nonzero" group-id="1,25" node-id="295" stroke="none" target-height="190.20001" target-width="234" target-x="738.3" target-y="412.5"></path><path d="M 947.40 434.70 L 947.40 449.30 L 959.90 442.10 L 959.90 427.50 L 947.40 434.70 Z M 925.70 447.30 L 925.70 461.90 L 938.30 454.60 L 938.20 440.00 L 925.70 447.30 Z M 904.00 459.80 L 904.00 474.40 L 916.60 467.10 L 916.50 452.50 L 904.00 459.80 Z M 882.30 472.30 L 882.40 486.90 L 894.90 479.70 L 894.90 465.10 L 882.30 472.30 Z M 947.40 460.00 L 947.50 474.60 L 960.00 467.40 L 960.00 452.80 L 947.40 460.00 Z M 925.80 472.60 L 925.80 487.20 L 938.30 479.90 L 938.30 465.30 L 925.80 472.60 Z M 904.10 485.10 L 904.10 499.70 L 916.60 492.40 L 916.60 477.80 L 904.10 485.10 Z M 882.40 497.60 L 882.40 512.20 L 895.00 505.00 L 894.90 490.40 L 882.40 497.60 Z" fill="#cad0dd" fill-rule="nonzero" group-id="1,26" node-id="300" stroke="none" target-height="84.70001" target-width="77.70001" target-x="882.3" target-y="427.5"></path><path d="M 808.20 526.20 L 806.10 527.70 L 804.30 529.70 L 802.70 531.90 L 801.50 534.40 L 800.70 537.00 L 800.40 539.50 L 800.90 542.20 L 802.30 544.00 L 804.30 544.80 L 806.70 544.40 L 810.20 542.30 L 812.00 540.30 L 813.50 538.00 L 814.70 535.60 L 815.40 533.10 L 815.60 530.70 L 815.30 528.30 L 814.60 526.70 L 813.50 525.70 L 811.30 525.20 L 808.20 526.20 Z M 783.30 540.60 L 781.20 542.10 L 779.40 544.00 L 777.80 546.30 L 776.60 548.80 L 775.80 551.40 L 775.50 553.90 L 776.00 556.60 L 777.40 558.40 L 779.40 559.10 L 781.80 558.80 L 785.20 556.70 L 787.00 554.70 L 788.60 552.50 L 789.70 550.00 L 790.50 547.40 L 790.70 545.10 L 790.40 542.70 L 789.60 541.10 L 788.50 540.10 L 787.10 539.60 L 785.40 539.70 L 783.30 540.60 Z M 758.20 555.10 L 756.20 556.50 L 754.30 558.50 L 752.80 560.70 L 751.60 563.20 L 750.80 565.80 L 750.60 568.20 L 750.90 570.50 L 751.70 572.00 L 752.80 573.10 L 755.10 573.60 L 756.50 573.30 L 758.20 572.60 L 760.20 571.10 L 762.10 569.20 L 763.60 566.90 L 764.70 564.50 L 765.40 561.90 L 765.70 559.50 L 765.30 557.20 L 764.60 555.60 L 763.50 554.60 L 761.30 554.00 L 758.20 555.10 Z" fill="#f9bb4a" fill-rule="nonzero" group-id="1,27" node-id="305" stroke="none" target-height="48.399963" target-width="65" target-x="750.6" target-y="525.2"></path><path d="M 738.30 479.90 L 532.60 360.40 L 532.70 415.50 L 738.40 535.00 L 738.30 479.90 Z" fill="#474b59" fill-rule="nonzero" group-id="1,28" node-id="310" stroke="none" target-height="174.6" target-width="205.80005" target-x="532.6" target-y="360.4"></path><path d="M 972.20 344.90 L 766.50 225.30 L 532.60 360.40 L 738.30 479.90 L 972.20 344.90 Z" fill="#5b5e71" fill-rule="nonzero" group-id="1,29" node-id="315" stroke="none" target-height="254.59999" target-width="439.60004" target-x="532.6" target-y="225.3"></path><path d="M 582.80 360.40 L 766.50 254.40 L 921.90 344.80 L 738.30 450.80 L 582.80 360.40 Z" fill="#363a44" fill-rule="nonzero" group-id="1,30" node-id="320" stroke="none" target-height="196.4" target-width="339.10004" target-x="582.8" target-y="254.4"></path><path d="M 738.30 479.90 L 738.40 535.00 L 972.30 399.90 L 972.20 344.90 L 738.30 479.90 Z" fill="#525566" fill-rule="nonzero" group-id="1,31" node-id="325" stroke="none" target-height="190.1" target-width="234" target-x="738.3" target-y="344.9"></path><path d="M 947.40 367.00 L 947.40 381.60 L 959.90 374.40 L 959.90 359.80 L 947.40 367.00 Z M 925.70 379.60 L 925.70 394.20 L 938.30 386.90 L 938.20 372.30 L 925.70 379.60 Z M 904.00 392.10 L 904.00 406.70 L 916.60 399.40 L 916.50 384.80 L 904.00 392.10 Z M 882.30 404.60 L 882.40 419.20 L 894.90 412.00 L 894.90 397.40 L 882.30 404.60 Z M 947.40 392.30 L 947.50 407.00 L 960.00 399.70 L 960.00 385.10 L 947.40 392.30 Z M 925.80 404.90 L 925.80 419.50 L 938.30 412.20 L 938.30 397.60 L 925.80 404.90 Z M 904.10 417.40 L 904.10 432.00 L 916.60 424.70 L 916.60 410.10 L 904.10 417.40 Z M 882.40 429.90 L 882.40 444.50 L 895.00 437.30 L 894.90 422.70 L 882.40 429.90 Z" fill="#cad0dd" fill-rule="nonzero" group-id="1,32" node-id="330" stroke="none" target-height="84.70001" target-width="77.70001" target-x="882.3" target-y="359.8"></path><path d="M 808.20 458.50 L 806.10 460.00 L 804.30 462.00 L 802.70 464.30 L 801.50 466.70 L 800.70 469.30 L 800.40 471.80 L 800.90 474.50 L 802.30 476.30 L 804.30 477.10 L 806.70 476.70 L 810.20 474.60 L 812.00 472.60 L 813.50 470.30 L 814.70 467.90 L 815.40 465.40 L 815.60 463.00 L 815.30 460.60 L 814.60 459.00 L 813.50 458.00 L 811.30 457.50 L 808.20 458.50 Z M 783.30 472.90 L 781.20 474.40 L 779.40 476.30 L 777.80 478.60 L 776.60 481.10 L 775.80 483.70 L 775.50 486.20 L 775.60 487.70 L 776.60 489.90 L 778.30 491.20 L 780.60 491.40 L 783.30 490.40 L 785.20 489.00 L 787.00 487.00 L 788.60 484.80 L 789.70 482.30 L 790.50 479.70 L 790.70 477.40 L 790.40 475.00 L 789.60 473.40 L 788.50 472.40 L 787.10 471.90 L 785.40 472.10 L 783.30 472.90 Z M 758.20 487.40 L 756.20 488.80 L 754.30 490.80 L 752.80 493.00 L 751.60 495.50 L 750.80 498.10 L 750.60 500.50 L 750.90 502.80 L 751.70 504.30 L 752.80 505.40 L 755.10 505.90 L 758.20 504.90 L 760.20 503.40 L 762.10 501.50 L 763.60 499.20 L 764.70 496.80 L 765.40 494.20 L 765.70 491.80 L 765.30 489.50 L 764.60 487.90 L 763.50 486.90 L 761.30 486.30 L 758.20 487.40 Z" fill="#f9bb4a" fill-rule="nonzero" group-id="1,33" node-id="335" stroke="none" target-height="48.399994" target-width="65" target-x="750.6" target-y="457.5"></path><path d="M 944.10 112.40 L 993.70 141.60 L 990.30 139.90 L 986.60 138.60 L 982.80 137.70 L 978.60 137.30 L 974.10 137.40 L 969.90 137.90 L 965.30 138.80 L 960.60 140.30 L 955.50 142.30 L 950.20 144.90 L 900.60 115.70 L 906.00 113.10 L 911.00 111.10 L 915.80 109.60 L 920.30 108.70 L 924.60 108.20 L 929.00 108.10 L 933.20 108.50 L 937.10 109.40 L 940.70 110.70 L 944.10 112.40 Z" fill="#4562ef" fill-rule="nonzero" group-id="1,34" node-id="340" stroke="none" target-height="36.799995" target-width="93.10004" target-x="900.6" target-y="108.1"></path><path d="M 886.30 45.90 L 935.90 75.20 L 932.30 73.40 L 928.50 72.00 L 924.40 71.20 L 920.00 70.80 L 915.30 71.00 L 910.80 71.60 L 906.10 72.70 L 901.00 74.40 L 895.70 76.70 L 890.10 79.60 L 883.40 83.80 L 877.10 88.60 L 827.50 59.40 L 833.90 54.60 L 840.50 50.40 L 846.10 47.50 L 851.50 45.20 L 856.50 43.50 L 861.20 42.40 L 865.70 41.80 L 870.40 41.60 L 874.80 42.00 L 878.90 42.80 L 882.70 44.20 L 886.30 45.90 Z" fill="#576cfb" fill-rule="nonzero" group-id="1,35" node-id="345" stroke="none" target-height="47" target-width="108.400024" target-x="827.5" target-y="41.6"></path><path d="M 859.10 59.00 L 853.00 56.30 L 849.70 55.40 L 846.10 54.90 L 841.30 54.70 L 836.20 55.10 L 830.70 56.20 L 825.30 57.80 L 819.50 60.20 L 813.40 63.40 L 807.40 67.20 L 801.50 71.60 L 795.70 76.60 L 790.20 82.00 L 785.00 87.70 L 779.90 94.00 L 775.10 100.40 L 770.70 107.20 L 766.60 114.20 L 717.00 85.00 L 721.10 78.00 L 725.60 71.20 L 730.30 64.70 L 735.40 58.50 L 740.70 52.70 L 746.10 47.40 L 751.90 42.40 L 757.80 38.00 L 763.80 34.20 L 769.90 31.00 L 775.70 28.60 L 781.10 27.00 L 786.60 25.90 L 791.70 25.40 L 796.50 25.60 L 800.10 26.20 L 806.60 28.30 L 859.10 59.00 Z" fill="#4562ef" fill-rule="nonzero" group-id="1,36" node-id="350" stroke="none" target-height="88.799995" target-width="142.09998" target-x="717" target-y="25.4"></path><path d="M 572.30 488.60 L 522.70 459.40 L 519.40 457.20 L 516.50 454.60 L 513.70 451.50 L 511.30 448.00 L 509.10 443.90 L 507.40 439.70 L 506.00 435.20 L 504.90 430.10 L 504.30 424.50 L 504.00 418.20 L 504.30 410.70 L 505.20 402.90 L 506.80 394.90 L 508.80 387.00 L 511.50 379.10 L 514.60 371.10 L 518.30 363.30 L 522.30 355.80 L 526.80 348.40 L 531.70 341.30 L 537.00 334.60 L 542.50 328.30 L 592.10 357.50 L 586.50 363.80 L 581.30 370.50 L 576.40 377.60 L 571.90 385.00 L 567.80 392.60 L 564.20 400.30 L 561.00 408.30 L 558.40 416.20 L 556.30 424.10 L 554.80 432.10 L 553.90 439.90 L 553.60 447.40 L 553.80 453.70 L 554.50 459.30 L 555.60 464.40 L 556.90 468.90 L 558.60 473.10 L 560.80 477.20 L 563.30 480.70 L 566.00 483.80 L 569.00 486.40 L 572.30 488.60 Z M 665.20 221.70 L 615.60 192.50 L 616.70 184.80 L 618.40 177.00 L 620.60 169.10 L 623.40 161.40 L 626.60 153.70 L 630.30 146.10 L 634.40 138.70 L 638.90 131.60 L 643.80 124.70 L 649.00 118.10 L 654.50 112.00 L 660.20 106.40 L 666.30 101.10 L 672.50 96.50 L 678.80 92.40 L 684.40 89.50 L 689.70 87.20 L 694.70 85.50 L 699.40 84.40 L 704.30 83.70 L 708.90 83.60 L 713.10 84.00 L 717.00 84.90 L 766.60 114.10 L 762.70 113.20 L 758.40 112.80 L 753.90 112.90 L 749.00 113.60 L 744.30 114.70 L 739.30 116.40 L 734.00 118.70 L 728.40 121.70 L 722.10 125.70 L 715.90 130.30 L 709.80 135.60 L 704.10 141.20 L 698.60 147.30 L 693.30 153.90 L 688.50 160.80 L 684.00 167.90 L 679.90 175.30 L 676.20 182.90 L 672.90 190.60 L 670.20 198.30 L 667.90 206.30 L 666.30 214.00 L 665.20 221.70 Z" fill="#576cfb" fill-rule="nonzero" group-id="1,37" node-id="355" stroke="none" target-height="405" target-width="262.59998" target-x="504" target-y="83.6"></path><path d="M 592.10 357.50 L 542.50 328.30 L 541.30 324.10 L 540.40 319.40 L 539.80 314.30 L 539.60 308.70 L 540.40 296.40 L 541.40 290.10 L 542.90 283.60 L 545.30 275.10 L 548.30 266.60 L 551.90 258.20 L 556.10 249.90 L 560.70 242.00 L 565.80 234.30 L 571.30 226.90 L 577.20 220.10 L 583.30 213.70 L 588.30 209.20 L 598.40 201.50 L 603.60 198.30 L 609.70 195.10 L 615.60 192.50 L 665.20 221.70 L 659.30 224.30 L 653.10 227.50 L 648.00 230.70 L 637.80 238.40 L 632.90 242.90 L 626.70 249.30 L 620.90 256.10 L 615.30 263.50 L 610.30 271.20 L 605.60 279.10 L 601.50 287.40 L 597.90 295.80 L 594.80 304.30 L 592.40 312.80 L 591.00 319.30 L 590.00 325.60 L 589.20 337.90 L 589.40 343.50 L 590.00 348.60 L 590.90 353.30 L 592.10 357.50 Z" fill="#4562ef" fill-rule="nonzero" group-id="1,38" node-id="360" stroke="none" target-height="165" target-width="125.60004" target-x="539.6" target-y="192.5"></path><path d="M 813.50 63.40 L 819.70 60.20 L 825.50 57.70 L 830.90 56.10 L 836.10 55.10 L 840.40 54.70 L 844.50 54.70 L 848.30 55.10 L 851.90 55.90 L 855.30 57.10 L 858.50 58.60 L 861.60 60.50 L 864.40 62.80 L 867.00 65.40 L 869.50 68.50 L 872.00 72.60 L 874.10 77.20 L 875.80 82.50 L 877.10 88.60 L 883.40 83.80 L 890.10 79.60 L 895.70 76.70 L 900.90 74.40 L 905.90 72.70 L 910.60 71.60 L 915.10 71.00 L 919.80 70.80 L 924.10 71.20 L 928.20 72.00 L 932.00 73.20 L 935.50 74.90 L 938.90 77.10 L 941.90 79.70 L 944.70 82.70 L 947.20 86.30 L 949.40 90.30 L 951.10 94.50 L 952.50 99.00 L 953.60 104.10 L 954.30 109.80 L 954.60 116.00 L 954.30 123.40 L 953.50 130.70 L 952.10 137.80 L 950.20 145.00 L 955.60 142.30 L 960.70 140.30 L 965.50 138.80 L 970.10 137.80 L 974.40 137.40 L 978.90 137.40 L 983.10 137.80 L 987.00 138.70 L 990.70 140.10 L 994.10 141.80 L 997.30 144.00 L 1000.20 146.70 L 1002.80 149.70 L 1005.20 153.20 L 1007.40 157.30 L 1009.00 161.40 L 1010.40 165.90 L 1011.40 170.90 L 1012.00 176.40 L 1012.30 182.60 L 1012.10 188.70 L 1010.50 201.20 L 1009.10 207.70 L 1006.70 216.20 L 1003.70 224.70 L 1000.10 233.20 L 995.90 241.50 L 991.30 249.40 L 986.20 257.20 L 980.70 264.60 L 974.90 271.40 L 968.70 277.80 L 963.80 282.30 L 958.80 286.30 L 948.50 293.20 L 617.80 484.20 L 612.20 487.10 L 606.90 489.40 L 602.00 491.00 L 597.30 492.10 L 592.80 492.80 L 588.20 492.90 L 583.80 492.50 L 579.80 491.70 L 576.00 490.40 L 572.50 488.70 L 569.20 486.50 L 566.10 483.90 L 563.40 480.80 L 560.90 477.30 L 558.70 473.20 L 557.00 469.00 L 555.60 464.50 L 554.50 459.40 L 553.80 453.70 L 553.60 447.40 L 553.90 439.90 L 554.80 432.10 L 556.30 424.10 L 558.40 416.20 L 561.00 408.30 L 564.20 400.30 L 567.80 392.60 L 571.90 385.00 L 576.40 377.60 L 581.30 370.50 L 586.50 363.80 L 592.10 357.50 L 590.90 353.30 L 590.00 348.60 L 589.40 343.50 L 589.20 337.90 L 590.00 325.60 L 591.00 319.30 L 592.40 312.80 L 594.80 304.30 L 597.90 295.90 L 601.50 287.40 L 605.60 279.20 L 610.30 271.20 L 615.30 263.50 L 620.90 256.10 L 626.70 249.30 L 632.90 242.90 L 637.80 238.40 L 642.90 234.40 L 653.10 227.50 L 659.30 224.30 L 665.20 221.70 L 666.30 214.00 L 667.90 206.30 L 670.20 198.40 L 672.90 190.60 L 676.20 182.90 L 679.90 175.30 L 684.00 167.90 L 688.50 160.80 L 693.30 153.90 L 698.60 147.30 L 704.10 141.20 L 709.80 135.60 L 715.90 130.30 L 722.10 125.70 L 728.40 121.70 L 734.00 118.70 L 739.30 116.40 L 744.30 114.70 L 749.00 113.60 L 753.90 112.90 L 758.40 112.80 L 762.70 113.20 L 766.60 114.10 L 770.70 107.10 L 775.10 100.40 L 779.90 93.90 L 784.90 87.70 L 790.20 81.90 L 795.70 76.50 L 801.60 71.60 L 807.50 67.20 L 813.50 63.40 Z" fill="#748bfd" fill-rule="nonzero" group-id="1,39" node-id="365" stroke="none" target-height="438.19998" target-width="458.7" target-x="553.6" target-y="54.7"></path><path d="M 582.80 636.80 L 601.70 625.80 L 596.20 627.70 L 590.60 629.00 L 584.80 629.80 L 578.80 630.00 L 572.60 629.80 L 566.10 628.90 L 560.00 627.70 L 553.60 625.90 L 547.00 623.60 L 540.00 620.70 L 532.70 617.20 L 525.00 613.00 L 516.50 607.80 L 508.30 602.20 L 489.40 613.20 L 498.00 619.00 L 506.20 624.00 L 513.80 628.10 L 521.10 631.60 L 528.10 634.50 L 534.80 636.80 L 541.20 638.60 L 547.30 639.90 L 553.80 640.70 L 560.00 641.00 L 566.00 640.70 L 571.70 639.90 L 577.30 638.60 L 582.80 636.80 Z M 637.70 879.80 L 663.80 864.60 L 668.20 861.80 L 672.20 858.70 L 675.70 855.30 L 678.90 851.70 L 681.60 847.70 L 684.20 843.50 L 686.40 838.80 L 688.30 833.80 L 690.30 827.00 L 692.00 819.40 L 693.20 811.00 L 694.50 793.30 L 694.90 710.00 L 676.10 720.90 L 675.90 794.20 L 675.50 804.40 L 674.60 814.00 L 673.20 822.90 L 671.30 831.30 L 669.30 838.00 L 666.90 844.20 L 664.30 850.00 L 661.50 855.40 L 658.30 860.40 L 654.70 865.20 L 650.90 869.50 L 646.70 873.40 L 642.40 876.80 L 637.70 879.80 Z" fill="#75ca75" fill-rule="nonzero" group-id="1,40" node-id="370" stroke="none" target-height="277.59998" target-width="205.50003" target-x="489.4" target-y="602.2"></path><path d="M 676.10 721.00 L 694.90 710.00 L 686.40 705.90 L 678.20 701.40 L 669.80 696.30 L 661.60 690.70 L 653.50 684.50 L 645.60 677.90 L 637.90 670.70 L 630.40 663.00 L 623.00 654.60 L 615.70 645.70 L 608.60 636.10 L 601.70 625.80 L 582.80 636.80 L 589.70 647.00 L 596.80 656.60 L 604.10 665.60 L 611.50 673.90 L 619.10 681.70 L 626.80 688.90 L 634.70 695.50 L 642.70 701.60 L 650.90 707.20 L 659.30 712.40 L 667.60 716.90 L 676.10 721.00 Z" fill="#9ad898" fill-rule="nonzero" group-id="1,41" node-id="375" stroke="none" target-height="95.20001" target-width="112.10004" target-x="582.8" target-y="625.8"></path><path d="M 582.80 636.80 L 577.30 638.60 L 571.70 639.90 L 566.00 640.70 L 560.00 641.00 L 553.80 640.70 L 547.30 639.90 L 541.20 638.60 L 534.80 636.80 L 528.10 634.50 L 521.10 631.60 L 513.80 628.10 L 506.20 624.00 L 497.70 618.80 L 489.40 613.20 L 489.40 694.60 L 490.80 711.70 L 492.10 720.60 L 494.30 732.30 L 497.10 744.10 L 500.60 756.20 L 504.60 768.10 L 509.20 780.00 L 514.40 791.90 L 520.10 803.60 L 526.40 815.10 L 533.20 826.40 L 540.40 837.40 L 548.20 848.00 L 560.20 862.70 L 582.10 885.30 L 599.80 887.70 L 604.10 888.00 L 607.90 888.10 L 614.30 887.50 L 620.30 886.50 L 626.00 885.00 L 631.30 883.00 L 636.40 880.50 L 641.20 877.50 L 645.80 874.10 L 650.00 870.30 L 654.00 866.00 L 657.70 861.20 L 661.00 856.20 L 664.00 850.80 L 666.60 845.00 L 669.00 838.60 L 671.10 831.80 L 672.80 825.10 L 675.00 810.50 L 675.60 802.60 L 676.10 721.00 L 667.60 716.90 L 659.30 712.40 L 650.90 707.20 L 642.70 701.60 L 634.70 695.50 L 626.80 688.90 L 619.10 681.70 L 611.50 673.90 L 604.10 665.60 L 596.80 656.60 L 589.70 647.00 L 582.80 636.80 Z" fill="#6eba6e" fill-rule="nonzero" group-id="1,42" node-id="380" stroke="none" target-height="274.89996" target-width="186.69998" target-x="489.4" target-y="613.2"></path><path d="M 607.50 875.10 L 613.60 874.60 L 619.20 873.50 L 624.20 871.90 L 628.90 869.80 L 633.30 867.20 L 637.40 864.20 L 641.10 860.80 L 644.50 857.00 L 647.60 852.90 L 652.90 843.80 L 655.10 838.70 L 657.50 831.80 L 659.50 824.60 L 661.00 817.10 L 662.00 809.50 L 662.70 801.80 L 663.10 729.10 L 652.80 723.60 L 644.40 718.40 L 636.20 712.90 L 628.10 706.80 L 620.20 700.30 L 612.40 693.20 L 605.10 686.00 L 597.90 678.20 L 590.90 670.00 L 584.10 661.20 L 577.40 652.00 L 571.70 653.10 L 565.90 653.70 L 560.00 653.90 L 553.40 653.70 L 546.60 652.90 L 539.60 651.50 L 532.20 649.60 L 525.20 647.20 L 517.80 644.30 L 510.20 640.80 L 502.30 636.70 L 502.20 686.40 L 502.90 702.40 L 503.80 710.70 L 505.00 719.20 L 507.20 730.50 L 510.00 741.80 L 513.40 753.40 L 517.30 764.80 L 521.80 776.20 L 526.80 787.50 L 532.30 798.60 L 538.20 809.50 L 544.60 820.10 L 551.40 830.50 L 558.70 840.40 L 566.30 850.00 L 572.90 857.40 L 588.30 873.10 L 597.80 874.50 L 607.50 875.10 Z" fill="#9ad898" fill-rule="nonzero" group-id="1,43" node-id="385" stroke="none" target-height="238.39996" target-width="160.89996" target-x="502.2" target-y="636.7"></path><path d="M 603.80 808.10 L 593.40 769.20 L 594.90 768.20 L 596.10 767.00 L 597.90 763.40 L 598.50 758.50 L 598.30 755.20 L 597.60 751.70 L 594.90 744.70 L 590.80 738.40 L 588.40 735.50 L 585.70 733.20 L 582.90 731.30 L 579.90 729.90 L 577.30 729.20 L 574.90 729.20 L 572.70 729.70 L 570.80 730.80 L 569.20 732.40 L 568.10 734.50 L 567.40 737.10 L 567.10 740.40 L 567.70 745.80 L 570.00 752.90 L 572.20 756.90 L 561.50 783.70 L 603.80 808.10 Z" fill="#ffffff" fill-rule="nonzero" group-id="1,44" node-id="390" stroke="none" target-height="78.89996" target-width="42.299988" target-x="561.5" target-y="729.2"></path><path d="M 561.50 783.60 L 572.20 757.00 L 570.00 752.90 L 568.40 748.60 L 567.60 745.70 L 567.00 740.30 L 567.30 737.30 L 567.90 735.00 L 568.80 733.10 L 570.10 731.50 L 571.60 730.30 L 573.40 729.50 L 575.40 729.20 L 577.60 729.30 L 580.10 729.90 L 579.30 731.40 L 578.30 735.00 L 578.40 739.70 L 579.60 745.40 L 581.20 749.60 L 583.40 753.60 L 572.60 780.40 L 561.50 783.60 Z" fill="#474b59" fill-rule="nonzero" group-id="1,45" node-id="395" stroke="none" target-height="54.399963" target-width="21.900024" target-x="561.5" target-y="729.2"></path><path d="M 572.60 780.40 L 600.80 796.50 L 603.80 808.10 L 561.50 783.60 L 572.60 780.40 Z" fill="#5b5e71" fill-rule="nonzero" group-id="1,46" node-id="400" stroke="none" target-height="27.699951" target-width="42.299988" target-x="561.5" target-y="780.4"></path><path d="M 583.40 753.60 L 581.20 749.60 L 579.60 745.40 L 578.40 739.70 L 578.30 735.00 L 579.30 731.40 L 580.10 729.90 L 582.90 731.20 L 585.70 733.20 L 588.30 735.50 L 593.00 741.50 L 596.40 748.20 L 597.60 751.80 L 598.20 755.20 L 598.20 761.20 L 597.10 765.30 L 596.10 767.00 L 594.90 768.30 L 593.50 769.30 L 600.80 796.50 L 572.60 780.40 L 583.40 753.60 Z" fill="#3f434f" fill-rule="nonzero" group-id="1,47" node-id="405" stroke="none" target-height="66.599976" target-width="28.200012" target-x="572.6" target-y="729.9"></path><path d="M 132.60 679.30 L 103.10 662.20 L 85.90 676.60 L 68.40 690.50 L 50.50 704.00 L 80.00 721.10 L 97.90 707.60 L 115.40 693.70 L 132.60 679.30 Z" fill="#748bfd" fill-rule="nonzero" group-id="1,48" node-id="410" stroke="none" target-height="58.899963" target-width="82.100006" target-x="50.5" target-y="662.2"></path><path d="M 80.00 721.10 L 50.50 704.00 L 50.70 788.90 L 80.20 806.10 L 80.00 721.10 Z" fill="#576cfb" fill-rule="nonzero" group-id="1,49" node-id="415" stroke="none" target-height="102.099976" target-width="29.699997" target-x="50.5" target-y="704"></path><path d="M 132.60 679.30 L 115.40 693.70 L 97.90 707.60 L 80.00 721.10 L 80.20 806.10 L 132.90 775.70 L 132.60 679.30 Z" fill="#4562ef" fill-rule="nonzero" group-id="1,50" node-id="420" stroke="none" target-height="126.79999" target-width="52.899994" target-x="80" target-y="679.3"></path><path d="M 236.30 578.40 L 219.10 596.80 L 201.60 614.90 L 183.70 632.60 L 184.00 746.20 L 236.70 715.80 L 236.30 578.40 Z" fill="#bac1ce" fill-rule="nonzero" group-id="1,51" node-id="425" stroke="none" target-height="167.79999" target-width="53" target-x="183.7" target-y="578.4"></path><path d="M 236.30 578.40 L 206.80 561.30 L 189.60 579.70 L 172.10 597.70 L 154.20 615.50 L 183.70 632.60 L 201.60 614.90 L 219.10 596.80 L 236.30 578.40 Z" fill="#d4dae8" fill-rule="nonzero" group-id="1,52" node-id="430" stroke="none" target-height="71.29999" target-width="82.100006" target-x="154.2" target-y="561.3"></path><path d="M 183.70 632.60 L 154.20 615.50 L 154.50 729.00 L 184.00 746.20 L 183.70 632.60 Z" fill="#cad0dd" fill-rule="nonzero" group-id="1,53" node-id="435" stroke="none" target-height="130.70001" target-width="29.800003" target-x="154.2" target-y="615.5"></path><path d="M 443.40 300.40 L 413.90 283.30 L 396.80 310.60 L 379.30 337.70 L 361.40 364.50 L 390.90 381.60 L 408.80 354.80 L 426.30 327.80 L 443.40 300.40 Z" fill="#fed57a" fill-rule="nonzero" group-id="1,54" node-id="440" stroke="none" target-height="98.30002" target-width="82" target-x="361.4" target-y="283.3"></path><path d="M 390.90 381.60 L 361.40 364.50 L 362.10 609.20 L 391.60 626.30 L 390.90 381.60 Z" fill="#f9bb4a" fill-rule="nonzero" group-id="1,55" node-id="445" stroke="none" target-height="261.8" target-width="30.200012" target-x="361.4" target-y="364.5"></path><path d="M 443.40 300.40 L 426.30 327.80 L 408.80 354.80 L 390.90 381.60 L 391.60 626.30 L 444.20 595.90 L 443.40 300.40 Z" fill="#efac41" fill-rule="nonzero" group-id="1,56" node-id="450" stroke="none" target-height="325.9" target-width="53.30002" target-x="390.9" target-y="300.4"></path><path d="M 339.90 452.80 L 310.30 435.70 L 293.20 458.20 L 275.60 480.50 L 257.80 502.50 L 287.30 519.70 L 305.90 496.70 L 323.40 474.40 L 339.90 452.80 Z" fill="#4c7891" fill-rule="nonzero" group-id="1,57" node-id="455" stroke="none" target-height="84" target-width="82.100006" target-x="257.8" target-y="435.7"></path><path d="M 287.30 519.70 L 257.80 502.50 L 258.30 669.10 L 287.80 686.30 L 287.30 519.70 Z" fill="#416e84" fill-rule="nonzero" group-id="1,58" node-id="460" stroke="none" target-height="183.79999" target-width="30" target-x="257.8" target-y="502.5"></path><path d="M 339.90 452.80 L 322.70 475.40 L 305.20 497.70 L 287.30 519.70 L 287.80 686.30 L 340.40 655.90 L 339.90 452.80 Z" fill="#37617b" fill-rule="nonzero" group-id="1,59" node-id="465" stroke="none" target-height="233.5" target-width="53.100006" target-x="287.3" target-y="452.8"></path><path d="M 41.30 633.60 L 11.70 616.50 L 14.80 640.00 L 44.30 657.10 L 41.30 633.60 Z" fill="#e63044" fill-rule="nonzero" group-id="1,60" node-id="470" stroke="none" target-height="40.599976" target-width="32.6" target-x="11.7" target-y="616.5"></path><path d="M 448.60 147.90 L 419.10 130.70 L 354.60 176.60 L 384.10 193.70 L 448.60 147.90 Z" fill="#fa5168" fill-rule="nonzero" group-id="1,61" node-id="475" stroke="none" target-height="63" target-width="94" target-x="354.6" target-y="130.7"></path><path d="M 404.10 205.20 L 386.90 233.70 L 376.10 251.10 L 348.70 293.40 L 332.40 317.50 L 315.10 342.10 L 296.00 368.50 L 268.90 404.20 L 239.40 441.10 L 207.80 478.30 L 191.40 496.60 L 174.50 514.80 L 157.10 532.90 L 139.30 550.50 L 121.10 567.70 L 102.60 584.40 L 88.40 596.70 L 74.10 608.50 L 59.60 619.90 L 41.30 633.70 L 11.70 616.50 L 30.00 602.70 L 44.50 591.30 L 58.80 579.50 L 73.00 567.30 L 91.60 550.50 L 109.70 533.30 L 127.50 515.70 L 144.90 497.70 L 161.80 479.50 L 178.20 461.10 L 194.40 442.50 L 209.80 424.00 L 239.40 387.00 L 266.40 351.30 L 285.50 324.90 L 302.80 300.30 L 333.20 254.70 L 357.30 216.50 L 374.50 188.00 L 404.10 205.20 Z" fill="#f34858" fill-rule="nonzero" group-id="1,62" node-id="480" stroke="none" target-height="445.7" target-width="392.4" target-x="11.7" target-y="188"></path><path d="M 448.60 147.90 L 384.10 193.70 L 404.00 205.20 L 396.80 217.50 L 376.00 251.10 L 362.80 271.80 L 332.30 317.40 L 315.10 342.10 L 296.00 368.50 L 268.90 404.20 L 239.40 441.10 L 223.90 459.60 L 207.80 478.30 L 191.40 496.60 L 174.40 514.80 L 157.00 532.90 L 139.30 550.50 L 121.10 567.70 L 102.60 584.40 L 88.40 596.70 L 74.00 608.50 L 59.50 619.90 L 41.20 633.60 L 44.30 657.10 L 61.90 643.90 L 89.60 621.80 L 103.30 610.10 L 121.10 594.10 L 138.70 577.70 L 156.00 560.90 L 172.90 543.60 L 189.40 526.20 L 205.50 508.60 L 236.60 472.90 L 251.30 455.20 L 279.70 419.60 L 312.20 376.60 L 329.80 352.20 L 346.60 328.30 L 375.50 285.30 L 398.40 249.40 L 419.80 214.00 L 437.50 224.10 L 448.60 147.90 Z" fill="#f9607f" fill-rule="nonzero" group-id="1,63" node-id="485" stroke="none" target-height="509.19998" target-width="407.4" target-x="41.2" target-y="147.9"></path><path d="M 138.20 824.50 L 138.80 853.60 L 139.50 855.70 L 140.70 858.00 L 142.30 859.90 L 144.40 861.90 L 147.10 863.70 L 370.70 993.60 L 376.90 996.30 L 380.50 997.30 L 385.90 998.20 L 391.70 998.60 L 397.40 998.20 L 402.90 997.30 L 406.50 996.30 L 412.90 993.60 L 590.00 891.40 L 593.00 889.30 L 595.20 887.20 L 596.90 885.10 L 598.00 883.10 L 598.60 881.00 L 598.90 852.10 L 598.60 854.30 L 597.90 856.40 L 596.60 858.60 L 595.00 860.60 L 592.80 862.50 L 590.00 864.30 L 412.90 966.60 L 406.50 969.40 L 402.90 970.50 L 395.50 971.60 L 387.80 971.60 L 380.30 970.50 L 376.70 969.40 L 370.40 966.60 L 147.10 836.70 L 144.30 834.80 L 142.10 833.00 L 140.40 831.10 L 139.20 828.90 L 138.50 826.70 L 138.20 824.50 Z" fill="#3f434f" fill-rule="nonzero" group-id="1,64" node-id="490" stroke="none" target-height="174.09998" target-width="460.7" target-x="138.2" target-y="824.5"></path><path d="M 147.20 812.20 L 144.40 814.20 L 142.10 816.10 L 140.50 818.10 L 139.40 820.10 L 138.60 822.30 L 138.40 824.50 L 138.60 826.70 L 139.30 828.90 L 140.40 830.90 L 142.10 832.90 L 144.20 834.90 L 147.10 836.80 L 370.50 966.60 L 376.80 969.40 L 380.40 970.40 L 387.80 971.60 L 391.60 971.70 L 395.50 971.60 L 402.90 970.40 L 406.50 969.40 L 412.90 966.60 L 589.90 864.40 L 592.80 862.50 L 594.90 860.60 L 596.60 858.60 L 597.70 856.60 L 598.50 854.30 L 598.70 852.20 L 598.50 850.00 L 597.80 847.70 L 596.70 845.70 L 595.10 843.70 L 592.90 841.80 L 590.10 839.80 L 366.70 710.00 L 360.30 707.20 L 356.80 706.20 L 349.30 705.10 L 345.40 705.00 L 337.80 705.50 L 330.60 707.20 L 327.30 708.50 L 147.20 812.20 Z" fill="#5b5e71" fill-rule="nonzero" group-id="1,65" node-id="495" stroke="none" target-height="266.7" target-width="460.30002" target-x="138.4" target-y="705"></path><path d="M 380.60 796.70 L 380.60 800.10 L 410.70 817.60 L 416.60 817.60 L 458.10 793.60 L 458.10 790.20 L 428.00 772.70 L 422.10 772.70 L 380.60 796.70 Z" fill="#f9607f" fill-rule="nonzero" group-id="1,66" node-id="500" stroke="none" target-height="44.899963" target-width="77.5" target-x="380.6" target-y="772.7"></path><path d="M 307.50 899.50 L 307.40 902.90 L 389.80 950.80 L 395.70 950.80 L 437.00 927.00 L 437.00 923.60 L 354.60 875.70 L 348.70 875.70 L 307.50 899.50 Z" fill="#fed57a" fill-rule="nonzero" group-id="1,67" node-id="505" stroke="none" target-height="75.099976" target-width="129.6" target-x="307.4" target-y="875.7"></path><path d="M 255.20 869.10 L 255.10 872.50 L 285.30 890.00 L 291.10 890.00 L 332.40 866.20 L 332.40 862.80 L 302.30 845.30 L 296.40 845.30 L 255.20 869.10 Z" fill="#75ca75" fill-rule="nonzero" group-id="1,68" node-id="510" stroke="none" target-height="44.700012" target-width="77.29999" target-x="255.1" target-y="845.3"></path><path d="M 317.90 832.90 L 317.90 836.30 L 348.00 853.80 L 353.90 853.80 L 395.10 830.00 L 395.20 826.60 L 365.00 809.10 L 359.20 809.10 L 317.90 832.90 Z" fill="#748bfd" fill-rule="nonzero" group-id="1,69" node-id="515" stroke="none" target-height="44.700012" target-width="77.30002" target-x="317.9" target-y="809.1"></path><path d="M 422.50 893.70 L 422.50 897.10 L 452.60 914.60 L 458.50 914.60 L 499.70 890.80 L 499.70 887.40 L 469.60 869.90 L 463.70 869.90 L 422.50 893.70 Z M 370.20 863.30 L 370.20 866.70 L 400.30 884.20 L 406.20 884.20 L 447.40 860.40 L 447.40 857.00 L 417.30 839.50 L 411.50 839.50 L 370.20 863.30 Z" fill="#cad0dd" fill-rule="nonzero" group-id="1,70" node-id="520" stroke="none" target-height="75.099976" target-width="129.5" target-x="370.2" target-y="839.5"></path><path d="M 176.10 819.60 L 175.10 820.40 L 174.40 822.10 L 175.20 823.80 L 176.30 824.60 L 231.70 856.80 L 234.50 857.80 L 237.60 857.80 L 239.10 857.50 L 404.50 762.20 L 405.60 761.30 L 406.30 759.60 L 405.60 757.90 L 404.60 757.00 L 349.10 724.80 L 347.10 724.00 L 344.70 723.80 L 342.30 724.10 L 340.30 724.80 L 176.10 819.60 Z" fill="#e4e8f4" fill-rule="nonzero" group-id="1,71" node-id="525" stroke="none" target-height="134" target-width="231.9" target-x="174.4" target-y="723.8"></path><path d="M 432.90 827.10 L 432.90 830.50 L 463.00 848.00 L 468.90 848.00 L 510.40 824.00 L 510.40 820.60 L 480.30 803.10 L 474.40 803.10 L 432.90 827.10 Z M 485.20 857.50 L 485.20 860.90 L 515.30 878.40 L 521.20 878.40 L 562.70 854.40 L 562.70 851.00 L 532.60 833.50 L 526.70 833.50 L 485.20 857.50 Z" fill="#cad0dd" fill-rule="nonzero" group-id="1,72" node-id="530" stroke="none" target-height="75.30005" target-width="129.80002" target-x="432.9" target-y="803.1"></path><path d="M 792.50 259.80 L 773.40 273.50 L 771.70 279.40 L 769.50 285.50 L 781.80 296.10 L 767.00 321.70 L 750.70 316.40 L 747.20 320.30 L 743.30 323.90 L 740.90 349.20 L 720.10 361.20 L 717.50 338.80 L 713.80 339.60 L 710.00 340.00 L 693.80 363.90 L 679.00 355.50 L 691.10 330.70 L 689.60 328.40 L 687.20 323.30 L 668.10 331.70 L 668.00 307.70 L 685.80 294.90 L 688.00 285.60 L 689.60 280.80 L 678.70 271.40 L 693.50 245.80 L 706.40 250.10 L 711.90 243.60 L 717.80 237.90 L 719.70 218.30 L 740.50 206.20 L 742.40 223.70 L 746.20 222.80 L 750.00 222.50 L 753.80 222.80 L 766.70 203.50 L 781.60 212.00 L 770.80 233.90 L 773.60 240.00 L 774.70 243.60 L 792.40 235.80 L 792.50 259.80 Z M 730.40 320.00 L 734.60 317.30 L 738.70 314.00 L 742.60 310.10 L 746.30 305.90 L 749.60 301.40 L 752.60 296.50 L 755.30 291.50 L 757.60 286.30 L 759.40 281.10 L 760.80 275.70 L 761.60 270.60 L 761.80 265.60 L 761.10 258.40 L 759.30 252.90 L 756.30 248.30 L 752.50 245.30 L 747.90 243.50 L 742.50 243.30 L 736.70 244.50 L 730.20 247.50 L 725.90 250.30 L 721.90 253.60 L 717.90 257.40 L 714.30 261.60 L 710.90 266.20 L 707.90 271.00 L 705.20 276.10 L 703.00 281.20 L 701.10 286.40 L 699.80 291.80 L 699.00 297.00 L 698.70 302.00 L 699.40 309.10 L 701.20 314.70 L 704.20 319.20 L 708.00 322.30 L 712.60 324.00 L 718.10 324.30 L 723.80 323.00 L 730.40 320.00 Z" fill="#fed57a" fill-rule="nonzero" group-id="1,73" node-id="535" stroke="none" target-height="160.4" target-width="124.5" target-x="668" target-y="203.5"></path><path d="M 871.60 150.30 L 856.90 159.70 L 853.40 168.90 L 862.20 178.30 L 850.00 197.40 L 838.10 192.10 L 832.30 197.60 L 829.40 217.50 L 813.40 225.50 L 812.50 207.60 L 809.70 208.00 L 806.80 207.90 L 793.60 225.90 L 783.00 218.10 L 793.10 199.30 L 791.60 196.30 L 790.50 193.10 L 775.90 198.40 L 776.90 179.30 L 790.70 170.50 L 792.10 165.10 L 794.10 159.50 L 786.40 151.20 L 798.50 132.10 L 808.00 136.40 L 812.30 131.70 L 816.90 127.50 L 819.20 112.00 L 835.30 103.90 L 835.90 117.90 L 838.80 117.50 L 844.50 118.00 L 854.90 103.70 L 865.60 111.40 L 856.70 128.10 L 858.10 131.80 L 859.10 136.00 L 872.70 131.10 L 871.60 150.30 Z M 848.50 152.60 L 848.50 148.50 L 848.00 145.10 L 847.20 142.20 L 846.00 139.70 L 844.40 137.50 L 842.50 135.80 L 840.30 134.60 L 837.80 133.80 L 835.30 133.50 L 832.40 133.80 L 829.30 134.60 L 825.80 136.00 L 821.10 138.90 L 815.20 144.10 L 810.00 150.40 L 807.60 154.00 L 805.60 157.70 L 802.40 165.30 L 801.20 169.30 L 800.00 177.00 L 800.10 181.00 L 800.60 184.50 L 801.40 187.40 L 802.60 189.80 L 804.20 192.10 L 806.10 193.80 L 808.30 195.00 L 810.80 195.80 L 813.30 196.10 L 816.10 195.80 L 819.30 195.00 L 822.80 193.60 L 827.50 190.70 L 833.40 185.50 L 838.60 179.20 L 840.90 175.60 L 843.00 171.90 L 846.20 164.30 L 847.40 160.30 L 848.50 152.60 Z" fill="#ffffff" fill-rule="nonzero" group-id="1,74" node-id="540" stroke="none" target-height="122.2" target-width="96.79999" target-x="775.9" target-y="103.7"></path><path d="M 876.50 273.40 L 861.70 283.00 L 858.30 292.10 L 867.00 301.50 L 854.90 320.70 L 843.00 315.40 L 837.20 320.90 L 834.30 340.80 L 818.20 348.80 L 817.30 330.90 L 811.60 331.20 L 798.50 349.10 L 787.90 341.30 L 798.00 322.50 L 796.50 319.50 L 795.40 316.30 L 780.80 321.70 L 781.80 302.50 L 795.60 293.70 L 797.00 288.30 L 799.00 282.80 L 791.30 274.50 L 803.40 255.30 L 812.90 259.70 L 815.60 256.50 L 821.80 250.80 L 824.10 235.20 L 840.20 227.10 L 840.80 241.20 L 843.90 240.80 L 846.70 240.80 L 849.30 241.30 L 859.70 227.00 L 870.40 234.70 L 861.50 251.40 L 863.30 256.30 L 864.00 259.30 L 877.50 254.40 L 876.50 273.40 Z M 853.40 275.80 L 853.40 271.70 L 852.90 268.30 L 852.10 265.40 L 850.90 263.00 L 849.20 260.70 L 847.40 259.00 L 845.20 257.80 L 842.70 257.00 L 840.10 256.70 L 837.30 256.90 L 834.20 257.70 L 830.70 259.20 L 826.10 262.00 L 820.10 267.20 L 814.90 273.60 L 812.60 277.20 L 810.50 280.90 L 807.30 288.50 L 806.10 292.50 L 804.90 300.20 L 805.00 304.30 L 805.50 307.70 L 806.30 310.60 L 807.50 313.10 L 809.10 315.30 L 811.00 317.00 L 813.20 318.30 L 815.70 319.00 L 818.20 319.30 L 821.00 319.10 L 824.20 318.30 L 827.70 316.80 L 832.40 314.00 L 838.30 308.70 L 843.50 302.40 L 845.80 298.90 L 847.90 295.20 L 851.10 287.50 L 852.30 283.50 L 853.40 275.80 Z" fill="#9ad898" fill-rule="nonzero" group-id="1,75" node-id="545" stroke="none" target-height="122.100006" target-width="96.70001" target-x="780.8" target-y="227"></path></g></g></svg>