<?xml version="1.0" standalone="no"?><!DOCTYPE svg PUBLIC "-//W3C//DTD SVG 1.1//EN" "http://www.w3.org/Graphics/SVG/1.1/DTD/svg11.dtd"><svg height="1024" node-id="1" sillyvg="true" template-height="1024" template-width="1024" version="1.1" viewBox="0 0 1024 1024" width="1024" xmlns="http://www.w3.org/2000/svg" xmlns:xlink="http://www.w3.org/1999/xlink"><defs node-id="367"><clipPath id="master_svg0_33_8381" node-id="3"><path d="M 0.00 0.00 L 1024.00 0.00 L 1024.00 1024.00 L 0.00 1024.00 Z" fill="#000000" fill-rule="nonzero" node-id="370" stroke="none" target-height="1024" target-width="1024" target-x="0" target-y="0"></path></clipPath></defs><g node-id="1275"><g clip-path="url(#master_svg0_33_8381)" group-id="1" id="sillyvg_g_1" node-id="376"><path d="M 777.30 720.70 L 777.60 812.50 L 928.10 899.90 L 927.80 808.10 L 777.30 720.70 Z" fill="#efac41" fill-rule="nonzero" group-id="1,2" node-id="380" stroke="none" target-height="179.20001" target-width="150.79999" target-x="777.3" target-y="720.7"></path><path d="M 887.50 798.70 L 887.60 828.90 L 914.90 844.80 L 914.80 814.60 L 887.50 798.70 Z" fill="#e4e8f4" fill-rule="nonzero" group-id="1,3" node-id="385" stroke="none" target-height="46.099976" target-width="27.400024" target-x="887.5" target-y="798.7"></path><path d="M 927.80 808.10 L 928.10 899.90 L 1011.70 851.60 L 1011.40 759.90 L 927.80 808.10 Z" fill="#f9bb4a" fill-rule="nonzero" group-id="1,4" node-id="390" stroke="none" target-height="140" target-width="83.900024" target-x="927.8" target-y="759.9"></path><path d="M 777.30 720.80 L 927.80 808.20 L 975.10 781.00 L 1011.40 759.90 L 861.00 672.50 L 777.30 720.80 Z" fill="#fed57a" fill-rule="nonzero" group-id="1,5" node-id="395" stroke="none" target-height="135.70001" target-width="234.10004" target-x="777.3" target-y="672.5"></path><path d="M 813.90 699.60 L 964.30 787.10 L 975.10 781.00 L 824.40 693.50 L 813.90 699.60 Z" fill="#efac41" fill-rule="nonzero" group-id="1,6" node-id="400" stroke="none" target-height="93.599976" target-width="161.19995" target-x="813.9" target-y="693.5"></path><path d="M 964.30 787.10 L 964.40 821.80 L 975.10 815.70 L 975.00 780.90 L 964.30 787.10 Z" fill="#efac41" fill-rule="nonzero" group-id="1,7" node-id="405" stroke="none" target-height="40.899963" target-width="10.799988" target-x="964.3" target-y="780.9"></path><path d="M 909.30 859.50 L 906.40 864.90 L 912.10 868.20 L 909.30 859.50 Z M 908.20 865.90 L 908.10 876.80 L 910.30 878.00 L 910.30 867.20 L 908.20 865.90 Z M 897.50 871.60 L 897.50 873.90 L 912.30 882.50 L 912.30 880.20 L 897.50 871.60 Z M 881.70 843.50 L 881.90 853.10 L 882.60 855.00 L 883.70 856.70 L 885.00 858.00 L 884.90 864.90 L 883.30 864.50 L 882.60 865.10 L 888.40 868.40 L 887.80 867.10 L 886.10 865.60 L 886.10 858.60 L 887.40 858.90 L 888.30 858.50 L 889.30 857.00 L 889.50 848.00 L 881.70 843.50 Z M 899.60 861.00 L 899.50 871.80 L 901.70 873.10 L 901.70 862.20 L 899.60 861.00 Z M 900.60 854.50 L 897.80 860.00 L 903.50 863.20 L 900.60 854.50 Z" fill="#3f434f" fill-rule="nonzero" group-id="1,8" node-id="410" stroke="none" target-height="39" target-width="30.599976" target-x="881.7" target-y="843.5"></path><path d="M 683.80 775.90 L 684.10 867.70 L 834.60 955.10 L 834.30 863.30 L 683.80 775.90 Z" fill="#efac41" fill-rule="nonzero" group-id="1,9" node-id="415" stroke="none" target-height="179.19995" target-width="150.79999" target-x="683.8" target-y="775.9"></path><path d="M 794.00 853.90 L 794.10 884.10 L 821.40 900.00 L 821.30 869.80 L 794.00 853.90 Z" fill="#e4e8f4" fill-rule="nonzero" group-id="1,10" node-id="420" stroke="none" target-height="46.099976" target-width="27.400024" target-x="794" target-y="853.9"></path><path d="M 834.30 863.30 L 834.60 955.10 L 918.20 906.80 L 917.90 815.00 L 834.30 863.30 Z" fill="#f9bb4a" fill-rule="nonzero" group-id="1,11" node-id="425" stroke="none" target-height="140.09998" target-width="83.900024" target-x="834.3" target-y="815"></path><path d="M 683.80 775.90 L 834.30 863.40 L 881.60 836.10 L 917.90 815.10 L 767.50 727.70 L 683.80 775.90 Z" fill="#fed57a" fill-rule="nonzero" group-id="1,12" node-id="430" stroke="none" target-height="135.70001" target-width="234.10004" target-x="683.8" target-y="727.7"></path><path d="M 720.30 754.80 L 870.80 842.20 L 881.60 836.10 L 730.90 748.70 L 720.30 754.80 Z" fill="#efac41" fill-rule="nonzero" group-id="1,13" node-id="435" stroke="none" target-height="93.5" target-width="161.29999" target-x="720.3" target-y="748.7"></path><path d="M 870.80 842.20 L 870.90 876.90 L 881.60 870.80 L 881.50 836.10 L 870.80 842.20 Z" fill="#efac41" fill-rule="nonzero" group-id="1,14" node-id="440" stroke="none" target-height="40.80005" target-width="10.799988" target-x="870.8" target-y="836.1"></path><path d="M 815.80 914.60 L 812.90 920.10 L 818.60 923.40 L 815.80 914.60 Z M 814.70 921.10 L 814.60 931.90 L 816.80 933.20 L 816.80 922.30 L 814.70 921.10 Z M 804.00 926.80 L 804.00 929.10 L 818.80 937.60 L 818.80 935.30 L 804.00 926.80 Z M 788.20 898.70 L 788.40 908.30 L 789.10 910.10 L 790.20 911.80 L 791.40 913.10 L 791.40 920.10 L 789.80 919.70 L 789.30 919.80 L 789.10 920.20 L 794.90 923.60 L 794.30 922.20 L 792.60 920.70 L 792.60 913.80 L 793.90 914.00 L 794.80 913.70 L 795.80 912.20 L 796.00 903.20 L 788.20 898.70 Z M 806.10 916.10 L 806.00 927.00 L 808.20 928.20 L 808.20 917.40 L 806.10 916.10 Z M 807.10 909.60 L 804.30 915.10 L 810.00 918.40 L 807.10 909.60 Z" fill="#3f434f" fill-rule="nonzero" group-id="1,15" node-id="445" stroke="none" target-height="38.899963" target-width="30.599976" target-x="788.2" target-y="898.7"></path><path d="M 212.80 768.30 L 564.60 564.50 L 563.30 565.60 L 562.30 567.10 L 561.60 569.10 L 561.40 571.50 L 562.10 576.30 L 562.90 578.80 L 564.60 582.40 L 566.90 585.70 L 568.60 587.70 L 572.50 590.60 L 574.80 591.70 L 576.80 592.10 L 578.70 592.00 L 580.30 591.40 L 228.50 795.20 L 226.80 795.80 L 224.90 795.90 L 222.90 795.50 L 220.60 794.40 L 216.80 791.50 L 215.00 789.50 L 212.80 786.20 L 211.00 782.60 L 210.20 780.10 L 209.50 775.40 L 209.80 772.90 L 210.40 771.00 L 211.50 769.40 L 212.80 768.30 Z" fill="#cad0dd" fill-rule="nonzero" group-id="1,16" node-id="450" stroke="none" target-height="231.40002" target-width="370.8" target-x="209.5" target-y="564.5"></path><path d="M 583.00 596.00 L 231.20 799.80 L 233.50 797.80 L 234.30 796.30 L 235.40 792.60 L 235.50 790.30 L 587.40 586.50 L 587.20 588.80 L 586.20 592.40 L 585.30 594.00 L 583.00 596.00 Z" fill="#cad0dd" fill-rule="nonzero" group-id="1,17" node-id="455" stroke="none" target-height="213.29999" target-width="356.2" target-x="231.2" target-y="586.5"></path><path d="M 231.70 788.10 L 583.60 584.30 L 587.40 586.50 L 235.50 790.30 L 231.70 788.10 Z" fill="#bac1ce" fill-rule="nonzero" group-id="1,18" node-id="460" stroke="none" target-height="206" target-width="355.7" target-x="231.7" target-y="584.3"></path><path d="M 361.20 844.90 L 713.10 641.10 L 713.10 645.40 L 361.20 849.30 L 361.20 844.90 Z" fill="#cad0dd" fill-rule="nonzero" group-id="1,19" node-id="465" stroke="none" target-height="208.20001" target-width="351.89996" target-x="361.2" target-y="641.1"></path><path d="M 713.20 641.10 L 361.20 844.90 L 220.60 764.70 L 218.50 763.60 L 214.80 762.60 L 213.00 762.70 L 210.10 763.60 L 563.40 559.20 L 565.00 558.90 L 568.50 559.10 L 572.50 560.80 L 713.20 641.10 Z" fill="#e4e8f4" fill-rule="nonzero" group-id="1,20" node-id="470" stroke="none" target-height="286" target-width="503.1" target-x="210.1" target-y="558.9"></path><path d="M 361.20 844.90 L 361.20 849.30 L 218.50 768.10 L 216.70 767.60 L 215.10 767.60 L 213.50 767.90 L 212.20 768.70 L 211.10 769.80 L 209.70 773.10 L 209.50 775.40 L 210.20 780.10 L 211.00 782.60 L 212.80 786.20 L 215.00 789.50 L 216.80 791.50 L 220.60 794.40 L 224.50 795.90 L 226.20 795.90 L 227.70 795.50 L 229.10 794.80 L 230.20 793.60 L 231.50 790.40 L 231.70 788.10 L 235.50 790.30 L 235.20 793.40 L 234.50 795.90 L 233.50 797.80 L 232.00 799.30 L 230.20 800.30 L 228.10 800.80 L 225.90 800.80 L 223.40 800.10 L 220.60 798.80 L 217.90 797.00 L 215.40 794.80 L 211.00 789.20 L 207.70 782.90 L 206.60 779.60 L 206.00 776.30 L 205.70 773.20 L 206.00 770.00 L 206.70 767.60 L 207.80 765.70 L 209.30 764.20 L 211.00 763.20 L 213.10 762.70 L 215.30 762.70 L 217.80 763.30 L 220.70 764.70 L 361.20 844.90 Z" fill="#d4dae8" fill-rule="nonzero" group-id="1,21" node-id="475" stroke="none" target-height="86.599976" target-width="155.50002" target-x="205.7" target-y="762.7"></path><path d="M 279.10 780.20 L 279.10 781.20 L 295.30 790.60 L 297.10 790.70 L 320.40 777.20 L 320.40 776.20 L 304.20 766.80 L 302.40 766.80 L 279.10 780.20 Z M 342.50 817.30 L 342.50 818.30 L 358.70 827.70 L 360.40 827.70 L 377.90 817.60 L 377.90 816.60 L 361.70 807.30 L 359.90 807.30 L 342.50 817.30 Z M 365.40 804.10 L 365.40 805.10 L 381.70 814.50 L 383.30 814.50 L 400.80 804.50 L 400.80 803.50 L 384.60 794.10 L 382.80 794.10 L 365.40 804.10 Z M 412.90 752.20 L 413.00 753.20 L 429.20 762.60 L 431.00 762.60 L 448.40 752.60 L 448.40 751.50 L 432.20 742.10 L 430.40 742.10 L 412.90 752.20 Z M 548.90 698.50 L 548.90 699.50 L 565.10 708.90 L 566.90 708.90 L 584.30 698.80 L 584.40 697.80 L 568.20 688.40 L 566.40 688.40 L 548.90 698.50 Z M 550.60 673.00 L 550.70 674.00 L 566.90 683.40 L 568.60 683.40 L 586.10 673.30 L 586.10 672.30 L 569.90 662.90 L 568.10 662.90 L 550.60 673.00 Z M 513.40 645.40 L 513.40 646.40 L 529.60 655.80 L 531.40 655.80 L 548.90 645.80 L 548.90 644.70 L 532.70 635.30 L 530.80 635.30 L 513.40 645.40 Z M 456.80 653.50 L 456.80 654.50 L 473.00 663.90 L 474.80 663.90 L 492.20 653.80 L 492.20 652.80 L 476.00 643.40 L 474.30 643.40 L 456.80 653.50 Z M 479.50 640.40 L 479.50 641.40 L 495.70 650.80 L 497.40 650.80 L 514.90 640.80 L 514.90 639.70 L 498.60 630.40 L 496.90 630.40 L 479.50 640.40 Z M 490.60 658.50 L 490.50 659.60 L 506.80 669.00 L 508.60 669.00 L 526.00 658.90 L 526.00 657.90 L 509.80 648.50 L 508.00 648.50 L 490.60 658.50 Z M 517.60 667.50 L 517.60 668.40 L 533.90 677.90 L 535.60 677.90 L 553.10 667.80 L 553.10 666.80 L 536.80 657.40 L 535.20 657.40 L 517.60 667.50 Z M 449.00 707.00 L 449.00 708.00 L 465.30 717.40 L 466.90 717.40 L 484.40 707.30 L 484.50 706.30 L 468.20 696.90 L 466.40 697.00 L 449.00 707.00 Z M 375.40 678.50 L 375.40 679.50 L 386.80 686.20 L 388.70 686.20 L 403.00 677.90 L 402.90 676.90 L 391.50 670.30 L 389.70 670.20 L 375.40 678.50 Z M 355.90 689.70 L 355.90 690.80 L 367.30 697.40 L 369.20 697.40 L 383.50 689.10 L 383.50 688.10 L 372.00 681.40 L 370.20 681.40 L 355.90 689.70 Z M 411.50 679.50 L 411.50 680.50 L 427.70 689.90 L 429.50 689.90 L 446.90 679.90 L 446.90 678.90 L 430.70 669.50 L 429.00 669.50 L 411.50 679.50 Z M 388.90 692.60 L 388.80 693.60 L 405.00 703.00 L 406.80 703.00 L 424.20 692.90 L 424.30 691.90 L 408.00 682.50 L 406.30 682.50 L 388.90 692.60 Z M 366.20 705.60 L 366.20 706.60 L 382.40 716.00 L 384.20 716.00 L 401.60 705.90 L 401.60 704.90 L 385.40 695.60 L 383.70 695.60 L 366.20 705.60 Z M 399.30 711.10 L 399.30 712.10 L 415.50 721.40 L 417.30 721.50 L 434.70 711.50 L 434.70 710.40 L 418.50 701.00 L 416.70 701.00 L 399.30 711.10 Z M 376.40 724.20 L 376.50 725.20 L 392.70 734.60 L 394.40 734.60 L 412.00 724.60 L 411.90 723.60 L 395.70 714.20 L 393.90 714.10 L 376.40 724.20 Z M 422.10 697.90 L 422.10 699.00 L 438.30 708.30 L 440.10 708.30 L 457.60 698.30 L 457.60 697.30 L 441.40 687.90 L 439.60 687.90 L 422.10 697.90 Z M 572.30 685.00 L 572.30 686.10 L 588.50 695.50 L 590.30 695.40 L 607.70 685.40 L 607.70 684.40 L 591.50 675.00 L 589.80 675.00 L 572.30 685.00 Z M 550.80 577.60 L 550.80 578.60 L 562.20 585.30 L 564.00 585.30 L 578.40 577.00 L 578.30 576.00 L 566.80 569.40 L 565.10 569.30 L 550.80 577.60 Z M 531.30 588.80 L 531.30 589.80 L 542.70 596.50 L 544.50 596.50 L 558.90 588.20 L 558.90 587.20 L 547.40 580.50 L 545.60 580.50 L 531.30 588.80 Z M 511.80 600.00 L 511.80 601.00 L 523.30 607.70 L 525.00 607.70 L 539.40 599.40 L 539.40 598.40 L 527.90 591.80 L 526.10 591.80 L 511.80 600.00 Z M 547.40 601.30 L 547.40 602.30 L 563.60 611.70 L 565.40 611.70 L 602.00 590.70 L 601.90 589.70 L 585.70 580.30 L 584.00 580.30 L 547.40 601.30 Z M 582.30 605.70 L 582.30 606.80 L 598.50 616.20 L 600.30 616.20 L 623.30 602.90 L 623.20 601.90 L 607.00 592.50 L 605.30 592.50 L 582.30 605.70 Z M 524.80 614.40 L 524.80 615.30 L 541.00 624.70 L 542.70 624.80 L 560.20 614.70 L 560.20 613.70 L 543.90 604.30 L 542.30 604.30 L 524.80 614.40 Z M 559.00 619.10 L 559.10 620.10 L 575.30 629.50 L 577.00 629.60 L 594.50 619.50 L 594.50 618.50 L 578.30 609.10 L 576.40 609.10 L 559.00 619.10 Z M 502.10 627.40 L 502.10 628.40 L 518.30 637.80 L 520.10 637.80 L 537.50 627.70 L 537.50 626.70 L 521.30 617.30 L 519.60 617.30 L 502.10 627.40 Z M 586.90 627.60 L 586.90 628.60 L 603.20 638.00 L 604.90 638.00 L 644.50 615.20 L 644.50 614.30 L 628.20 604.80 L 626.50 604.80 L 586.90 627.60 Z M 536.20 632.30 L 536.20 633.30 L 552.40 642.70 L 554.20 642.70 L 571.70 632.60 L 571.60 631.60 L 555.40 622.20 L 553.70 622.20 L 536.20 632.30 Z M 617.20 634.60 L 617.20 635.70 L 633.40 645.10 L 635.20 645.10 L 648.20 637.60 L 648.20 636.60 L 632.00 627.20 L 630.20 627.20 L 617.20 634.60 Z M 563.50 641.10 L 563.40 642.10 L 579.70 651.50 L 581.40 651.50 L 598.90 641.50 L 599.00 640.40 L 582.70 631.00 L 580.90 631.10 L 563.50 641.10 Z M 638.50 647.00 L 638.50 648.00 L 654.70 657.40 L 656.40 657.30 L 669.40 649.90 L 669.50 648.90 L 653.30 639.50 L 651.50 639.50 L 638.50 647.00 Z M 593.00 648.60 L 593.10 649.60 L 609.30 659.00 L 611.00 659.00 L 630.60 647.70 L 630.60 646.70 L 614.40 637.30 L 612.60 637.30 L 593.00 648.60 Z M 540.60 654.30 L 540.60 655.20 L 556.90 664.70 L 558.50 664.70 L 576.00 654.60 L 576.00 653.60 L 559.80 644.20 L 558.00 644.20 L 540.60 654.30 Z M 620.90 657.10 L 620.90 658.10 L 637.10 667.50 L 638.80 667.50 L 651.80 660.00 L 651.90 659.00 L 635.70 649.60 L 633.90 649.60 L 620.90 657.10 Z M 573.70 659.70 L 573.70 660.70 L 590.00 670.10 L 591.70 670.10 L 605.00 662.50 L 605.00 661.50 L 588.80 652.10 L 586.90 652.10 L 573.70 659.70 Z M 595.80 671.50 L 595.80 672.50 L 612.00 681.90 L 613.80 681.90 L 633.40 670.60 L 633.40 669.70 L 617.20 660.30 L 615.40 660.20 L 595.80 671.50 Z M 492.30 611.20 L 492.30 612.20 L 503.80 618.90 L 505.50 618.90 L 519.90 610.70 L 519.90 609.60 L 508.40 603.00 L 506.60 603.00 L 492.30 611.20 Z M 472.80 622.40 L 472.80 623.50 L 484.30 630.10 L 486.10 630.10 L 500.40 621.80 L 500.40 620.80 L 488.90 614.20 L 487.20 614.20 L 472.80 622.40 Z M 453.30 633.60 L 453.30 634.70 L 464.80 641.30 L 466.60 641.30 L 480.90 633.10 L 480.90 632.00 L 469.50 625.40 L 467.70 625.40 L 453.30 633.60 Z M 433.80 644.90 L 433.80 645.90 L 445.30 652.50 L 447.10 652.50 L 461.40 644.30 L 461.40 643.20 L 450.00 636.60 L 448.20 636.60 L 433.80 644.90 Z M 414.30 656.10 L 414.40 657.10 L 425.90 663.70 L 427.60 663.80 L 441.90 655.50 L 441.90 654.50 L 430.50 647.80 L 428.70 647.80 L 414.30 656.10 Z M 434.20 666.50 L 434.20 667.50 L 450.40 676.90 L 452.10 676.90 L 469.60 666.90 L 469.60 665.80 L 453.30 656.40 L 451.60 656.50 L 434.20 666.50 Z M 467.70 671.70 L 467.80 672.70 L 484.00 682.10 L 485.70 682.10 L 503.20 672.10 L 503.20 671.00 L 487.00 661.60 L 485.20 661.60 L 467.70 671.70 Z M 444.90 684.80 L 444.90 685.80 L 461.10 695.20 L 463.00 695.20 L 480.40 685.20 L 480.30 684.20 L 464.10 674.80 L 462.40 674.70 L 444.90 684.80 Z M 494.80 680.60 L 494.70 681.60 L 511.00 691.10 L 512.70 691.00 L 530.20 681.00 L 530.20 680.00 L 513.90 670.60 L 512.30 670.60 L 494.80 680.60 Z M 527.70 686.20 L 527.70 687.20 L 543.90 696.60 L 545.70 696.60 L 563.20 686.60 L 563.20 685.50 L 546.90 676.10 L 545.10 676.10 L 527.70 686.20 Z M 471.90 693.80 L 471.80 694.80 L 488.10 704.20 L 489.80 704.20 L 507.30 694.20 L 507.40 693.20 L 491.10 683.70 L 489.30 683.80 L 471.90 693.80 Z M 504.80 699.40 L 504.80 700.40 L 521.00 709.80 L 522.80 709.80 L 540.20 699.70 L 540.20 698.70 L 524.00 689.30 L 522.20 689.30 L 504.80 699.40 Z M 481.80 712.60 L 481.80 713.60 L 498.10 723.00 L 499.80 723.00 L 517.30 712.90 L 517.20 711.90 L 501.00 702.50 L 499.30 702.50 L 481.80 712.60 Z M 458.90 725.80 L 458.90 726.80 L 475.10 736.20 L 476.90 736.20 L 494.30 726.20 L 494.30 725.10 L 478.10 715.70 L 476.30 715.70 L 458.90 725.80 Z M 426.10 720.10 L 426.10 721.10 L 442.30 730.60 L 444.10 730.50 L 461.50 720.50 L 461.50 719.50 L 445.30 710.10 L 443.60 710.10 L 426.10 720.10 Z M 403.20 733.30 L 403.10 734.30 L 419.40 743.80 L 421.20 743.70 L 438.60 733.70 L 438.70 732.70 L 422.40 723.20 L 420.70 723.30 L 403.20 733.30 Z M 297.50 723.30 L 297.50 724.40 L 308.90 731.00 L 310.70 731.00 L 325.10 722.80 L 325.00 721.80 L 313.50 715.10 L 311.80 715.10 L 297.50 723.30 Z M 336.40 700.90 L 336.50 701.90 L 347.90 708.60 L 349.60 708.60 L 364.00 700.40 L 364.00 699.30 L 352.50 692.70 L 350.70 692.70 L 336.40 700.90 Z M 316.90 712.20 L 317.00 713.20 L 328.40 719.80 L 330.10 719.80 L 344.50 711.60 L 344.50 710.50 L 333.00 703.90 L 331.20 703.90 L 316.90 712.20 Z M 343.50 718.70 L 343.50 719.70 L 359.70 729.00 L 361.50 729.00 L 378.90 719.00 L 378.90 718.00 L 362.70 708.60 L 361.00 708.60 L 343.50 718.70 Z M 278.00 734.60 L 278.00 735.60 L 289.40 742.20 L 291.20 742.20 L 305.60 734.00 L 305.60 732.90 L 294.10 726.30 L 292.30 726.30 L 278.00 734.60 Z M 320.90 731.70 L 320.90 732.70 L 337.10 742.10 L 338.80 742.10 L 356.30 732.00 L 356.30 731.00 L 340.00 721.60 L 338.40 721.60 L 320.90 731.70 Z M 353.70 737.30 L 353.70 738.40 L 369.90 747.70 L 371.70 747.70 L 389.10 737.70 L 389.10 736.60 L 372.90 727.30 L 371.10 727.30 L 353.70 737.30 Z M 258.40 745.80 L 258.50 746.80 L 270.00 753.40 L 271.70 753.50 L 286.10 745.20 L 286.10 744.20 L 274.60 737.50 L 272.80 737.50 L 258.40 745.80 Z M 298.20 744.70 L 298.20 745.70 L 314.40 755.10 L 316.20 755.10 L 333.60 745.10 L 333.60 744.00 L 317.40 734.60 L 315.70 734.70 L 298.20 744.70 Z M 380.30 746.50 L 380.20 747.50 L 396.50 757.00 L 398.20 756.90 L 415.70 746.90 L 415.80 745.90 L 399.50 736.40 L 397.80 736.50 L 380.30 746.50 Z M 330.80 750.40 L 330.80 751.50 L 347.00 760.90 L 348.80 760.90 L 366.30 750.80 L 366.30 749.80 L 350.10 740.40 L 348.30 740.40 L 330.80 750.40 Z M 275.60 757.80 L 275.60 758.70 L 291.80 768.10 L 293.50 768.20 L 311.00 758.10 L 310.90 757.10 L 294.70 747.70 L 293.10 747.70 L 275.60 757.80 Z M 357.40 759.70 L 357.40 760.70 L 373.70 770.10 L 375.30 770.10 L 392.80 760.10 L 392.90 759.10 L 376.60 749.60 L 374.80 749.70 L 357.40 759.70 Z M 308.00 763.60 L 308.00 764.60 L 324.20 774.00 L 326.00 774.00 L 343.50 763.90 L 343.40 762.90 L 327.20 753.50 L 325.50 753.50 L 308.00 763.60 Z M 390.00 765.40 L 390.00 766.40 L 406.20 775.80 L 408.00 775.80 L 425.50 765.80 L 425.50 764.70 L 409.30 755.30 L 407.50 755.30 L 390.00 765.40 Z M 334.50 772.80 L 334.50 773.90 L 350.70 783.30 L 352.50 783.20 L 369.90 773.20 L 369.90 772.20 L 353.70 762.80 L 352.00 762.80 L 334.50 772.80 Z M 367.10 778.60 L 367.10 779.60 L 383.30 789.00 L 385.10 789.00 L 402.60 779.00 L 402.50 778.00 L 386.30 768.60 L 384.60 768.50 L 367.10 778.60 Z M 300.50 792.40 L 300.40 793.50 L 316.70 802.90 L 318.40 802.80 L 347.20 786.30 L 347.30 785.30 L 331.00 775.80 L 329.30 775.90 L 300.50 792.40 Z M 321.70 804.70 L 321.70 805.80 L 337.90 815.20 L 339.70 815.20 L 379.40 792.30 L 379.40 791.20 L 363.20 781.80 L 361.40 781.80 L 321.70 804.70 Z M 238.90 757.00 L 239.00 758.00 L 250.50 764.60 L 252.20 764.70 L 266.60 756.40 L 266.60 755.40 L 255.10 748.70 L 253.30 748.70 L 238.90 757.00 Z M 257.90 768.00 L 257.90 768.90 L 274.10 778.30 L 275.80 778.40 L 287.80 771.50 L 287.80 770.40 L 271.60 761.00 L 269.90 761.10 L 257.90 768.00 Z M 411.30 777.70 L 411.30 778.70 L 427.50 788.10 L 429.20 788.10 L 446.70 778.00 L 446.80 777.00 L 430.60 767.70 L 428.70 767.70 L 411.30 777.70 Z M 388.40 790.90 L 388.40 791.90 L 404.60 801.30 L 406.30 801.30 L 423.80 791.20 L 423.80 790.30 L 407.60 780.90 L 405.80 780.80 L 388.40 790.90 Z M 435.90 739.00 L 435.90 740.00 L 452.10 749.40 L 454.00 749.40 L 471.40 739.40 L 471.30 738.40 L 455.10 729.00 L 453.40 728.90 L 435.90 739.00 Z M 433.30 765.00 L 433.30 766.10 L 449.50 775.50 L 451.20 775.40 L 561.40 712.00 L 561.50 711.00 L 545.30 701.60 L 543.50 701.60 L 433.30 765.00 Z M 655.90 636.90 L 656.00 637.90 L 672.20 647.30 L 673.90 647.30 L 686.90 639.80 L 686.90 638.80 L 670.70 629.40 L 669.00 629.40 L 655.90 636.90 Z M 634.70 624.60 L 634.80 625.60 L 651.00 635.00 L 652.70 635.00 L 665.70 627.50 L 665.70 626.50 L 649.50 617.10 L 647.70 617.10 L 634.70 624.60 Z M 394.90 667.30 L 394.90 668.30 L 406.30 674.90 L 408.20 674.90 L 422.50 666.70 L 422.40 665.70 L 411.00 659.10 L 409.20 659.00 L 394.90 667.30 Z" fill="#bac1ce" fill-rule="nonzero" group-id="1,22" node-id="480" stroke="none" target-height="258.40002" target-width="448.00003" target-x="238.9" target-y="569.3"></path><path d="M 205.60 740.40 L 128.30 695.50 L 128.10 684.00 L 205.30 728.80 L 205.60 740.40 Z" fill="#416e84" fill-rule="nonzero" group-id="1,23" node-id="485" stroke="none" target-height="56.400024" target-width="77.5" target-x="128.1" target-y="684"></path><path d="M 205.30 728.80 L 128.10 683.90 L 324.70 570.40 L 401.90 615.30 L 205.30 728.80 Z" fill="#4c7891" fill-rule="nonzero" group-id="1,24" node-id="490" stroke="none" target-height="158.39996" target-width="273.8" target-x="128.1" target-y="570.4"></path><path d="M 401.90 615.30 L 402.20 626.90 L 205.60 740.40 L 205.30 728.80 L 401.90 615.30 Z" fill="#37617b" fill-rule="nonzero" group-id="1,25" node-id="495" stroke="none" target-height="125.10004" target-width="196.90001" target-x="205.3" target-y="615.3"></path><path d="M 227.80 678.90 L 197.90 661.50 L 197.60 571.70 L 227.50 589.10 L 227.80 678.90 Z" fill="#bac1ce" fill-rule="nonzero" group-id="1,26" node-id="500" stroke="none" target-height="107.20001" target-width="30.199997" target-x="197.6" target-y="571.7"></path><path d="M 226.50 588.00 L 195.20 569.80 L 273.60 524.50 L 304.90 542.70 L 226.50 588.00 Z" fill="#4e5161" fill-rule="nonzero" group-id="1,27" node-id="505" stroke="none" target-height="63.5" target-width="109.7" target-x="195.2" target-y="524.5"></path><path d="M 302.40 545.80 L 302.70 635.70 L 227.80 678.90 L 227.50 589.10 L 302.40 545.80 Z" fill="#cad0dd" fill-rule="nonzero" group-id="1,28" node-id="510" stroke="none" target-height="133.10004" target-width="75.20001" target-x="227.5" target-y="545.8"></path><path d="M 155.60 627.70 L 290.30 549.40 L 314.40 565.30 L 179.70 643.50 L 155.60 627.70 Z" fill="#eaf0f6" fill-rule="nonzero" group-id="1,29" node-id="515" stroke="none" target-height="94.099976" target-width="158.79999" target-x="155.6" target-y="549.4"></path><path d="M 455.10 139.20 L 452.90 138.40 L 450.30 137.90 L 447.50 137.90 L 444.40 138.40 L 441.30 139.40 L 438.10 141.10 L 61.80 358.30 L 55.80 362.70 L 50.20 368.60 L 45.50 375.40 L 41.90 382.90 L 39.60 390.60 L 38.80 398.00 L 39.60 698.60 L 39.90 702.20 L 40.50 705.20 L 41.50 707.80 L 42.80 710.10 L 44.50 711.90 L 46.30 713.30 L 18.80 697.50 L 16.80 696.00 L 15.20 694.10 L 13.80 691.70 L 12.90 689.10 L 12.30 686.10 L 12.00 682.50 L 11.20 381.90 L 12.00 374.50 L 14.40 366.80 L 18.00 359.40 L 22.60 352.50 L 28.10 346.60 L 34.10 342.10 L 410.90 124.70 L 414.20 123.10 L 417.20 122.10 L 419.90 121.60 L 422.70 121.60 L 425.10 122.10 L 427.20 123.10 L 455.10 139.20 Z" fill="#416e84" fill-rule="nonzero" group-id="1,30" node-id="520" stroke="none" target-height="591.7" target-width="443.9" target-x="11.2" target-y="121.6"></path><path d="M 462.00 428.30 L 39.60 672.40 L 38.80 398.00 L 39.60 390.60 L 40.60 386.70 L 43.60 379.20 L 45.50 375.50 L 47.80 371.90 L 52.90 365.60 L 55.80 362.70 L 61.80 358.30 L 438.60 140.80 L 442.00 139.20 L 445.00 138.20 L 447.70 137.70 L 450.30 137.70 L 452.80 138.20 L 454.90 139.10 L 456.90 140.50 L 458.50 142.40 L 459.80 144.50 L 460.80 147.10 L 461.50 150.20 L 461.70 153.90 L 462.00 428.30 Z" fill="#4c7891" fill-rule="nonzero" group-id="1,31" node-id="525" stroke="none" target-height="534.7" target-width="423.2" target-x="38.8" target-y="137.7"></path><path d="M 446.80 415.70 L 54.60 642.30 L 53.80 398.00 L 54.10 394.50 L 55.10 390.70 L 56.60 386.80 L 58.60 383.00 L 61.00 379.40 L 63.60 376.10 L 66.60 373.30 L 69.50 371.30 L 446.50 153.70 L 446.80 415.70 Z" fill="#ffffff" fill-rule="nonzero" group-id="1,32" node-id="530" stroke="none" target-height="488.59998" target-width="393" target-x="53.8" target-y="153.7"></path><path d="M 462.00 428.30 L 461.80 458.10 L 461.20 461.90 L 458.90 469.60 L 455.30 477.10 L 450.70 483.90 L 445.10 489.80 L 439.10 494.20 L 62.80 711.50 L 59.40 713.10 L 56.40 714.20 L 53.60 714.60 L 51.10 714.60 L 48.60 714.10 L 46.40 713.20 L 44.50 711.80 L 42.80 709.90 L 41.50 707.80 L 40.50 705.20 L 39.90 702.10 L 39.60 698.30 L 39.50 672.20 L 462.00 428.30 Z" fill="#e4e8f4" fill-rule="nonzero" group-id="1,33" node-id="535" stroke="none" target-height="286.3" target-width="422.5" target-x="39.5" target-y="428.3"></path><path d="M 259.90 569.90 L 259.60 573.10 L 258.60 576.40 L 257.00 579.60 L 255.00 582.50 L 252.60 585.00 L 250.00 586.90 L 246.50 588.20 L 243.70 587.90 L 241.50 586.30 L 240.40 583.40 L 240.20 581.30 L 240.50 578.10 L 241.50 574.80 L 243.00 571.50 L 245.00 568.60 L 247.40 566.00 L 250.00 564.10 L 253.60 562.90 L 256.40 563.20 L 257.60 563.90 L 259.30 566.20 L 259.90 569.90 Z" fill="#bac1ce" fill-rule="nonzero" group-id="1,34" node-id="540" stroke="none" target-height="25.299988" target-width="19.699997" target-x="240.2" target-y="562.9"></path><path d="M 235.10 403.40 L 235.40 403.60 Z M 349.90 377.00 L 350.30 377.30 L 349.90 377.30 L 349.90 377.00 Z" fill="#5b5e71" fill-rule="nonzero" group-id="1,35" node-id="545" stroke="none" target-height="26.600006" target-width="115.19998" target-x="235.1" target-y="377"></path><path d="M 423.70 419.70 L 411.80 426.60 L 384.60 410.90 L 316.80 450.00 L 316.80 481.40 L 290.30 496.90 L 238.00 466.80 L 216.80 454.40 L 234.20 444.20 L 251.40 454.00 L 319.10 414.90 L 319.10 395.20 L 350.30 377.30 L 423.70 419.70 Z M 441.10 521.20 L 440.20 520.60 Z M 319.10 388.30 L 319.10 373.50 L 281.50 351.90 L 213.90 391.10 L 213.70 432.50 L 228.10 440.80 L 211.00 450.70 L 211.20 450.90 L 211.00 451.10 L 146.80 414.10 L 280.20 337.10 L 344.20 373.90 L 319.10 388.30 Z M 339.10 463.00 L 338.00 462.30 Z M 508.80 468.90 L 497.30 475.30 L 524.30 490.80 L 524.10 532.00 L 456.50 571.40 L 418.90 549.60 L 418.90 520.70 L 375.40 545.80 L 449.00 588.10 L 582.20 511.10 L 508.80 468.90 Z M 429.60 423.10 L 417.60 430.00 L 422.00 432.50 L 422.00 473.70 L 354.30 513.00 L 316.80 491.50 L 316.80 488.10 L 295.90 500.00 L 369.50 542.50 L 418.90 513.80 L 419.10 508.40 L 486.70 469.10 L 491.50 472.00 L 503.00 465.30 L 429.60 423.10 Z M 610.60 527.40 L 583.80 512.00 L 588.00 514.40 L 454.60 591.40 L 480.20 606.40 L 485.90 611.70 L 488.80 615.40 L 491.30 619.50 L 494.60 627.30 L 496.70 635.90 L 496.60 640.50 L 496.10 643.00 L 495.20 645.10 L 492.20 648.80 L 625.70 571.00 L 627.10 569.50 L 628.20 567.60 L 629.40 563.00 L 629.50 557.00 L 628.20 550.80 L 626.50 546.10 L 624.10 541.50 L 621.30 537.20 L 618.10 533.40 L 615.70 531.00 L 610.60 527.40 Z" fill="#5b5e71" fill-rule="nonzero" group-id="1,36" node-id="550" stroke="none" target-height="311.69998" target-width="482.7" target-x="146.8" target-y="337.1"></path><path d="M 496.70 637.40 L 496.50 640.60 L 496.00 643.00 L 495.20 645.00 L 493.10 647.90 L 491.30 649.40 L 489.10 650.40 L 486.60 650.80 L 484.00 650.60 L 481.10 649.80 L 477.90 648.30 L 142.00 455.30 L 141.80 442.30 L 483.30 638.70 L 485.40 639.50 L 485.60 638.80 L 485.40 635.90 L 483.70 629.50 L 482.10 625.70 L 480.00 622.20 L 477.70 619.10 L 475.00 616.40 L 472.20 614.40 L 141.80 424.30 L 141.80 417.00 L 146.60 414.30 L 214.30 453.00 L 477.90 604.80 L 481.00 606.90 L 484.70 610.40 L 489.30 616.20 L 494.00 625.40 L 495.00 628.20 L 496.30 634.20 L 496.70 637.40 Z" fill="#474b59" fill-rule="nonzero" group-id="1,37" node-id="555" stroke="none" target-height="236.5" target-width="354.90002" target-x="141.8" target-y="414.3"></path><path d="M 491.50 620.20 L 494.00 625.40 L 495.70 630.90 L 494.60 627.20 L 491.50 620.20 Z M 482.50 608.40 L 477.90 604.90 L 481.00 607.00 L 483.90 609.60 L 486.70 612.60 L 482.50 608.40 Z" fill="#474b59" fill-rule="nonzero" group-id="1,38" node-id="560" stroke="none" target-height="26" target-width="17.800018" target-x="477.9" target-y="604.9"></path><path d="M 484.80 633.50 L 483.70 629.50 L 482.10 625.70 L 480.00 622.20 L 477.70 619.10 L 475.00 616.40 L 472.20 614.40 L 141.80 424.30 L 141.80 442.30 L 483.30 638.70 L 485.40 639.50 L 485.60 637.40 L 484.80 633.50 Z M 201.40 472.20 L 199.90 471.20 L 198.80 469.70 L 198.10 467.90 L 197.80 466.10 L 198.30 464.30 L 199.60 463.60 L 200.40 463.70 L 202.70 465.10 L 203.80 466.60 L 204.50 468.40 L 204.70 470.30 L 204.40 471.70 L 203.70 472.50 L 202.70 472.70 L 201.40 472.20 Z M 251.10 501.10 L 248.70 498.40 L 247.90 496.60 L 247.60 495.00 L 248.10 493.10 L 249.30 492.40 L 250.10 492.50 L 252.60 494.00 L 253.70 495.50 L 254.40 497.20 L 254.70 499.00 L 254.60 500.10 L 253.70 501.30 L 252.20 501.50 L 251.10 501.10 Z M 301.10 529.70 L 299.80 528.70 L 298.60 527.20 L 297.90 525.50 L 297.60 523.90 L 298.10 521.90 L 299.30 521.20 L 301.10 521.80 L 302.50 522.80 L 303.60 524.30 L 304.40 526.10 L 304.70 527.80 L 304.50 529.00 L 304.20 529.70 L 302.90 530.30 L 301.10 529.70 Z M 351.10 558.60 L 349.70 557.50 L 348.50 556.00 L 347.60 554.30 L 347.40 552.50 L 347.90 550.70 L 349.20 550.00 L 350.00 550.10 L 351.10 550.40 L 352.40 551.60 L 353.60 553.20 L 354.40 555.00 L 354.70 556.70 L 354.30 558.10 L 353.50 558.80 L 352.50 559.00 L 351.10 558.60 Z M 400.90 587.50 L 399.60 586.30 L 398.40 584.70 L 397.60 583.00 L 397.30 581.40 L 397.90 579.60 L 399.10 578.90 L 400.90 579.30 L 402.20 580.30 L 403.40 581.90 L 404.20 583.70 L 404.50 585.60 L 403.90 587.30 L 403.40 587.70 L 402.30 587.90 L 400.90 587.50 Z M 450.90 616.30 L 449.40 615.10 L 448.20 613.60 L 447.50 611.90 L 447.30 610.30 L 447.80 608.30 L 449.00 607.60 L 449.80 607.70 L 452.30 609.30 L 453.40 610.80 L 454.10 612.40 L 454.40 614.20 L 454.30 615.30 L 453.40 616.50 L 451.90 616.70 L 450.90 616.30 Z" fill="#d4dae8" fill-rule="nonzero" group-id="1,39" node-id="565" stroke="none" target-height="215.20001" target-width="343.8" target-x="141.8" target-y="424.3"></path><path d="M 201.30 472.20 L 203.10 472.70 L 204.30 472.00 L 204.80 470.20 L 204.50 468.40 L 203.80 466.70 L 202.70 465.20 L 201.30 464.10 L 199.50 463.60 L 198.30 464.30 L 197.90 465.00 L 197.70 466.20 L 198.00 467.80 L 198.80 469.60 L 199.90 471.10 L 201.30 472.20 Z M 254.80 499.10 L 254.50 497.20 L 253.70 495.50 L 252.60 494.10 L 251.20 492.90 L 250.20 492.50 L 248.70 492.60 L 247.80 493.80 L 247.60 495.00 L 247.90 496.60 L 248.70 498.40 L 249.80 499.90 L 251.20 501.00 L 252.20 501.40 L 253.70 501.30 L 254.60 500.10 L 254.80 499.10 Z M 304.70 527.90 L 304.40 526.10 L 303.70 524.40 L 302.60 522.90 L 301.20 521.70 L 299.30 521.20 L 298.10 521.90 L 297.50 523.80 L 297.80 525.50 L 298.60 527.20 L 299.70 528.70 L 301.10 529.80 L 302.90 530.30 L 304.20 529.70 L 304.70 527.90 Z M 354.60 556.70 L 354.30 554.90 L 353.60 553.20 L 352.50 551.70 L 351.10 550.50 L 349.20 550.00 L 348.00 550.70 L 347.60 551.40 L 347.40 552.60 L 347.70 554.30 L 348.50 556.00 L 349.60 557.50 L 351.00 558.60 L 352.00 559.10 L 353.50 558.90 L 354.40 557.80 L 354.60 556.70 Z M 404.50 585.50 L 404.20 583.70 L 403.50 582.00 L 402.40 580.50 L 401.00 579.30 L 399.10 578.80 L 397.90 579.50 L 397.50 580.30 L 397.30 581.40 L 397.60 583.10 L 398.40 584.80 L 399.50 586.40 L 400.90 587.50 L 401.90 587.90 L 403.40 587.70 L 404.30 586.60 L 404.50 585.50 Z M 454.40 614.30 L 454.10 612.50 L 453.30 610.80 L 452.30 609.30 L 450.80 608.10 L 449.00 607.60 L 447.80 608.30 L 447.40 609.10 L 447.50 611.90 L 448.30 613.60 L 449.40 615.20 L 450.80 616.30 L 451.80 616.70 L 453.30 616.50 L 454.20 615.40 L 454.40 614.30 Z" fill="#5b5e71" fill-rule="nonzero" group-id="1,40" node-id="570" stroke="none" target-height="153.1" target-width="256.7" target-x="197.7" target-y="463.6"></path><path d="M 429.50 423.10 L 423.70 419.80 Z M 316.70 481.50 L 290.20 496.80 L 296.00 500.10 L 316.70 488.10 L 316.70 481.50 Z" fill="#525566" fill-rule="nonzero" group-id="1,41,175" node-id="577" stroke="none" target-height="80.30002" target-width="139.29999" target-x="290.2" target-y="419.8"></path><path d="M 417.60 429.90 L 429.40 423.10 L 423.60 419.80 L 411.80 426.60 L 417.60 429.90 Z M 296.00 500.10 L 295.70 499.90 Z M 350.30 377.00 L 349.90 377.00 L 344.40 373.70 L 350.30 377.00 Z" fill="#525566" fill-rule="nonzero" group-id="1,41,176" node-id="582" stroke="none" target-height="126.399994" target-width="133.69998" target-x="295.7" target-y="373.7"></path><path d="M 319.10 388.80 L 344.40 374.10 L 349.90 377.30 L 344.20 373.90 L 319.10 388.30 L 319.10 388.80 Z M 211.00 450.70 L 211.30 450.90 L 228.50 440.90 L 228.20 440.70 L 211.00 450.70 Z M 582.20 511.10 L 583.80 512.00 L 582.20 511.10 Z M 448.90 588.10 L 454.60 591.40 L 588.00 514.40 L 582.20 511.10 L 448.90 588.10 Z" fill="#525566" fill-rule="nonzero" group-id="1,41,177" node-id="587" stroke="none" target-height="217.50003" target-width="377" target-x="211" target-y="373.9"></path><path d="M 448.90 588.10 L 454.60 591.40 Z M 375.40 545.80 L 375.40 545.80 Z" fill="#525566" fill-rule="nonzero" group-id="1,41,178" node-id="592" stroke="none" target-height="45.600037" target-width="79.20001" target-x="375.4" target-y="545.8"></path><path d="M 375.40 545.80 L 419.00 520.60 L 419.00 513.80 L 369.50 542.40 L 375.40 545.80 Z M 508.70 468.80 L 503.00 465.40 L 491.60 472.00 L 497.40 475.30 L 508.70 468.80 Z M 375.30 545.80 L 372.30 544.00 Z M 214.30 453.00 L 211.00 451.10 Z" fill="#525566" fill-rule="nonzero" group-id="1,41,179" node-id="597" stroke="none" target-height="94.69998" target-width="297.7" target-x="211" target-y="451.1"></path><path d="M 216.70 454.40 L 234.30 444.30 L 234.00 444.10 L 216.70 454.00 L 211.30 450.90 L 211.00 451.00 L 216.70 454.40 Z M 319.10 395.30 L 350.20 377.40 L 349.90 377.20 L 319.10 394.90 L 319.10 395.30 Z M 349.90 377.20 L 344.50 374.00 L 319.10 388.70 L 319.10 394.90 L 349.90 377.20 Z" fill="#525566" fill-rule="nonzero" group-id="1,41,180" node-id="602" stroke="none" target-height="80.399994" target-width="139.20001" target-x="211" target-y="374"></path><path d="M 234.00 444.10 L 228.50 440.90 L 211.30 450.90 L 216.70 454.00 L 234.00 444.10 Z" fill="#525566" fill-rule="nonzero" group-id="1,41,181" node-id="607" stroke="none" target-height="13.100006" target-width="22.699997" target-x="211.3" target-y="440.9"></path><path d="M 251.40 434.40 L 251.40 454.00 L 319.10 414.90 L 319.10 395.20 L 251.40 434.40 Z M 263.70 433.70 L 264.90 436.20 L 264.10 436.70 L 264.10 441.50 L 263.30 442.10 L 263.30 437.30 L 262.40 437.70 L 263.70 433.70 Z M 259.90 435.80 L 261.20 438.30 L 260.30 438.70 L 260.30 443.80 L 259.30 444.20 L 259.30 439.40 L 258.50 439.80 L 259.90 435.80 Z M 265.20 442.50 L 258.50 446.30 L 258.50 445.20 L 265.20 441.50 L 265.20 442.50 Z M 272.30 432.30 L 271.80 433.90 L 270.80 435.20 L 270.80 438.30 L 271.60 438.20 L 271.80 438.50 L 269.10 440.00 L 270.20 438.70 L 270.20 435.60 L 269.30 435.60 L 268.70 434.30 L 268.70 430.80 L 272.30 428.70 L 272.30 432.30 Z M 319.20 373.60 L 319.20 373.60 Z M 251.50 427.30 L 257.30 424.00 L 257.30 415.80 L 269.60 408.60 L 269.60 416.90 L 319.10 388.30 L 319.20 373.60 L 251.50 412.90 L 251.50 427.30 Z" fill="#efac41" fill-rule="nonzero" group-id="1,42" node-id="613" stroke="none" target-height="80.399994" target-width="67.80002" target-x="251.4" target-y="373.6"></path><path d="M 257.30 424.00 L 251.50 427.30 L 251.50 427.70 L 257.30 424.30 L 257.30 424.00 Z M 269.60 417.20 L 319.10 388.70 L 319.10 388.30 L 269.60 416.90 L 269.60 417.20 Z M 251.40 434.00 L 251.40 434.30 L 319.10 395.30 L 319.10 394.90 L 251.40 434.00 Z" fill="#efac41" fill-rule="nonzero" group-id="1,43" node-id="618" stroke="none" target-height="46" target-width="67.70001" target-x="251.4" target-y="388.3"></path><path d="M 269.60 422.20 L 257.30 429.30 L 257.30 424.30 L 251.50 427.70 L 251.40 434.00 L 319.10 394.90 L 319.10 388.70 L 269.60 417.20 L 269.60 422.20 Z" fill="#efac41" fill-rule="nonzero" group-id="1,44" node-id="623" stroke="none" target-height="45.299988" target-width="67.70001" target-x="251.4" target-y="388.7"></path><path d="M 269.60 408.60 L 257.30 415.80 L 257.30 424.00 L 269.60 416.90 L 269.60 408.60 Z" fill="#e4e8f4" fill-rule="nonzero" group-id="1,45" node-id="628" stroke="none" target-height="15.399994" target-width="12.300018" target-x="257.3" target-y="408.6"></path><path d="M 269.60 417.20 L 269.60 416.90 L 257.30 423.90 L 257.30 424.30 L 269.60 417.20 Z" fill="#e4e8f4" fill-rule="nonzero" group-id="1,46" node-id="633" stroke="none" target-height="7.399994" target-width="12.300018" target-x="257.3" target-y="416.9"></path><path d="M 257.30 429.30 L 269.60 422.20 L 269.60 417.20 L 257.30 424.30 L 257.30 429.30 Z" fill="#e4e8f4" fill-rule="nonzero" group-id="1,47" node-id="638" stroke="none" target-height="12.099976" target-width="12.300018" target-x="257.3" target-y="417.2"></path><path d="M 251.50 412.90 L 235.10 403.40 L 235.00 419.00 L 230.20 416.20 L 230.30 400.70 L 213.90 391.20 L 213.80 432.40 L 228.20 440.70 L 251.50 427.30 L 251.50 412.90 Z M 213.90 391.10 L 213.90 391.20 Z M 234.20 444.20 L 251.40 454.00 L 251.40 434.40 L 234.20 444.20 Z" fill="#f9bb4a" fill-rule="nonzero" group-id="1,48" node-id="643" stroke="none" target-height="62.899994" target-width="37.699997" target-x="213.8" target-y="391.1"></path><path d="M 251.50 427.70 L 251.50 427.30 L 228.20 440.70 L 228.50 440.90 L 251.50 427.70 Z M 251.40 434.00 L 234.00 444.10 L 234.30 444.30 L 251.40 434.30 L 251.40 434.00 Z" fill="#f9bb4a" fill-rule="nonzero" group-id="1,49" node-id="648" stroke="none" target-height="17" target-width="23.300003" target-x="228.2" target-y="427.3"></path><path d="M 251.50 427.70 L 228.50 440.90 L 234.00 444.10 L 251.50 434.00 L 251.50 427.70 Z" fill="#f9bb4a" fill-rule="nonzero" group-id="1,50" node-id="653" stroke="none" target-height="16.399994" target-width="23" target-x="228.5" target-y="427.7"></path><path d="M 298.00 361.30 L 281.60 351.90 L 213.90 391.20 L 230.30 400.60 L 298.00 361.30 Z M 235.40 403.60 L 251.50 412.90 L 319.10 373.60 L 302.70 364.10 L 235.10 403.40 L 235.40 403.60 Z M 213.90 391.20 L 213.90 391.20 Z M 319.20 373.60 L 319.20 373.60 Z" fill="#fed57a" fill-rule="nonzero" group-id="1,51" node-id="658" stroke="none" target-height="61" target-width="105.30002" target-x="213.9" target-y="351.9"></path><path d="M 251.50 412.90 L 319.20 373.60 L 251.50 412.90 Z M 230.30 400.60 L 213.90 391.20 L 230.30 400.60 Z" fill="#fed57a" fill-rule="nonzero" group-id="1,52" node-id="663" stroke="none" target-height="39.299988" target-width="105.30002" target-x="213.9" target-y="373.6"></path><path d="M 235.40 403.60 L 251.50 412.90 Z" fill="#fed57a" fill-rule="nonzero" group-id="1,53" node-id="668" stroke="none" target-height="9.299988" target-width="16.100006" target-x="235.4" target-y="403.6"></path><path d="M 235.00 403.30 L 302.70 364.10 L 298.00 361.30 L 230.30 400.60 L 235.00 403.30 Z" fill="#efac41" fill-rule="nonzero" group-id="1,54" node-id="673" stroke="none" target-height="42" target-width="72.40001" target-x="230.3" target-y="361.3"></path><path d="M 235.00 403.30 L 230.30 400.60 Z M 235.00 403.30 L 235.10 403.40 Z" fill="#efac41" fill-rule="nonzero" group-id="1,55" node-id="678" stroke="none" target-height="2.7999878" target-width="4.800003" target-x="230.3" target-y="400.6"></path><path d="M 230.30 400.70 L 230.20 416.20 L 235.00 419.00 L 235.10 403.40 L 230.30 400.70 Z" fill="#efac41" fill-rule="nonzero" group-id="1,56" node-id="683" stroke="none" target-height="18.299988" target-width="4.900009" target-x="230.2" target-y="400.7"></path><path d="M 235.10 403.40 L 235.00 403.30 Z" fill="#efac41" fill-rule="nonzero" group-id="1,57" node-id="688" stroke="none" target-height="0.1000061" target-width="0.1000061" target-x="235" target-y="403.3"></path><path d="M 235.00 403.30 L 230.30 400.70 Z" fill="#efac41" fill-rule="nonzero" group-id="1,58" node-id="693" stroke="none" target-height="2.5999756" target-width="4.699997" target-x="230.3" target-y="400.7"></path><path d="M 261.10 438.40 L 259.80 435.90 L 258.60 439.90 L 261.10 438.40 Z" fill="#3f434f" fill-rule="nonzero" group-id="1,59" node-id="698" stroke="none" target-height="4" target-width="2.5" target-x="258.6" target-y="435.9"></path><path d="M 259.40 444.30 L 260.30 443.70 L 260.30 438.80 L 259.40 439.40 L 259.40 444.30 Z M 258.50 446.30 L 265.10 442.40 L 265.10 441.40 L 258.50 445.30 L 258.50 446.30 Z M 269.30 435.50 L 270.20 435.60 L 270.20 438.70 L 269.20 440.00 L 271.80 438.50 L 271.60 438.20 L 270.80 438.40 L 270.80 435.20 L 272.00 433.40 L 272.20 428.80 L 268.70 430.80 L 268.80 434.30 L 269.30 435.50 Z M 263.20 442.00 L 264.20 441.50 L 264.20 436.60 L 263.20 437.20 L 263.20 442.00 Z" fill="#3f434f" fill-rule="nonzero" group-id="1,60" node-id="703" stroke="none" target-height="17.5" target-width="13.700012" target-x="258.5" target-y="428.8"></path><path d="M 265.00 436.10 L 263.70 433.70 L 262.40 437.60 L 265.00 436.10 Z" fill="#3f434f" fill-rule="nonzero" group-id="1,61" node-id="708" stroke="none" target-height="3.899994" target-width="2.600006" target-x="262.4" target-y="433.7"></path><path d="M 422.10 432.50 L 422.10 432.50 Z M 354.50 471.80 L 354.30 513.00 L 422.00 473.70 L 422.00 432.50 L 354.50 471.80 Z M 360.30 474.70 L 372.70 467.60 L 372.50 481.20 L 360.30 488.30 L 360.30 474.70 Z M 365.30 496.70 L 366.60 492.70 L 367.90 495.00 L 367.20 495.60 L 367.20 500.40 L 366.20 501.10 L 366.20 496.30 L 365.30 496.70 Z M 364.10 497.30 L 363.30 497.70 L 363.30 502.80 L 362.40 503.20 L 362.20 498.40 L 361.60 498.80 L 362.80 494.80 L 364.10 497.30 Z M 368.10 501.30 L 361.40 505.30 L 361.40 504.20 L 368.10 500.50 L 368.10 501.30 Z M 375.20 491.20 L 374.80 492.90 L 373.70 494.20 L 373.70 497.30 L 374.50 497.20 L 374.80 497.50 L 372.20 499.00 L 373.10 497.70 L 373.10 494.60 L 371.80 493.90 L 371.60 493.10 L 371.60 489.80 L 375.20 487.70 L 375.20 491.20 Z" fill="#efac41" fill-rule="nonzero" group-id="1,62" node-id="713" stroke="none" target-height="80.5" target-width="67.80002" target-x="354.3" target-y="432.5"></path><path d="M 372.60 467.60 L 360.30 474.70 L 360.20 488.30 L 372.50 481.20 L 372.60 467.60 Z" fill="#e4e8f4" fill-rule="nonzero" group-id="1,63" node-id="718" stroke="none" target-height="20.699982" target-width="12.399994" target-x="360.2" target-y="467.6"></path><path d="M 333.20 459.60 L 316.80 450.10 L 316.70 481.50 L 333.20 472.00 L 333.20 459.60 Z M 316.80 450.10 L 316.80 450.10 L 316.80 450.10 Z M 338.00 469.20 L 344.00 465.80 L 338.00 462.30 L 338.00 469.20 Z M 349.70 469.10 L 338.00 475.90 L 338.00 477.90 L 336.20 476.90 L 316.70 488.10 L 316.70 491.40 L 354.30 513.10 L 354.50 471.80 L 349.70 469.10 Z" fill="#f9bb4a" fill-rule="nonzero" group-id="1,64" node-id="723" stroke="none" target-height="62.99997" target-width="37.799988" target-x="316.7" target-y="450.1"></path><path d="M 338.00 469.20 L 338.00 475.90 L 349.70 469.10 L 344.00 465.80 L 338.00 469.20 Z M 336.20 476.90 L 333.20 475.20 L 333.20 472.00 L 316.70 481.50 L 316.70 488.10 L 336.20 476.90 Z" fill="#f9bb4a" fill-rule="nonzero" group-id="1,65" node-id="728" stroke="none" target-height="22.300018" target-width="33" target-x="316.7" target-y="465.8"></path><path d="M 422.10 432.50 L 422.10 432.50 Z M 339.10 463.00 L 344.00 465.80 L 411.80 426.60 L 405.70 423.00 L 338.00 462.30 L 339.10 463.00 Z M 400.90 420.30 L 384.50 410.80 L 316.90 450.10 L 333.20 459.60 L 400.90 420.30 Z M 316.80 450.10 L 316.80 450.10 Z M 354.50 471.80 L 422.10 432.50 L 417.60 429.90 L 349.70 469.10 L 354.50 471.80 Z" fill="#fed57a" fill-rule="nonzero" group-id="1,66" node-id="733" stroke="none" target-height="61" target-width="105.30002" target-x="316.8" target-y="410.8"></path><path d="M 349.70 469.10 L 417.60 429.90 L 411.80 426.60 L 344.00 465.80 L 349.70 469.10 Z M 354.50 471.80 L 422.10 432.50 L 354.50 471.80 Z M 333.20 459.60 L 316.90 450.10 L 333.20 459.60 Z M 344.00 465.80 L 339.10 463.00 L 344.00 465.80 Z" fill="#fed57a" fill-rule="nonzero" group-id="1,67" node-id="738" stroke="none" target-height="45.19998" target-width="105.20001" target-x="316.9" target-y="426.6"></path><path d="M 352.10 467.70 L 352.10 473.20 Z M 346.80 464.10 L 346.80 470.80 Z" fill="#fed57a" fill-rule="nonzero" group-id="1,68" node-id="743" stroke="none" target-height="9.100006" target-width="5.3000183" target-x="346.8" target-y="464.1"></path><path d="M 337.70 462.20 L 338.00 462.30 L 405.70 423.00 L 400.90 420.30 L 333.20 459.60 L 337.70 462.20 Z" fill="#efac41" fill-rule="nonzero" group-id="1,69" node-id="748" stroke="none" target-height="42" target-width="72.5" target-x="333.2" target-y="420.3"></path><path d="M 337.70 462.20 L 333.20 459.60 Z M 338.00 462.30 L 337.90 462.20 Z" fill="#efac41" fill-rule="nonzero" group-id="1,70" node-id="753" stroke="none" target-height="2.6999817" target-width="4.799988" target-x="333.2" target-y="459.6"></path><path d="M 338.00 462.30 L 333.20 459.60 L 333.20 472.00 L 338.00 469.20 L 338.00 462.30 Z M 338.00 475.90 L 336.20 476.90 L 338.00 477.90 L 338.00 475.90 Z" fill="#efac41" fill-rule="nonzero" group-id="1,71" node-id="758" stroke="none" target-height="18.299988" target-width="4.799988" target-x="333.2" target-y="459.6"></path><path d="M 338.00 469.20 L 333.20 472.00 L 333.20 475.20 L 336.20 476.90 L 338.00 475.90 L 338.00 469.20 Z M 338.00 462.30 L 337.90 462.20 Z" fill="#efac41" fill-rule="nonzero" group-id="1,72" node-id="763" stroke="none" target-height="14.699982" target-width="4.799988" target-x="333.2" target-y="462.2"></path><path d="M 337.90 462.20 L 333.30 459.60 Z" fill="#efac41" fill-rule="nonzero" group-id="1,73" node-id="768" stroke="none" target-height="2.600006" target-width="4.600006" target-x="333.3" target-y="459.6"></path><path d="M 362.80 494.90 L 361.50 498.80 L 364.10 497.30 L 362.80 494.90 Z" fill="#3f434f" fill-rule="nonzero" group-id="1,74" node-id="773" stroke="none" target-height="3.899994" target-width="2.600006" target-x="361.5" target-y="494.9"></path><path d="M 362.30 503.20 L 363.30 502.70 L 363.30 497.80 L 362.30 498.40 L 362.30 503.20 Z M 361.40 504.20 L 361.40 505.20 L 368.10 501.40 L 368.10 500.40 L 361.40 504.20 Z M 371.70 493.20 L 372.20 494.50 L 373.20 494.50 L 373.20 497.60 L 372.20 498.90 L 374.80 497.40 L 374.50 497.20 L 373.70 497.30 L 373.70 494.20 L 375.00 492.30 L 375.20 487.70 L 371.70 489.70 L 371.70 493.20 Z M 366.20 501.00 L 367.20 500.40 L 367.10 495.60 L 366.20 496.10 L 366.20 501.00 Z M 366.60 492.60 L 365.40 496.60 L 367.90 495.10 L 366.60 492.60 Z" fill="#3f434f" fill-rule="nonzero" group-id="1,75" node-id="778" stroke="none" target-height="17.5" target-width="13.800018" target-x="361.4" target-y="487.7"></path><path d="M 524.20 490.80 L 524.20 490.80 L 524.20 490.80 Z M 456.50 530.20 L 456.50 571.40 L 524.10 532.00 L 524.30 490.80 L 456.50 530.20 Z M 462.40 533.10 L 474.70 526.00 L 474.70 539.40 L 462.40 546.70 L 462.40 533.10 Z M 465.50 560.90 L 464.50 561.50 L 464.50 556.70 L 463.60 557.10 L 464.90 553.20 L 466.20 555.70 L 465.30 556.10 L 465.50 560.90 Z M 470.10 559.60 L 463.60 563.60 L 463.40 562.60 L 470.10 558.60 L 470.10 559.60 Z M 469.30 553.80 L 469.30 558.80 L 468.20 559.20 L 468.20 554.40 L 467.60 554.80 L 468.90 550.90 L 470.10 553.40 L 469.30 553.80 Z M 477.20 549.40 L 476.60 551.60 L 475.80 552.50 L 475.80 555.70 L 476.80 555.70 L 474.30 557.10 L 475.40 555.90 L 475.40 552.70 L 474.30 552.70 L 473.90 551.50 L 473.90 548.10 L 477.20 546.10 L 477.20 549.40 Z" fill="#efac41" fill-rule="nonzero" group-id="1,76" node-id="783" stroke="none" target-height="80.60004" target-width="67.79999" target-x="456.5" target-y="490.8"></path><path d="M 474.70 525.90 L 462.40 533.00 L 462.40 546.60 L 474.70 539.50 L 474.70 525.90 Z" fill="#e4e8f4" fill-rule="nonzero" group-id="1,77" node-id="788" stroke="none" target-height="20.699951" target-width="12.300018" target-x="462.4" target-y="525.9"></path><path d="M 419.00 508.40 L 419.00 513.80 L 423.70 511.10 L 419.00 508.40 Z M 441.10 521.20 L 440.20 520.60 L 440.10 536.20 L 435.30 533.50 L 435.40 517.90 L 429.50 514.50 L 419.00 520.60 L 418.90 549.70 L 456.50 571.40 L 456.60 530.10 L 441.10 521.20 Z M 419.00 508.40 L 419.00 508.40 Z M 429.50 514.50 L 423.70 511.10 L 419.00 513.80 L 419.00 520.60 L 429.50 514.50 Z" fill="#f9bb4a" fill-rule="nonzero" group-id="1,78" node-id="793" stroke="none" target-height="63.00003" target-width="37.700012" target-x="418.9" target-y="508.4"></path><path d="M 491.60 472.00 L 486.60 469.10 L 419.00 508.40 L 423.70 511.10 L 491.60 472.00 Z M 524.20 490.80 L 524.20 490.80 Z M 419.00 508.40 L 419.00 508.40 Z M 435.40 517.90 L 503.10 478.60 L 497.40 475.30 L 429.60 514.50 L 435.40 517.90 Z M 441.10 521.20 L 456.60 530.10 L 524.20 490.80 L 507.80 481.30 L 440.20 520.60 L 441.10 521.20 Z" fill="#fed57a" fill-rule="nonzero" group-id="1,79" node-id="798" stroke="none" target-height="60.99997" target-width="105.20001" target-x="419" target-y="469.1"></path><path d="M 429.60 514.50 L 497.40 475.30 L 491.60 472.00 L 423.70 511.10 L 429.60 514.50 Z M 456.60 530.10 L 524.20 490.80 L 456.60 530.10 Z M 435.40 517.90 L 429.60 514.50 L 435.40 517.90 Z" fill="#fed57a" fill-rule="nonzero" group-id="1,80" node-id="803" stroke="none" target-height="58.099976" target-width="100.5" target-x="423.7" target-y="472"></path><path d="M 423.70 511.10 L 419.00 508.40 L 423.70 511.10 Z M 456.60 530.10 L 441.10 521.20 L 456.60 530.10 Z" fill="#fed57a" fill-rule="nonzero" group-id="1,81" node-id="808" stroke="none" target-height="21.699982" target-width="37.600006" target-x="419" target-y="508.4"></path><path d="M 423.70 511.10 L 429.60 514.50 Z" fill="#fed57a" fill-rule="nonzero" group-id="1,82" node-id="813" stroke="none" target-height="3.399994" target-width="5.899994" target-x="423.7" target-y="511.1"></path><path d="M 439.90 520.50 L 440.20 520.60 L 507.80 481.30 L 503.10 478.60 L 435.40 517.90 L 439.90 520.50 Z" fill="#efac41" fill-rule="nonzero" group-id="1,83" node-id="818" stroke="none" target-height="41.99997" target-width="72.399994" target-x="435.4" target-y="478.6"></path><path d="M 435.40 517.90 L 435.30 517.90 Z M 440.20 520.60 L 440.00 520.50 Z" fill="#efac41" fill-rule="nonzero" group-id="1,84" node-id="823" stroke="none" target-height="2.6999512" target-width="4.9000244" target-x="435.3" target-y="517.9"></path><path d="M 435.40 517.90 L 435.30 533.50 L 440.10 536.20 L 440.20 520.60 L 435.40 517.90 Z" fill="#efac41" fill-rule="nonzero" group-id="1,85" node-id="828" stroke="none" target-height="18.299988" target-width="4.9000244" target-x="435.3" target-y="517.9"></path><path d="M 440.20 520.60 L 440.00 520.60 Z" fill="#efac41" fill-rule="nonzero" group-id="1,86" node-id="833" stroke="none" target-height="0" target-width="0.2000122" target-x="440" target-y="520.6"></path><path d="M 435.40 517.90 L 440.00 520.60 L 435.40 517.90 Z" fill="#efac41" fill-rule="nonzero" group-id="1,87" node-id="838" stroke="none" target-height="2.6999512" target-width="4.600006" target-x="435.4" target-y="517.9"></path><path d="M 464.90 553.20 L 463.60 557.10 L 466.20 555.60 L 464.90 553.20 Z" fill="#3f434f" fill-rule="nonzero" group-id="1,88" node-id="843" stroke="none" target-height="3.8999634" target-width="2.600006" target-x="463.6" target-y="553.2"></path><path d="M 464.50 561.50 L 465.40 561.00 L 465.40 556.10 L 464.40 556.70 L 464.50 561.50 Z M 463.50 562.50 L 463.50 563.50 L 470.20 559.70 L 470.20 558.60 L 463.50 562.50 Z M 473.80 551.50 L 474.30 552.80 L 475.30 552.80 L 475.30 555.90 L 474.30 557.20 L 476.90 555.70 L 476.70 555.50 L 475.90 555.60 L 475.90 552.50 L 476.60 551.60 L 477.30 549.50 L 477.30 546.00 L 473.80 548.00 L 473.80 551.50 Z M 468.30 559.30 L 469.30 558.70 L 469.30 553.90 L 468.30 554.40 L 468.30 559.30 Z" fill="#3f434f" fill-rule="nonzero" group-id="1,89" node-id="848" stroke="none" target-height="17.5" target-width="13.799988" target-x="463.5" target-y="546"></path><path d="M 468.80 550.90 L 467.50 554.90 L 470.10 553.40 L 468.80 550.90 Z" fill="#3f434f" fill-rule="nonzero" group-id="1,90" node-id="853" stroke="none" target-height="4" target-width="2.600006" target-x="467.5" target-y="550.9"></path><path d="M 751.20 429.90 L 743.70 425.50 L 743.60 393.40 L 751.10 397.80 L 751.20 429.90 Z" fill="#525566" fill-rule="nonzero" group-id="1,91" node-id="858" stroke="none" target-height="36.5" target-width="7.6000366" target-x="743.6" target-y="393.4"></path><path d="M 704.00 358.70 L 751.00 385.50 Z" fill="#972d37" fill-rule="nonzero" group-id="1,92" node-id="863" stroke="none" target-height="26.799988" target-width="47" target-x="704" target-y="358.7"></path><path d="M 751.00 385.50 L 743.50 381.20 L 743.20 273.40 L 750.70 277.80 L 751.00 385.50 Z" fill="#525566" fill-rule="nonzero" group-id="1,93" node-id="868" stroke="none" target-height="112.100006" target-width="7.799988" target-x="743.2" target-y="273.4"></path><path d="M 646.60 445.80 L 639.10 441.50 L 685.80 360.50 L 693.30 364.90 L 646.60 445.80 Z M 698.60 355.60 L 691.10 351.30 L 743.20 261.10 L 750.70 265.50 L 698.60 355.60 Z" fill="#474b59" fill-rule="nonzero" group-id="1,94" node-id="873" stroke="none" target-height="184.69998" target-width="111.60004" target-x="639.1" target-y="261.1"></path><path d="M 750.70 265.50 L 743.20 261.10 L 743.00 178.80 L 750.50 183.20 L 750.70 265.50 Z" fill="#525566" fill-rule="nonzero" group-id="1,95" node-id="878" stroke="none" target-height="86.7" target-width="7.700012" target-x="743" target-y="178.8"></path><path d="M 646.20 325.80 L 698.60 355.60 Z M 703.40 144.10 L 750.40 170.90 Z" fill="#972d37" fill-rule="nonzero" group-id="1,96" node-id="883" stroke="none" target-height="211.5" target-width="104.20001" target-x="646.2" target-y="144.1"></path><path d="M 750.40 170.90 L 742.90 166.50 L 742.60 58.80 L 750.10 63.20 L 750.40 170.90 Z" fill="#525566" fill-rule="nonzero" group-id="1,97" node-id="888" stroke="none" target-height="112.09999" target-width="7.800049" target-x="742.6" target-y="58.8"></path><path d="M 646.00 231.20 L 638.50 226.80 L 685.20 145.90 L 692.70 150.30 L 646.00 231.20 Z M 698.00 141.10 L 690.50 136.70 L 742.60 46.50 L 750.10 50.80 L 698.00 141.10 Z" fill="#474b59" fill-rule="nonzero" group-id="1,98" node-id="893" stroke="none" target-height="184.7" target-width="111.599976" target-x="638.5" target-y="46.5"></path><path d="M 750.00 18.70 L 742.50 14.40 L 750.00 10.00 L 757.60 14.40 L 750.00 18.70 Z" fill="#5b5e71" fill-rule="nonzero" group-id="1,99" node-id="898" stroke="none" target-height="8.700001" target-width="15.099976" target-x="742.5" target-y="10"></path><path d="M 750.10 50.80 L 742.60 46.50 L 742.50 14.40 L 750.00 18.80 L 750.10 50.80 Z" fill="#525566" fill-rule="nonzero" group-id="1,100" node-id="903" stroke="none" target-height="36.4" target-width="7.5999756" target-x="742.5" target-y="14.4"></path><path d="M 645.60 111.10 L 698.00 141.10 Z" fill="#972d37" fill-rule="nonzero" group-id="1,101" node-id="908" stroke="none" target-height="30.000008" target-width="52.400024" target-x="645.6" target-y="111.1"></path><path d="M 639.10 460.70 L 638.00 83.40 L 630.50 79.10 L 631.60 490.20 L 639.10 494.50 L 639.10 460.70 Z" fill="#525566" fill-rule="nonzero" group-id="1,102" node-id="913" stroke="none" target-height="415.4" target-width="8.599976" target-x="630.5" target-y="79.1"></path><path d="M 750.00 18.70 L 757.60 14.40 L 758.70 425.50 L 751.20 429.90 L 751.10 397.80 L 698.60 367.90 L 646.60 458.10 L 646.70 490.20 L 639.10 494.50 L 638.00 83.40 L 645.50 79.10 L 645.60 111.10 L 698.00 141.10 L 750.10 50.80 L 750.00 18.70 Z M 750.70 265.50 L 750.50 183.20 L 698.00 153.30 L 646.00 243.50 L 646.20 325.80 L 698.60 355.60 L 750.70 265.50 Z M 646.60 445.80 L 693.30 364.90 L 646.30 338.10 L 646.60 445.80 Z M 751.00 385.50 L 750.70 277.80 L 704.00 358.70 L 751.00 385.50 Z M 645.70 123.50 L 646.00 231.20 L 692.70 150.30 L 645.70 123.50 Z M 750.40 170.90 L 750.10 63.20 L 703.40 144.10 L 750.40 170.90 Z" fill="#3f434f" fill-rule="nonzero" group-id="1,103" node-id="918" stroke="none" target-height="480.1" target-width="120.70001" target-x="638" target-y="14.4"></path><path d="M 638.00 83.40 L 630.50 79.10 L 638.00 74.70 L 645.50 79.10 L 638.00 83.40 Z" fill="#5b5e71" fill-rule="nonzero" group-id="1,104" node-id="923" stroke="none" target-height="8.700005" target-width="15" target-x="630.5" target-y="74.7"></path><path d="M 1015.80 521.50 L 1015.70 531.50 L 895.40 601.40 L 895.40 591.40 L 1015.80 521.50 Z" fill="#bac1ce" fill-rule="nonzero" group-id="1,105" node-id="928" stroke="none" target-height="79.900024" target-width="120.39996" target-x="895.4" target-y="521.5"></path><path d="M 895.40 591.40 L 895.40 601.40 L 638.00 452.80 L 638.00 442.80 L 895.40 591.40 Z" fill="#d4dae8" fill-rule="nonzero" group-id="1,106" node-id="933" stroke="none" target-height="158.60004" target-width="257.40002" target-x="638" target-y="442.8"></path><path d="M 1015.80 521.50 L 895.40 591.50 L 638.00 442.80 L 758.40 372.90 L 1015.80 521.50 Z" fill="#e4e8f4" fill-rule="nonzero" group-id="1,107" node-id="938" stroke="none" target-height="218.6" target-width="377.8" target-x="638" target-y="372.9"></path><path d="M 1015.30 330.70 L 1015.30 340.70 L 895.10 410.50 L 895.10 400.60 L 1015.30 330.70 Z" fill="#bac1ce" fill-rule="nonzero" group-id="1,108" node-id="943" stroke="none" target-height="79.79999" target-width="120.20001" target-x="895.1" target-y="330.7"></path><path d="M 895.10 400.60 L 895.10 410.50 L 638.00 262.10 L 638.00 252.20 L 895.10 400.60 Z" fill="#d4dae8" fill-rule="nonzero" group-id="1,109" node-id="948" stroke="none" target-height="158.3" target-width="257.09998" target-x="638" target-y="252.2"></path><path d="M 1015.30 330.70 L 895.10 400.60 L 638.00 252.20 L 758.20 182.30 L 1015.30 330.70 Z" fill="#e4e8f4" fill-rule="nonzero" group-id="1,110" node-id="953" stroke="none" target-height="218.3" target-width="377.3" target-x="638" target-y="182.3"></path><path d="M 838.30 184.30 L 838.10 263.20 L 766.60 304.70 L 766.90 225.80 L 838.30 184.30 Z" fill="#efac41" fill-rule="nonzero" group-id="1,111" node-id="958" stroke="none" target-height="120.40001" target-width="71.70001" target-x="766.6" target-y="184.3"></path><path d="M 830.00 199.40 L 829.90 225.30 L 774.90 257.30 L 774.90 252.70 L 775.00 231.40 L 830.00 199.40 Z" fill="#e4e8f4" fill-rule="nonzero" group-id="1,112" node-id="963" stroke="none" target-height="57.899994" target-width="55.099976" target-x="774.9" target-y="199.4"></path><path d="M 766.90 225.80 L 766.60 304.70 L 694.80 263.20 L 695.00 184.30 L 766.90 225.80 Z" fill="#f9bb4a" fill-rule="nonzero" group-id="1,113" node-id="968" stroke="none" target-height="120.40001" target-width="72.10004" target-x="694.8" target-y="184.3"></path><path d="M 838.30 184.40 L 766.90 225.90 L 726.20 202.40 L 695.00 184.40 L 766.40 142.90 L 838.30 184.40 Z" fill="#fed57a" fill-rule="nonzero" group-id="1,114" node-id="973" stroke="none" target-height="83" target-width="143.29999" target-x="695" target-y="142.9"></path><path d="M 806.90 166.20 L 735.50 207.70 L 726.20 202.40 L 797.80 160.90 L 806.90 166.20 Z" fill="#efac41" fill-rule="nonzero" group-id="1,115" node-id="978" stroke="none" target-height="46.800003" target-width="80.70001" target-x="726.2" target-y="160.9"></path><path d="M 735.50 207.70 L 735.40 237.50 L 726.20 232.30 L 726.30 202.40 L 735.50 207.70 Z" fill="#efac41" fill-rule="nonzero" group-id="1,116" node-id="983" stroke="none" target-height="35.100006" target-width="9.299988" target-x="726.2" target-y="202.4"></path><path d="M 782.80 269.90 L 785.30 274.60 L 780.40 277.40 L 782.80 269.90 Z M 783.70 275.50 L 783.80 284.80 L 781.90 285.90 L 781.90 276.60 L 783.70 275.50 Z M 792.90 280.30 L 792.90 282.30 L 780.20 289.70 L 780.20 287.70 L 792.90 280.30 Z M 806.50 256.20 L 806.30 264.50 L 804.80 267.40 L 803.70 268.60 L 803.70 274.60 L 805.10 274.30 L 805.70 274.80 L 800.70 277.60 L 801.30 276.50 L 802.70 275.20 L 802.70 269.20 L 801.60 269.40 L 800.80 269.10 L 800.10 268.30 L 799.80 266.70 L 799.80 260.10 L 806.50 256.20 Z M 791.10 271.20 L 791.20 280.50 L 789.30 281.60 L 789.30 272.30 L 791.10 271.20 Z M 790.20 265.60 L 792.70 270.30 L 787.80 273.20 L 790.20 265.60 Z" fill="#3f434f" fill-rule="nonzero" group-id="1,117" node-id="988" stroke="none" target-height="33.5" target-width="26.299988" target-x="780.2" target-y="256.2"></path><path d="M 830.00 211.80 L 829.90 213.10 L 775.00 244.90 L 775.00 243.70 L 830.00 211.80 Z M 829.90 216.40 L 829.90 217.70 L 775.00 249.50 L 775.00 248.20 L 829.90 216.40 Z M 829.90 221.00 L 829.90 222.30 L 774.90 254.10 L 774.90 252.70 L 829.90 221.00 Z M 830.00 207.20 L 830.00 208.50 L 775.00 240.30 L 775.00 239.00 L 830.00 207.20 Z M 830.00 202.60 L 830.00 203.90 L 775.00 235.70 L 775.00 234.40 L 830.00 202.60 Z" fill="#a4a9b3" fill-rule="nonzero" group-id="1,118" node-id="993" stroke="none" target-height="51.5" target-width="55.099976" target-x="774.9" target-y="202.6"></path><path d="M 948.80 248.10 L 948.50 327.00 L 877.10 368.50 L 877.40 289.60 L 948.80 248.10 Z" fill="#efac41" fill-rule="nonzero" group-id="1,119" node-id="998" stroke="none" target-height="120.399994" target-width="71.70001" target-x="877.1" target-y="248.1"></path><path d="M 940.50 263.20 L 940.40 289.10 L 885.40 321.10 L 885.40 316.50 L 885.50 295.20 L 940.50 263.20 Z" fill="#e4e8f4" fill-rule="nonzero" group-id="1,120" node-id="1003" stroke="none" target-height="57.899994" target-width="55.099976" target-x="885.4" target-y="263.2"></path><path d="M 877.40 289.60 L 877.10 368.50 L 805.20 327.00 L 805.50 248.10 L 877.40 289.60 Z" fill="#f9bb4a" fill-rule="nonzero" group-id="1,121" node-id="1008" stroke="none" target-height="120.399994" target-width="72.20001" target-x="805.2" target-y="248.1"></path><path d="M 948.80 248.10 L 877.30 289.60 L 836.70 266.20 L 805.50 248.10 L 876.90 206.60 L 948.80 248.10 Z" fill="#fed57a" fill-rule="nonzero" group-id="1,122" node-id="1013" stroke="none" target-height="83" target-width="143.29999" target-x="805.5" target-y="206.6"></path><path d="M 917.40 230.00 L 846.00 271.50 L 836.70 266.20 L 908.30 224.70 L 917.40 230.00 Z" fill="#efac41" fill-rule="nonzero" group-id="1,123" node-id="1018" stroke="none" target-height="46.800003" target-width="80.70001" target-x="836.7" target-y="224.7"></path><path d="M 845.90 271.50 L 845.90 301.30 L 836.70 296.10 L 836.80 266.20 L 845.90 271.50 Z" fill="#efac41" fill-rule="nonzero" group-id="1,124" node-id="1023" stroke="none" target-height="35.099976" target-width="9.200012" target-x="836.7" target-y="266.2"></path><path d="M 893.30 333.70 L 895.70 338.40 L 890.80 341.20 L 893.30 333.70 Z M 894.20 339.30 L 894.20 348.60 L 892.40 349.60 L 892.40 340.30 L 894.20 339.30 Z M 903.40 344.10 L 903.40 346.10 L 890.60 353.50 L 890.60 351.50 L 903.40 344.10 Z M 917.00 320.00 L 916.70 328.30 L 915.30 331.20 L 914.20 332.40 L 914.20 338.40 L 915.60 338.00 L 916.20 338.50 L 911.20 341.40 L 911.70 340.20 L 913.10 339.00 L 913.10 333.00 L 912.10 333.20 L 911.30 332.90 L 910.60 332.00 L 910.30 330.50 L 910.30 323.90 L 917.00 320.00 Z M 901.60 335.00 L 901.60 344.30 L 899.80 345.40 L 899.70 336.10 L 901.60 335.00 Z" fill="#3f434f" fill-rule="nonzero" group-id="1,125" node-id="1028" stroke="none" target-height="33.5" target-width="26.400024" target-x="890.6" target-y="320"></path><path d="M 900.70 329.40 L 903.10 334.10 L 898.20 336.90 L 900.70 329.40 Z" fill="#3f434f" fill-rule="nonzero" group-id="1,126" node-id="1033" stroke="none" target-height="7.5" target-width="4.8999634" target-x="898.2" target-y="329.4"></path><path d="M 940.50 275.60 L 940.40 276.90 L 885.40 308.60 L 885.40 307.40 L 940.50 275.60 Z M 940.40 280.20 L 940.40 281.50 L 885.40 313.20 L 885.40 312.00 L 940.40 280.20 Z M 940.40 284.80 L 940.40 286.10 L 885.40 317.80 L 885.40 316.50 L 940.40 284.80 Z M 940.50 271.00 L 940.50 272.30 L 885.40 304.10 L 885.40 302.80 L 940.50 271.00 Z M 940.50 266.40 L 940.50 267.70 L 885.50 299.40 L 885.50 298.10 L 940.50 266.40 Z" fill="#a4a9b3" fill-rule="nonzero" group-id="1,127" node-id="1038" stroke="none" target-height="51.399994" target-width="55.099976" target-x="885.4" target-y="266.4"></path><path d="M 709.30 390.80 L 709.60 464.80 L 862.70 553.80 L 862.50 479.80 L 709.30 390.80 Z" fill="#efac41" fill-rule="nonzero" group-id="1,128" node-id="1043" stroke="none" target-height="163" target-width="153.40002" target-x="709.3" target-y="390.8"></path><path d="M 722.50 408.10 L 722.60 432.40 L 774.20 462.40 L 774.20 458.10 L 774.10 438.10 L 722.50 408.10 Z" fill="#e4e8f4" fill-rule="nonzero" group-id="1,129" node-id="1048" stroke="none" target-height="54.299988" target-width="51.700012" target-x="722.5" target-y="408.1"></path><path d="M 862.50 479.80 L 862.70 553.80 L 930.20 514.90 L 929.90 440.90 L 862.50 479.80 Z" fill="#f9bb4a" fill-rule="nonzero" group-id="1,130" node-id="1053" stroke="none" target-height="112.899994" target-width="67.70001" target-x="862.5" target-y="440.9"></path><path d="M 709.30 390.90 L 862.50 479.90 L 900.60 457.90 L 929.90 440.90 L 776.80 351.90 L 709.30 390.90 Z" fill="#fed57a" fill-rule="nonzero" group-id="1,131" node-id="1058" stroke="none" target-height="128" target-width="220.60004" target-x="709.3" target-y="351.9"></path><path d="M 738.80 373.80 L 891.90 462.80 L 900.60 457.90 L 747.30 368.90 L 738.80 373.80 Z" fill="#efac41" fill-rule="nonzero" group-id="1,132" node-id="1063" stroke="none" target-height="93.899994" target-width="161.79999" target-x="738.8" target-y="368.9"></path><path d="M 891.90 462.80 L 892.00 490.80 L 900.60 485.90 L 900.60 457.90 L 891.90 462.80 Z" fill="#efac41" fill-rule="nonzero" group-id="1,133" node-id="1068" stroke="none" target-height="32.899994" target-width="8.699951" target-x="891.9" target-y="457.9"></path><path d="M 756.90 457.70 L 753.70 463.70 L 760.00 467.40 L 756.90 457.70 Z M 755.70 464.90 L 755.60 476.80 L 758.00 478.20 L 758.00 466.20 L 755.70 464.90 Z M 743.90 471.10 L 743.90 473.60 L 760.20 483.10 L 760.20 480.50 L 743.90 471.10 Z M 726.50 440.20 L 726.50 448.70 L 726.80 450.70 L 727.50 452.80 L 728.70 454.70 L 730.10 456.10 L 730.10 463.70 L 728.30 463.30 L 727.70 463.50 L 727.60 463.90 L 733.90 467.60 L 733.20 466.10 L 731.40 464.50 L 731.40 456.80 L 732.80 457.10 L 733.80 456.70 L 734.90 455.10 L 735.10 445.10 L 726.50 440.20 Z M 746.20 459.40 L 746.20 471.30 L 748.50 472.70 L 748.60 460.80 L 746.20 459.40 Z" fill="#3f434f" fill-rule="nonzero" group-id="1,134" node-id="1073" stroke="none" target-height="42.899994" target-width="33.700012" target-x="726.5" target-y="440.2"></path><path d="M 747.40 452.20 L 744.20 458.30 L 750.50 461.90 L 747.40 452.20 Z" fill="#3f434f" fill-rule="nonzero" group-id="1,135" node-id="1078" stroke="none" target-height="9.699982" target-width="6.299988" target-x="744.2" target-y="452.2"></path><path d="M 722.50 419.80 L 722.60 421.00 L 774.10 450.70 L 774.10 449.60 L 722.50 419.80 Z M 722.60 424.00 L 722.60 425.30 L 774.10 455.10 L 774.10 453.90 L 722.60 424.00 Z M 722.60 428.30 L 722.60 429.60 L 774.20 459.40 L 774.20 458.10 L 722.60 428.30 Z M 722.50 415.40 L 722.50 416.60 L 774.10 446.50 L 774.10 445.20 L 722.50 415.40 Z M 722.50 411.10 L 722.50 412.30 L 774.10 442.10 L 774.10 440.90 L 722.50 411.10 Z" fill="#a4a9b3" fill-rule="nonzero" group-id="1,136" node-id="1083" stroke="none" target-height="48.299988" target-width="51.700012" target-x="722.5" target-y="411.1"></path><path d="M 1008.60 578.90 L 1001.10 574.60 L 1001.00 542.50 L 1008.50 546.90 L 1008.60 578.90 Z" fill="#525566" fill-rule="nonzero" group-id="1,137" node-id="1088" stroke="none" target-height="36.400024" target-width="7.5999756" target-x="1001" target-y="542.5"></path><path d="M 961.40 507.80 L 1008.40 534.60 Z" fill="#972d37" fill-rule="nonzero" group-id="1,138" node-id="1093" stroke="none" target-height="26.799988" target-width="47" target-x="961.4" target-y="507.8"></path><path d="M 1008.40 534.60 L 1000.90 530.20 L 1000.60 422.50 L 1008.10 426.80 L 1008.40 534.60 Z" fill="#525566" fill-rule="nonzero" group-id="1,139" node-id="1098" stroke="none" target-height="112.099976" target-width="7.800049" target-x="1000.6" target-y="422.5"></path><path d="M 904.00 594.90 L 896.50 590.50 L 943.20 509.60 L 950.70 514.00 L 904.00 594.90 Z M 956.00 504.70 L 948.50 500.30 L 1000.60 410.20 L 1008.10 414.60 L 956.00 504.70 Z" fill="#474b59" fill-rule="nonzero" group-id="1,140" node-id="1103" stroke="none" target-height="184.70001" target-width="111.599976" target-x="896.5" target-y="410.2"></path><path d="M 1008.10 414.60 L 1000.60 410.20 L 1000.40 327.90 L 1007.90 332.30 L 1008.10 414.60 Z" fill="#525566" fill-rule="nonzero" group-id="1,141" node-id="1108" stroke="none" target-height="86.70001" target-width="7.699951" target-x="1000.4" target-y="327.9"></path><path d="M 903.60 474.90 L 956.00 504.70 Z M 960.80 293.20 L 1007.80 319.90 Z" fill="#972d37" fill-rule="nonzero" group-id="1,142" node-id="1113" stroke="none" target-height="211.5" target-width="104.20001" target-x="903.6" target-y="293.2"></path><path d="M 1007.80 319.90 L 1000.30 315.60 L 1000.00 207.90 L 1007.50 212.20 L 1007.80 319.90 Z" fill="#525566" fill-rule="nonzero" group-id="1,143" node-id="1118" stroke="none" target-height="112" target-width="7.799988" target-x="1000" target-y="207.9"></path><path d="M 903.40 380.20 L 895.90 375.90 L 942.60 295.00 L 950.10 299.40 L 903.40 380.20 Z M 955.40 290.10 L 947.90 285.80 L 1000.00 195.50 L 1007.50 199.90 L 955.40 290.10 Z" fill="#474b59" fill-rule="nonzero" group-id="1,144" node-id="1123" stroke="none" target-height="184.70001" target-width="111.599976" target-x="895.9" target-y="195.5"></path><path d="M 1007.40 167.80 L 999.90 163.50 L 1007.50 159.10 L 1015.00 163.50 L 1007.40 167.80 Z" fill="#5b5e71" fill-rule="nonzero" group-id="1,145" node-id="1128" stroke="none" target-height="8.699997" target-width="15.099976" target-x="999.9" target-y="159.1"></path><path d="M 1007.50 199.90 L 1000.00 195.50 L 999.90 163.50 L 1007.40 167.80 L 1007.50 199.90 Z" fill="#525566" fill-rule="nonzero" group-id="1,146" node-id="1133" stroke="none" target-height="36.399994" target-width="7.5999756" target-x="999.9" target-y="163.5"></path><path d="M 903.00 260.20 L 955.40 290.10 Z" fill="#972d37" fill-rule="nonzero" group-id="1,147" node-id="1138" stroke="none" target-height="29.899994" target-width="52.400024" target-x="903" target-y="260.2"></path><path d="M 896.40 609.80 L 895.40 232.50 L 887.90 228.10 L 889.00 639.30 L 896.60 643.60 L 896.40 609.80 Z" fill="#525566" fill-rule="nonzero" group-id="1,148" node-id="1143" stroke="none" target-height="415.49997" target-width="8.699951" target-x="887.9" target-y="228.1"></path><path d="M 1007.40 167.80 L 1015.00 163.50 L 1016.10 574.60 L 1008.60 578.90 L 1008.50 546.90 L 956.00 517.00 L 904.00 607.20 L 904.10 639.20 L 896.50 643.60 L 895.40 232.50 L 902.90 228.10 L 903.00 260.20 L 955.40 290.10 L 1007.50 199.90 L 1007.40 167.80 Z M 1008.10 414.60 L 1007.90 332.30 L 955.40 302.40 L 903.40 392.60 L 903.60 474.90 L 956.00 504.70 L 1008.10 414.60 Z M 904.00 594.90 L 950.70 514.00 L 903.70 487.10 L 904.00 594.90 Z M 1008.40 534.60 L 1008.10 426.80 L 961.40 507.80 L 1008.40 534.60 Z M 903.10 272.60 L 903.40 380.20 L 950.10 299.40 L 903.10 272.60 Z M 1007.80 319.90 L 1007.50 212.30 L 960.80 293.20 L 1007.80 319.90 Z" fill="#3f434f" fill-rule="nonzero" group-id="1,149" node-id="1148" stroke="none" target-height="480.09998" target-width="120.69995" target-x="895.4" target-y="163.5"></path><path d="M 895.40 232.50 L 887.90 228.10 L 895.40 223.80 L 902.90 228.10 L 895.40 232.50 Z" fill="#5b5e71" fill-rule="nonzero" group-id="1,150" node-id="1153" stroke="none" target-height="8.699997" target-width="15" target-x="887.9" target-y="223.8"></path><path d="M 7.90 806.80 L 8.20 912.90 L 182.20 1014.00 L 181.90 907.90 L 7.90 806.80 Z" fill="#efac41" fill-rule="nonzero" group-id="1,151" node-id="1158" stroke="none" target-height="207.20001" target-width="174.3" target-x="7.9" target-y="806.8"></path><path d="M 135.30 897.00 L 135.40 931.90 L 167.00 950.20 L 166.90 915.30 L 135.30 897.00 Z" fill="#e4e8f4" fill-rule="nonzero" group-id="1,152" node-id="1163" stroke="none" target-height="53.200012" target-width="31.699997" target-x="135.3" target-y="897"></path><path d="M 181.90 907.90 L 182.20 1014.00 L 278.90 958.10 L 278.60 852.00 L 181.90 907.90 Z" fill="#f9bb4a" fill-rule="nonzero" group-id="1,153" node-id="1168" stroke="none" target-height="162" target-width="97" target-x="181.9" target-y="852"></path><path d="M 7.90 806.80 L 181.90 907.90 L 236.60 876.40 L 278.60 852.10 L 104.60 751.00 L 7.90 806.80 Z" fill="#fed57a" fill-rule="nonzero" group-id="1,154" node-id="1173" stroke="none" target-height="156.90002" target-width="270.7" target-x="7.9" target-y="751"></path><path d="M 50.10 782.40 L 224.10 883.50 L 236.60 876.40 L 62.40 775.30 L 50.10 782.40 Z" fill="#efac41" fill-rule="nonzero" group-id="1,155" node-id="1178" stroke="none" target-height="108.20001" target-width="186.5" target-x="50.1" target-y="775.3"></path><path d="M 224.10 883.50 L 224.20 923.60 L 236.60 916.60 L 236.50 876.40 L 224.10 883.50 Z" fill="#efac41" fill-rule="nonzero" group-id="1,156" node-id="1183" stroke="none" target-height="47.19995" target-width="12.5" target-x="224.1" target-y="876.4"></path><path d="M 160.50 967.20 L 157.10 973.50 L 163.70 977.30 L 160.50 967.20 Z" fill="#3f434f" fill-rule="nonzero" group-id="1,157" node-id="1188" stroke="none" target-height="10.099976" target-width="6.599991" target-x="157.1" target-y="967.2"></path><path d="M 159.20 974.70 L 159.20 987.20 L 161.60 988.70 L 161.70 976.10 L 159.20 974.70 Z M 146.80 981.20 L 146.80 983.90 L 164.00 993.80 L 164.00 991.20 L 146.80 981.20 Z M 128.60 948.80 L 128.60 957.70 L 128.90 959.90 L 129.60 962.00 L 130.80 963.80 L 132.30 965.50 L 132.30 973.50 L 130.40 973.00 L 129.90 973.20 L 129.70 973.70 L 136.30 977.60 L 135.60 976.00 L 133.70 974.30 L 133.70 966.20 L 135.10 966.50 L 136.20 966.10 L 137.30 964.40 L 137.60 954.00 L 128.60 948.80 Z M 149.20 969.00 L 149.20 981.50 L 151.70 982.90 L 151.70 970.40 L 149.20 969.00 Z M 150.50 961.40 L 147.20 967.80 L 153.80 971.50 L 150.50 961.40 Z" fill="#3f434f" fill-rule="nonzero" group-id="1,158" node-id="1193" stroke="none" target-height="45" target-width="35.399994" target-x="128.6" target-y="948.8"></path><path d="M 590.10 830.00 L 590.30 921.80 L 740.80 1009.20 L 740.50 917.40 L 590.10 830.00 Z" fill="#efac41" fill-rule="nonzero" group-id="1,159" node-id="1198" stroke="none" target-height="179.20001" target-width="150.70001" target-x="590.1" target-y="830"></path><path d="M 700.20 908.00 L 700.30 938.20 L 727.60 954.10 L 727.50 923.90 L 700.20 908.00 Z" fill="#e4e8f4" fill-rule="nonzero" group-id="1,160" node-id="1203" stroke="none" target-height="46.099976" target-width="27.399963" target-x="700.2" target-y="908"></path><path d="M 740.50 917.40 L 740.80 1009.20 L 824.40 960.90 L 824.10 869.10 L 740.50 917.40 Z" fill="#f9bb4a" fill-rule="nonzero" group-id="1,161" node-id="1208" stroke="none" target-height="140.10004" target-width="83.900024" target-x="740.5" target-y="869.1"></path><path d="M 590.00 830.10 L 740.50 917.50 L 787.80 890.20 L 824.10 869.20 L 673.70 781.80 L 590.00 830.10 Z" fill="#fed57a" fill-rule="nonzero" group-id="1,162" node-id="1213" stroke="none" target-height="135.70001" target-width="234.09998" target-x="590" target-y="781.8"></path><path d="M 626.60 808.90 L 777.00 896.30 L 787.80 890.20 L 637.10 802.80 L 626.60 808.90 Z" fill="#efac41" fill-rule="nonzero" group-id="1,163" node-id="1218" stroke="none" target-height="93.5" target-width="161.20001" target-x="626.6" target-y="802.8"></path><path d="M 777.00 896.30 L 777.10 931.10 L 787.80 924.90 L 787.70 890.20 L 777.00 896.30 Z" fill="#efac41" fill-rule="nonzero" group-id="1,164" node-id="1223" stroke="none" target-height="40.899963" target-width="10.799988" target-x="777" target-y="890.2"></path><path d="M 722.00 968.70 L 719.10 974.20 L 724.80 977.50 L 722.00 968.70 Z" fill="#3f434f" fill-rule="nonzero" group-id="1,165" node-id="1228" stroke="none" target-height="8.799988" target-width="5.700012" target-x="719.1" target-y="968.7"></path><path d="M 720.90 975.20 L 720.90 986.10 L 723.00 987.30 L 723.00 976.50 L 720.90 975.20 Z M 710.20 980.90 L 710.20 983.20 L 725.00 991.80 L 725.10 989.50 L 710.20 980.90 Z M 694.40 952.80 L 694.40 960.50 L 694.60 962.40 L 695.30 964.30 L 696.40 966.00 L 697.70 967.20 L 697.70 974.20 L 696.00 973.80 L 695.40 974.40 L 701.10 977.70 L 700.50 976.40 L 698.80 974.90 L 698.90 967.90 L 700.10 968.10 L 701.00 967.80 L 702.00 966.30 L 702.20 957.30 L 694.40 952.80 Z M 712.30 970.30 L 712.30 981.10 L 714.40 982.30 L 714.40 971.50 L 712.30 970.30 Z" fill="#3f434f" fill-rule="nonzero" group-id="1,166" node-id="1233" stroke="none" target-height="39" target-width="30.699951" target-x="694.4" target-y="952.8"></path><path d="M 713.40 963.70 L 710.50 969.20 L 716.20 972.50 L 713.40 963.70 Z" fill="#3f434f" fill-rule="nonzero" group-id="1,167" node-id="1238" stroke="none" target-height="8.799988" target-width="5.700012" target-x="710.5" target-y="963.7"></path><path d="M 919.70 703.30 L 919.40 795.10 L 768.90 882.50 L 769.20 790.70 L 919.70 703.30 Z" fill="#efac41" fill-rule="nonzero" group-id="1,168" node-id="1243" stroke="none" target-height="179.20001" target-width="150.79999" target-x="768.9" target-y="703.3"></path><path d="M 809.50 781.30 L 809.40 811.50 L 782.10 827.40 L 782.20 797.20 L 809.50 781.30 Z" fill="#e4e8f4" fill-rule="nonzero" group-id="1,169" node-id="1248" stroke="none" target-height="46.100037" target-width="27.400024" target-x="782.1" target-y="781.3"></path><path d="M 769.20 790.70 L 768.90 882.50 L 685.30 834.20 L 685.60 742.40 L 769.20 790.70 Z" fill="#f9bb4a" fill-rule="nonzero" group-id="1,170" node-id="1253" stroke="none" target-height="140.09998" target-width="83.900024" target-x="685.3" target-y="742.4"></path><path d="M 919.70 703.40 L 769.20 790.80 L 721.90 763.50 L 685.60 742.50 L 836.00 655.10 L 919.70 703.40 Z" fill="#fed57a" fill-rule="nonzero" group-id="1,171" node-id="1258" stroke="none" target-height="135.70001" target-width="234.10004" target-x="685.6" target-y="655.1"></path><path d="M 883.20 682.20 L 732.70 769.60 L 721.90 763.50 L 872.60 676.10 L 883.20 682.20 Z" fill="#efac41" fill-rule="nonzero" group-id="1,172" node-id="1263" stroke="none" target-height="93.5" target-width="161.29999" target-x="721.9" target-y="676.1"></path><path d="M 732.70 769.60 L 732.60 804.30 L 721.90 798.20 L 722.00 763.50 L 732.70 769.60 Z" fill="#efac41" fill-rule="nonzero" group-id="1,173" node-id="1268" stroke="none" target-height="40.799988" target-width="10.799988" target-x="721.9" target-y="763.5"></path><path d="M 787.70 842.00 L 790.60 847.50 L 784.90 850.80 L 787.70 842.00 Z M 788.80 848.50 L 788.90 859.40 L 786.70 860.60 L 786.70 849.80 L 788.80 848.50 Z M 799.50 854.20 L 799.50 856.50 L 784.70 865.10 L 784.70 862.80 L 799.50 854.20 Z M 815.30 826.10 L 815.30 833.80 L 815.10 835.70 L 814.40 837.60 L 813.30 839.20 L 812.10 840.50 L 812.10 847.50 L 813.70 847.10 L 814.40 847.70 L 808.60 851.00 L 809.20 849.70 L 810.90 848.20 L 810.90 841.20 L 809.60 841.40 L 808.70 841.10 L 807.70 839.60 L 807.50 830.60 L 815.30 826.10 Z M 797.40 843.60 L 797.50 854.40 L 795.30 855.60 L 795.30 844.80 L 797.40 843.60 Z M 796.40 837.00 L 799.20 842.50 L 793.50 845.80 L 796.40 837.00 Z" fill="#3f434f" fill-rule="nonzero" group-id="1,174" node-id="1273" stroke="none" target-height="39" target-width="30.599976" target-x="784.7" target-y="826.1"></path></g></g></svg>