<?xml version="1.0" standalone="no"?><!DOCTYPE svg PUBLIC "-//W3C//DTD SVG 1.1//EN" "http://www.w3.org/Graphics/SVG/1.1/DTD/svg11.dtd"><svg height="1024" node-id="1" sillyvg="true" template-height="1024" template-width="1024" version="1.1" viewBox="0 0 1024 1024" width="1024" xmlns="http://www.w3.org/2000/svg" xmlns:xlink="http://www.w3.org/1999/xlink"><defs node-id="102"><clipPath id="master_svg0_45_3024" node-id="3"><path d="M 0.00 0.00 L 1024.00 0.00 L 1024.00 1024.00 L 0.00 1024.00 Z" fill="#000000" fill-rule="nonzero" node-id="105" stroke="none" target-height="1024" target-width="1024" target-x="0" target-y="0"></path></clipPath></defs><g node-id="347"><g clip-path="url(#master_svg0_45_3024)" group-id="1" id="sillyvg_g_1" node-id="111"><path d="M 900.00 802.80 L 741.10 711.10 L 735.50 708.90 L 729.00 707.80 L 722.40 708.10 L 719.20 708.80 L 713.60 711.00 L 593.80 780.70 L 452.60 701.40 L 452.60 479.00 L 452.40 478.20 L 451.80 477.60 L 361.10 426.50 L 361.10 299.50 L 401.00 276.40 L 401.20 345.50 L 401.70 347.30 L 403.10 348.70 L 464.40 384.20 L 466.60 384.00 L 467.60 383.40 L 508.00 359.50 L 531.10 373.00 L 499.50 391.40 L 496.20 394.70 L 494.20 397.70 L 492.60 400.90 L 491.60 404.40 L 491.20 407.60 L 491.80 592.70 L 498.00 596.40 L 771.10 438.70 L 770.50 253.50 L 770.30 251.20 L 769.70 249.50 L 768.70 248.00 L 761.40 243.40 L 759.90 242.90 L 758.10 242.80 L 756.30 243.20 L 754.10 244.20 L 538.60 368.60 L 509.90 351.90 L 508.00 351.30 L 506.10 351.90 L 465.10 376.00 L 408.70 343.30 L 408.50 272.10 L 470.80 236.10 L 476.80 232.40 L 482.70 228.20 L 488.40 223.50 L 494.10 218.40 L 499.40 212.90 L 509.50 201.20 L 514.20 194.80 L 520.00 185.90 L 525.30 176.80 L 530.00 167.40 L 533.20 160.10 L 536.00 152.80 L 540.30 138.20 L 542.00 130.80 L 543.10 123.50 L 543.80 116.40 L 544.00 109.50 L 543.80 103.50 L 543.20 98.00 L 541.20 88.30 L 539.70 83.70 L 535.90 75.70 L 533.60 72.30 L 531.00 69.10 L 528.10 66.30 L 525.10 63.90 L 487.70 41.90 L 484.00 40.10 L 480.20 38.70 L 476.10 37.70 L 471.90 37.20 L 467.50 37.00 L 462.70 37.40 L 423.90 15.00 L 420.20 13.60 L 416.40 12.60 L 412.30 12.00 L 403.90 11.90 L 399.40 12.50 L 390.00 14.80 L 380.20 18.90 L 374.90 21.80 L 365.70 27.70 L 361.10 31.20 L 354.60 36.90 L 348.40 43.10 L 332.30 34.00 L 327.90 32.10 L 323.30 30.70 L 318.50 29.60 L 313.40 28.80 L 307.00 28.50 L 300.40 28.80 L 293.40 29.70 L 286.00 31.30 L 278.80 33.40 L 271.40 36.20 L 263.60 39.70 L 255.50 44.00 L 247.90 48.70 L 240.50 53.90 L 233.10 59.60 L 225.80 65.80 L 218.80 72.30 L 212.10 79.20 L 205.50 86.50 L 199.00 94.10 L 187.10 110.20 L 176.30 127.30 L 166.70 145.10 L 158.60 163.40 L 151.90 182.20 L 146.90 200.80 L 145.00 210.20 L 143.60 219.50 L 142.70 228.60 L 142.30 237.50 L 177.20 257.90 L 142.30 237.70 L 136.40 242.60 L 130.60 248.10 L 125.00 254.10 L 119.80 260.40 L 114.90 267.10 L 110.20 274.10 L 106.00 281.40 L 102.20 288.80 L 98.70 296.40 L 95.70 304.10 L 93.30 311.80 L 91.30 319.50 L 89.80 327.30 L 89.00 334.90 L 88.70 342.30 L 88.90 348.50 L 89.60 354.10 L 90.60 359.10 L 92.00 363.70 L 93.70 367.80 L 95.90 371.90 L 98.40 375.40 L 101.10 378.50 L 104.10 381.10 L 107.40 383.30 L 142.30 403.50 L 140.40 402.10 L 143.40 404.00 L 146.70 405.50 L 150.20 406.70 L 153.90 407.50 L 161.60 407.90 L 165.80 407.40 L 174.50 405.40 L 183.70 401.70 L 288.90 341.20 L 289.10 408.10 L 150.70 489.60 L 149.90 490.20 L 148.90 491.90 L 148.90 493.90 L 149.90 495.50 L 150.70 496.20 L 261.70 560.70 L 118.20 643.40 L 114.90 645.80 L 111.70 648.80 L 108.90 652.20 L 106.40 656.10 L 104.30 660.20 L 102.80 664.30 L 101.80 668.60 L 101.40 672.60 L 102.00 892.80 L 102.70 897.70 L 104.30 901.30 L 105.50 902.70 L 119.20 910.70 L 118.50 910.10 L 120.20 911.20 L 122.20 911.90 L 124.40 912.10 L 126.60 911.90 L 129.20 911.20 L 132.00 909.80 L 214.40 862.20 L 208.30 870.10 L 204.30 877.20 L 201.80 884.50 L 201.00 890.60 L 201.10 904.40 L 201.30 907.70 L 202.00 910.70 L 203.20 913.30 L 204.80 915.80 L 206.80 917.90 L 209.40 919.70 L 212.00 921.00 L 218.70 922.80 L 222.90 923.40 L 228.30 923.60 L 234.50 923.30 L 241.40 922.60 L 255.60 919.80 L 271.10 915.20 L 287.10 909.00 L 303.10 901.40 L 311.00 897.10 L 320.60 891.40 L 335.70 881.40 L 345.10 873.80 L 351.40 867.20 L 354.00 863.60 L 355.70 860.20 L 356.60 857.10 L 357.00 854.10 L 356.90 835.20 L 356.20 831.30 L 355.30 829.30 L 354.10 827.60 L 352.50 826.00 L 350.30 824.50 L 344.30 822.00 L 340.20 821.00 L 331.50 819.80 L 318.30 819.70 L 309.40 820.30 L 309.40 807.40 L 407.60 750.70 L 411.00 748.30 L 414.20 745.40 L 417.10 741.90 L 419.60 738.10 L 421.60 734.00 L 423.20 729.80 L 424.20 725.60 L 424.50 721.50 L 424.30 501.30 L 423.60 496.50 L 421.90 492.90 L 420.70 491.60 L 404.60 482.20 L 400.90 481.90 L 396.70 482.90 L 269.20 556.30 L 160.00 492.90 L 295.50 412.90 L 296.50 411.20 L 296.60 410.30 L 296.50 336.80 L 358.00 301.30 L 358.00 427.40 L 358.20 428.20 L 358.80 428.80 L 449.50 479.90 L 449.50 702.40 L 449.70 703.20 L 450.30 703.70 L 590.70 782.50 L 417.90 883.10 L 415.40 885.70 L 414.70 887.10 L 414.10 890.00 L 413.90 909.30 L 414.60 912.10 L 416.50 914.80 L 419.80 917.30 L 578.60 1009.00 L 584.20 1011.30 L 587.50 1011.90 L 594.10 1012.20 L 600.60 1011.30 L 606.20 1009.00 L 901.80 837.00 L 904.20 834.50 L 905.50 831.80 L 905.70 811.00 L 905.10 808.10 L 904.30 806.60 L 901.80 804.10 L 900.00 802.80 Z M 290.50 64.40 L 282.90 69.10 L 275.40 74.30 L 268.00 80.00 L 260.60 86.30 L 253.60 92.80 L 246.80 99.80 L 240.20 107.10 L 227.60 122.80 L 216.20 139.40 L 210.90 148.20 L 216.10 139.40 L 227.50 122.70 L 240.10 107.10 L 246.70 99.70 L 253.50 92.80 L 260.50 86.30 L 267.80 80.00 L 275.30 74.30 L 282.80 69.10 L 290.40 64.40 L 296.80 61.10 L 290.50 64.40 Z" fill="#e4e8f4" fill-rule="nonzero" group-id="1,2" node-id="115" stroke="none" target-height="1000.3" target-width="817" target-x="88.7" target-y="11.9"></path><path d="M 628.00 803.20 L 627.30 803.00 L 450.30 703.70 L 449.70 703.10 L 449.50 702.30 L 449.50 479.90 L 358.70 428.80 L 358.20 428.20 L 357.90 427.40 L 357.90 293.30 L 358.10 292.70 L 358.90 291.90 L 360.10 291.90 L 360.90 292.70 L 361.10 293.30 L 361.10 426.50 L 451.80 477.70 L 452.40 478.20 L 452.60 479.00 L 452.60 701.40 L 628.80 800.30 L 629.50 801.10 L 629.50 802.10 L 629.00 802.90 L 628.00 803.20 Z M 322.40 595.30 L 320.50 594.80 L 150.70 496.10 L 149.30 494.80 L 148.80 492.90 L 149.30 491.00 L 150.70 489.60 L 289.10 408.10 L 288.80 276.10 L 289.00 274.60 L 289.80 273.40 L 291.00 272.60 L 292.50 272.30 L 294.00 272.60 L 295.20 273.40 L 296.00 274.60 L 296.30 276.10 L 296.60 410.20 L 296.10 412.10 L 294.80 413.50 L 160.00 492.80 L 324.30 588.30 L 325.30 589.10 L 325.90 590.10 L 326.20 591.30 L 326.10 592.50 L 324.70 594.60 L 323.60 595.10 L 322.40 595.30 Z M 608.90 417.60 L 607.00 417.00 L 508.00 359.50 L 466.80 383.90 L 464.50 384.20 L 463.40 383.80 L 402.30 348.10 L 401.30 346.50 L 401.20 345.50 L 400.70 185.90 L 401.00 184.40 L 401.80 183.20 L 403.00 182.40 L 404.50 182.10 L 406.00 182.40 L 407.20 183.20 L 408.00 184.40 L 408.30 185.90 L 408.70 343.30 L 465.10 376.10 L 506.10 351.90 L 507.00 351.50 L 508.90 351.50 L 610.80 410.50 L 612.40 412.30 L 612.50 414.80 L 612.00 415.90 L 611.20 416.80 L 608.90 417.60 Z" fill="#416e84" fill-rule="nonzero" group-id="1,3" node-id="120" stroke="none" target-height="621.1" target-width="480.7" target-x="148.8" target-y="182.1"></path><path d="M 251.90 819.30 L 229.00 806.00 L 286.40 772.90 L 309.30 786.20 L 251.90 819.30 Z" fill="#4e5161" fill-rule="nonzero" group-id="1,4" node-id="125" stroke="none" target-height="46.399963" target-width="80.29999" target-x="229" target-y="772.9"></path><path d="M 201.00 890.60 L 201.00 904.50 L 201.30 907.70 L 202.00 910.70 L 203.20 913.40 L 204.80 915.80 L 206.80 917.90 L 209.40 919.70 L 212.10 921.00 L 218.70 922.80 L 222.90 923.40 L 228.30 923.60 L 234.50 923.30 L 241.40 922.60 L 248.20 921.40 L 255.60 919.80 L 271.10 915.20 L 287.10 909.10 L 295.10 905.40 L 311.00 897.10 L 328.70 886.20 L 335.70 881.40 L 345.10 873.80 L 351.40 867.20 L 354.00 863.60 L 355.60 860.20 L 356.60 857.10 L 356.90 854.10 L 356.90 835.20 L 356.60 838.20 L 355.60 841.60 L 354.00 845.40 L 351.40 849.60 L 348.60 853.40 L 340.80 861.60 L 335.70 866.20 L 328.60 871.70 L 320.40 877.40 L 310.90 883.20 L 303.00 887.60 L 287.10 895.20 L 271.00 901.30 L 255.50 905.90 L 241.40 908.70 L 234.50 909.40 L 228.30 909.70 L 222.80 909.50 L 218.70 908.90 L 215.10 908.10 L 209.40 905.80 L 206.80 904.00 L 204.80 901.90 L 203.10 899.50 L 202.00 896.80 L 201.30 893.90 L 201.00 890.60 Z" fill="#525566" fill-rule="nonzero" group-id="1,5" node-id="130" stroke="none" target-height="88.39996" target-width="155.9" target-x="201" target-y="835.2"></path><path d="M 240.00 842.00 L 228.90 849.10 L 220.20 856.30 L 215.00 861.50 L 210.80 866.50 L 207.40 871.30 L 205.20 875.20 L 202.30 882.30 L 201.10 888.90 L 201.10 892.00 L 201.50 894.90 L 202.20 897.50 L 203.40 900.00 L 205.00 902.20 L 207.00 904.10 L 209.40 905.80 L 215.10 908.10 L 222.80 909.50 L 228.30 909.70 L 234.50 909.40 L 241.40 908.70 L 248.20 907.50 L 263.30 903.80 L 278.90 898.50 L 295.10 891.50 L 303.00 887.60 L 318.30 878.80 L 330.70 870.10 L 341.10 861.40 L 348.90 853.00 L 351.70 849.20 L 354.20 844.90 L 355.80 841.20 L 356.70 837.80 L 356.90 834.70 L 356.60 832.30 L 355.80 830.10 L 354.50 828.10 L 352.70 826.20 L 350.30 824.50 L 347.30 823.00 L 343.50 821.80 L 334.10 820.10 L 328.80 819.70 L 316.70 819.80 L 303.30 821.10 L 289.30 823.50 L 282.00 825.30 L 267.60 829.60 L 253.40 835.10 L 240.00 842.00 Z" fill="#5b5e71" fill-rule="nonzero" group-id="1,6" node-id="135" stroke="none" target-height="90" target-width="155.79999" target-x="201.1" target-y="819.7"></path><path d="M 252.10 888.20 L 235.00 878.30 L 234.80 809.40 L 251.90 819.30 L 252.10 888.20 Z" fill="#bac1ce" fill-rule="nonzero" group-id="1,7" node-id="140" stroke="none" target-height="78.79999" target-width="17.300003" target-x="234.8" target-y="809.4"></path><path d="M 309.30 786.20 L 309.60 855.10 L 252.10 888.20 L 251.90 819.30 L 309.30 786.20 Z" fill="#cad0dd" fill-rule="nonzero" group-id="1,8" node-id="145" stroke="none" target-height="102" target-width="57.700012" target-x="251.9" target-y="786.2"></path><path d="M 200.00 848.40 L 298.70 791.10 L 316.30 802.70 L 217.60 860.00 L 200.00 848.40 Z" fill="#eaf0f6" fill-rule="nonzero" group-id="1,9" node-id="150" stroke="none" target-height="68.900024" target-width="116.29999" target-x="200" target-y="791.1"></path><path d="M 419.40 490.60 L 416.00 489.60 L 413.80 489.60 L 409.30 490.70 L 406.90 491.90 L 131.30 651.10 L 127.90 653.40 L 124.70 656.40 L 121.80 659.80 L 119.30 663.60 L 117.30 667.70 L 115.70 671.90 L 114.70 676.20 L 114.40 680.20 L 115.00 900.40 L 115.20 903.00 L 116.40 907.10 L 117.30 908.80 L 119.90 911.10 L 107.00 903.80 L 104.30 901.30 L 103.30 899.50 L 102.20 895.40 L 102.00 892.80 L 101.40 672.60 L 101.80 668.50 L 102.70 664.30 L 104.30 660.10 L 106.40 656.10 L 108.90 652.20 L 111.70 648.80 L 114.90 645.80 L 118.20 643.40 L 394.20 484.20 L 398.90 482.20 L 402.90 481.90 L 404.60 482.20 L 419.40 490.60 Z" fill="#4c7891" fill-rule="nonzero" group-id="1,10" node-id="155" stroke="none" target-height="429.19998" target-width="318" target-x="101.4" target-y="481.9"></path><path d="M 424.40 702.30 L 115.00 881.20 L 114.40 680.20 L 114.70 676.20 L 115.70 671.90 L 117.30 667.80 L 119.30 663.70 L 121.90 659.90 L 124.70 656.40 L 127.90 653.40 L 131.30 651.10 L 407.30 491.80 L 410.50 490.30 L 413.30 489.50 L 415.80 489.50 L 419.30 490.50 L 421.90 492.90 L 423.10 495.10 L 423.90 497.80 L 424.20 501.30 L 424.40 702.30 Z" fill="#37617b" fill-rule="nonzero" group-id="1,11" node-id="160" stroke="none" target-height="391.7" target-width="310" target-x="114.4" target-y="489.5"></path><path d="M 413.30 693.10 L 126.00 859.10 L 125.40 680.20 L 126.10 675.50 L 127.10 672.90 L 128.90 669.20 L 131.30 665.70 L 133.10 663.60 L 136.90 660.60 L 413.10 501.20 L 413.30 693.10 Z" fill="#ffffff" fill-rule="nonzero" group-id="1,12" node-id="165" stroke="none" target-height="357.89996" target-width="287.9" target-x="125.4" target-y="501.2"></path><path d="M 424.40 702.30 L 424.50 721.50 L 424.10 725.60 L 423.20 729.80 L 421.60 734.00 L 419.60 738.10 L 417.10 741.90 L 414.20 745.30 L 411.00 748.30 L 407.60 750.70 L 132.00 909.80 L 128.70 911.30 L 125.90 912.10 L 123.40 912.10 L 121.60 911.70 L 118.60 910.00 L 117.30 908.70 L 116.10 906.50 L 115.30 903.70 L 115.00 900.20 L 114.90 881.00 L 424.40 702.30 Z" fill="#e4e8f4" fill-rule="nonzero" group-id="1,13" node-id="170" stroke="none" target-height="209.79999" target-width="309.6" target-x="114.9" target-y="702.3"></path><path d="M 276.40 806.10 L 276.10 808.40 L 275.40 810.90 L 272.80 815.30 L 271.00 817.20 L 269.20 818.60 L 267.10 819.40 L 265.40 819.60 L 264.10 819.10 L 263.00 818.20 L 262.20 816.70 L 261.90 814.50 L 262.20 812.10 L 262.90 809.70 L 265.50 805.10 L 267.20 803.30 L 269.20 801.90 L 271.20 801.10 L 272.90 801.00 L 274.30 801.40 L 275.40 802.40 L 276.10 803.90 L 276.40 806.10 Z M 767.60 247.10 L 766.10 246.50 L 764.40 246.40 L 762.50 246.80 L 760.40 247.80 L 507.50 393.80 L 504.90 395.70 L 502.40 398.30 L 500.40 401.30 L 498.80 404.60 L 497.80 408.00 L 497.50 411.20 L 498.00 596.40 L 491.80 592.70 L 491.20 407.60 L 491.60 404.30 L 492.60 400.90 L 494.20 397.70 L 496.20 394.70 L 498.70 392.10 L 501.30 390.10 L 754.20 244.20 L 756.30 243.20 L 758.10 242.80 L 759.90 242.90 L 761.40 243.50 L 767.60 247.10 Z" fill="#bac1ce" fill-rule="nonzero" group-id="1,14" node-id="175" stroke="none" target-height="576.8" target-width="505.69998" target-x="261.9" target-y="242.8"></path><path d="M 760.40 247.80 L 764.00 246.50 L 766.90 246.80 L 768.10 247.40 L 769.90 249.80 L 770.50 253.60 L 771.10 438.70 L 498.00 596.40 L 497.50 411.20 L 498.10 406.90 L 498.80 404.60 L 500.40 401.30 L 502.40 398.30 L 504.90 395.70 L 507.50 393.80 L 760.40 247.80 Z" fill="#5b5e71" fill-rule="nonzero" group-id="1,15" node-id="180" stroke="none" target-height="349.90002" target-width="273.59998" target-x="497.5" target-y="246.5"></path><path d="M 509.90 411.20 L 510.00 410.10 L 511.20 407.50 L 512.90 405.20 L 513.80 404.50 L 758.10 263.40 L 758.60 431.50 L 510.40 574.80 L 509.90 411.20 Z" fill="#ffffff" fill-rule="nonzero" group-id="1,16" node-id="185" stroke="none" target-height="311.4" target-width="248.69998" target-x="509.9" target-y="263.4"></path><path d="M 498.00 596.40 L 498.10 613.20 L 658.10 698.10 L 661.10 699.40 L 664.60 700.20 L 668.20 700.50 L 671.80 700.20 L 675.30 699.40 L 678.30 698.10 L 931.10 552.10 L 933.00 550.80 L 934.30 549.40 L 935.10 547.80 L 935.40 546.20 L 935.30 537.60 L 935.00 539.10 L 934.20 540.70 L 933.00 542.10 L 931.10 543.40 L 678.20 689.40 L 675.20 690.70 L 671.80 691.50 L 668.10 691.80 L 664.50 691.50 L 661.10 690.70 L 658.10 689.40 L 498.00 596.40 Z" fill="#5b5e71" fill-rule="nonzero" group-id="1,17" node-id="190" stroke="none" target-height="162.90002" target-width="437.40002" target-x="498" target-y="537.6"></path><path d="M 498.00 596.30 L 658.10 689.40 L 661.10 690.70 L 664.50 691.50 L 668.10 691.80 L 671.80 691.50 L 675.20 690.70 L 678.20 689.40 L 931.10 543.40 L 932.80 542.20 L 934.80 539.60 L 935.20 538.20 L 934.80 535.40 L 932.90 532.90 L 931.20 531.70 L 771.10 438.70 L 498.00 596.30 Z" fill="#e4e8f4" fill-rule="nonzero" group-id="1,18" node-id="195" stroke="none" target-height="253.09998" target-width="437.2" target-x="498" target-y="438.7"></path><path d="M 725.60 606.50 L 757.00 624.60 L 759.10 625.50 L 761.30 625.80 L 763.50 625.50 L 765.60 624.60 L 814.90 595.90 L 816.10 594.90 L 816.80 593.70 L 817.00 592.30 L 816.80 590.80 L 816.10 589.50 L 814.90 588.50 L 783.50 570.40 L 781.40 569.50 L 779.20 569.20 L 777.00 569.50 L 774.80 570.40 L 725.60 599.10 L 724.30 600.10 L 723.60 601.30 L 723.30 602.70 L 723.60 604.20 L 724.30 605.50 L 725.60 606.50 Z M 581.70 628.30 L 581.30 628.80 L 581.70 629.30 L 595.40 637.30 L 596.20 637.50 L 597.10 637.30 L 626.40 620.30 L 626.80 619.90 L 626.40 619.30 L 612.70 611.40 L 611.80 611.20 L 611.00 611.40 L 581.70 628.30 Z M 615.80 608.60 L 615.40 609.10 L 615.80 609.60 L 629.50 617.60 L 630.40 617.80 L 631.20 617.60 L 645.10 609.50 L 645.50 609.10 L 645.10 608.60 L 631.40 600.60 L 629.70 600.60 L 615.80 608.60 Z M 590.70 603.10 L 590.40 603.60 L 590.70 604.10 L 604.50 612.10 L 605.30 612.30 L 606.20 612.00 L 620.10 604.00 L 620.40 603.50 L 620.10 603.10 L 606.40 595.10 L 605.50 594.90 L 604.60 595.10 L 590.70 603.10 Z M 572.60 560.20 L 572.20 560.70 L 572.60 561.20 L 579.50 565.20 L 580.40 565.40 L 581.20 565.20 L 594.70 557.50 L 595.10 557.00 L 594.70 556.40 L 587.80 552.40 L 586.10 552.40 L 572.60 560.20 Z M 554.50 570.70 L 554.10 571.10 L 554.50 571.60 L 561.40 575.70 L 562.30 575.90 L 563.20 575.70 L 576.60 567.90 L 577.00 567.40 L 576.60 566.90 L 569.60 562.90 L 568.80 562.70 L 568.00 562.90 L 554.50 570.70 Z M 518.30 591.60 L 517.90 592.10 L 518.20 592.60 L 525.20 596.60 L 526.10 596.80 L 526.90 596.60 L 540.40 588.80 L 540.80 588.30 L 540.40 587.80 L 533.40 583.80 L 532.60 583.60 L 531.70 583.80 L 518.30 591.60 Z M 536.40 581.10 L 536.00 581.60 L 536.40 582.10 L 543.30 586.10 L 544.20 586.40 L 545.00 586.20 L 558.50 578.40 L 558.90 577.90 L 558.50 577.40 L 551.50 573.30 L 550.70 573.10 L 549.90 573.30 L 536.40 581.10 Z M 555.90 583.30 L 555.50 583.80 L 555.90 584.20 L 569.60 592.20 L 570.50 592.40 L 571.30 592.20 L 585.20 584.20 L 585.60 583.70 L 585.20 583.20 L 571.50 575.20 L 570.60 575.00 L 569.80 575.20 L 555.90 583.30 Z M 529.90 598.30 L 529.50 598.80 L 529.80 599.30 L 543.50 607.30 L 544.40 607.50 L 545.30 607.30 L 567.30 594.50 L 567.70 594.10 L 567.30 593.50 L 553.60 585.60 L 552.70 585.40 L 551.90 585.60 L 529.90 598.30 Z M 558.60 601.70 L 558.20 602.20 L 558.60 602.70 L 572.30 610.60 L 573.10 610.80 L 574.00 610.60 L 587.90 602.60 L 588.30 602.10 L 587.90 601.60 L 574.20 593.60 L 573.40 593.40 L 572.50 593.70 L 558.60 601.70 Z M 547.10 608.30 L 546.70 608.80 L 547.10 609.30 L 560.80 617.30 L 561.60 617.50 L 562.50 617.30 L 570.30 612.80 L 570.70 612.30 L 570.30 611.80 L 556.60 603.80 L 555.70 603.60 L 554.90 603.80 L 547.10 608.30 Z M 564.40 618.30 L 564.10 618.80 L 564.40 619.30 L 578.20 627.30 L 579.00 627.50 L 579.80 627.30 L 601.00 615.00 L 601.40 614.50 L 601.10 614.00 L 587.30 606.10 L 586.50 605.80 L 585.60 606.10 L 564.40 618.30 Z M 663.20 507.90 L 662.80 508.40 L 663.20 508.90 L 670.10 512.90 L 671.00 513.20 L 671.80 513.00 L 685.30 505.20 L 685.60 504.70 L 685.30 504.20 L 678.30 500.10 L 677.50 499.90 L 676.60 500.10 L 663.20 507.90 Z M 590.70 549.70 L 590.30 550.30 L 590.70 550.70 L 597.60 554.80 L 598.50 555.00 L 599.40 554.80 L 612.90 547.00 L 613.20 546.50 L 612.80 546.00 L 605.90 542.00 L 604.20 542.00 L 590.70 549.70 Z M 716.70 490.40 L 716.30 491.00 L 716.60 491.40 L 730.30 499.40 L 731.20 499.60 L 732.10 499.40 L 746.00 491.40 L 746.30 490.90 L 745.90 490.40 L 732.20 482.40 L 731.40 482.20 L 730.50 482.40 L 716.70 490.40 Z M 746.60 493.10 L 746.20 493.60 L 746.60 494.10 L 760.30 502.10 L 761.10 502.30 L 762.00 502.10 L 775.90 494.10 L 776.30 493.60 L 775.90 493.10 L 762.20 485.10 L 761.40 484.90 L 760.50 485.10 L 746.60 493.10 Z M 681.30 497.50 L 680.90 498.00 L 681.30 498.40 L 688.20 502.50 L 689.10 502.70 L 689.90 502.50 L 703.40 494.70 L 703.70 494.20 L 703.40 493.70 L 696.40 489.70 L 695.60 489.50 L 694.70 489.70 L 681.30 497.50 Z M 698.80 500.80 L 698.40 501.30 L 698.80 501.70 L 712.50 509.70 L 713.30 509.90 L 714.20 509.70 L 728.10 501.70 L 728.50 501.20 L 728.10 500.70 L 714.40 492.70 L 713.50 492.50 L 712.70 492.70 L 698.80 500.80 Z M 727.80 504.00 L 727.40 504.50 L 727.80 505.00 L 741.50 513.00 L 742.40 513.20 L 743.20 512.90 L 757.10 504.90 L 757.50 504.40 L 757.20 503.90 L 743.40 495.90 L 742.60 495.80 L 741.70 496.00 L 727.80 504.00 Z M 759.20 505.80 L 758.80 506.30 L 759.20 506.80 L 772.90 514.80 L 773.70 515.00 L 774.60 514.80 L 788.50 506.80 L 788.90 506.30 L 788.60 505.80 L 774.80 497.80 L 773.90 497.60 L 773.10 497.80 L 759.20 505.80 Z M 680.90 511.10 L 680.50 511.60 L 680.90 512.10 L 694.60 520.00 L 695.50 520.30 L 696.40 520.00 L 710.20 512.00 L 710.60 511.50 L 710.20 511.00 L 696.50 503.10 L 695.70 502.90 L 694.80 503.10 L 680.90 511.10 Z M 709.00 514.80 L 708.60 515.30 L 709.00 515.80 L 722.70 523.80 L 723.60 524.00 L 724.40 523.80 L 738.30 515.80 L 738.70 515.30 L 738.30 514.80 L 724.60 506.80 L 723.80 506.60 L 722.90 506.80 L 709.00 514.80 Z M 740.50 516.60 L 740.10 517.10 L 740.50 517.60 L 754.20 525.60 L 755.10 525.80 L 755.90 525.60 L 769.80 517.60 L 770.20 517.10 L 769.80 516.60 L 756.10 508.60 L 755.20 508.40 L 754.40 508.60 L 740.50 516.60 Z M 663.00 521.40 L 662.70 521.90 L 663.00 522.40 L 676.80 530.30 L 677.60 530.60 L 678.50 530.40 L 692.40 522.30 L 692.70 521.80 L 692.40 521.30 L 678.70 513.40 L 677.00 513.40 L 663.00 521.40 Z M 766.10 521.80 L 765.80 522.30 L 766.10 522.80 L 779.90 530.70 L 780.70 531.00 L 781.60 530.80 L 795.50 522.70 L 795.80 522.30 L 795.50 521.70 L 781.70 513.80 L 780.90 513.60 L 780.00 513.80 L 766.10 521.80 Z M 802.00 521.10 L 801.70 521.60 L 802.00 522.10 L 818.30 531.50 L 819.20 531.70 L 820.00 531.50 L 833.10 524.00 L 833.40 523.50 L 833.10 523.00 L 816.70 513.50 L 815.90 513.30 L 815.00 513.50 L 802.00 521.10 Z M 626.90 528.80 L 626.60 529.30 L 626.90 529.80 L 633.90 533.90 L 634.70 534.10 L 635.60 533.90 L 649.10 526.10 L 649.40 525.60 L 649.00 525.10 L 642.10 521.10 L 641.20 520.90 L 640.40 521.10 L 626.90 528.80 Z M 690.20 525.70 L 689.80 526.20 L 690.20 526.70 L 703.90 534.70 L 704.70 534.90 L 705.60 534.70 L 719.50 526.60 L 719.90 526.10 L 719.50 525.60 L 705.80 517.70 L 704.10 517.70 L 690.20 525.70 Z M 721.70 527.40 L 721.40 527.90 L 721.80 528.40 L 735.50 536.40 L 736.30 536.60 L 737.20 536.40 L 751.10 528.40 L 751.40 527.90 L 751.10 527.40 L 737.40 519.40 L 736.50 519.20 L 735.70 519.40 L 721.70 527.40 Z M 645.20 531.70 L 644.80 532.20 L 645.20 532.70 L 658.90 540.70 L 659.80 540.90 L 660.60 540.70 L 674.50 532.70 L 674.90 532.20 L 674.50 531.60 L 660.80 523.70 L 659.90 523.50 L 659.10 523.70 L 645.20 531.70 Z M 785.70 530.50 L 785.30 531.00 L 785.70 531.50 L 802.00 541.00 L 802.80 541.20 L 803.70 541.00 L 816.70 533.40 L 817.10 533.00 L 816.70 532.50 L 800.40 523.00 L 799.60 522.80 L 798.70 523.00 L 785.70 530.50 Z M 747.30 532.60 L 747.00 533.10 L 747.30 533.60 L 761.10 541.60 L 761.90 541.80 L 762.80 541.60 L 776.70 533.60 L 777.00 533.10 L 776.70 532.60 L 763.00 524.60 L 762.10 524.40 L 761.20 524.60 L 747.30 532.60 Z M 608.80 539.30 L 608.50 539.80 L 608.80 540.30 L 615.80 544.30 L 616.60 544.50 L 617.50 544.30 L 631.00 536.50 L 631.30 536.10 L 630.90 535.50 L 624.00 531.50 L 623.10 531.30 L 622.30 531.50 L 608.80 539.30 Z M 671.40 536.60 L 671.00 537.00 L 671.40 537.50 L 685.10 545.50 L 686.80 545.50 L 700.70 537.50 L 701.10 537.00 L 700.70 536.50 L 687.00 528.50 L 686.20 528.30 L 685.30 528.50 L 671.40 536.60 Z M 703.00 538.30 L 702.70 538.70 L 703.10 539.20 L 716.80 547.20 L 717.60 547.40 L 718.40 547.20 L 732.40 539.20 L 732.70 538.70 L 732.40 538.20 L 718.70 530.20 L 717.80 530.00 L 716.90 530.20 L 703.00 538.30 Z M 627.30 542.00 L 627.00 542.50 L 627.30 543.00 L 641.00 551.00 L 641.90 551.20 L 642.80 551.00 L 656.70 542.90 L 657.00 542.50 L 656.60 542.00 L 642.90 534.00 L 642.10 533.80 L 641.20 534.00 L 627.30 542.00 Z M 728.50 543.50 L 728.20 544.00 L 728.50 544.50 L 742.30 552.40 L 743.10 552.70 L 744.00 552.50 L 757.90 544.40 L 758.30 544.00 L 757.90 543.40 L 744.20 535.50 L 743.30 535.30 L 742.50 535.50 L 728.50 543.50 Z M 652.60 547.40 L 652.20 547.90 L 652.60 548.40 L 666.30 556.40 L 667.20 556.60 L 668.00 556.40 L 681.90 548.30 L 682.30 547.80 L 681.90 547.30 L 668.20 539.40 L 667.40 539.20 L 666.50 539.40 L 652.60 547.40 Z M 684.30 549.00 L 684.00 549.70 L 684.30 550.10 L 698.00 558.00 L 698.90 558.20 L 699.80 558.00 L 713.60 550.00 L 714.00 549.50 L 713.60 549.00 L 699.90 541.00 L 699.10 540.80 L 698.20 541.00 L 684.30 549.00 Z M 609.50 552.30 L 609.10 552.80 L 609.50 553.30 L 623.20 561.30 L 624.10 561.50 L 624.90 561.30 L 638.80 553.30 L 639.20 552.80 L 638.80 552.30 L 625.10 544.30 L 624.20 544.10 L 623.40 544.30 L 609.50 552.30 Z M 709.80 554.40 L 709.40 554.80 L 709.70 555.30 L 723.50 563.30 L 724.30 563.50 L 725.20 563.30 L 739.10 555.30 L 739.50 554.80 L 739.10 554.30 L 725.40 546.30 L 724.50 546.10 L 723.70 546.30 L 709.80 554.40 Z M 633.80 558.30 L 633.40 558.80 L 633.80 559.20 L 647.50 567.20 L 648.40 567.40 L 649.20 567.20 L 663.10 559.20 L 663.50 558.70 L 663.10 558.20 L 649.40 550.20 L 648.60 550.00 L 647.70 550.20 L 633.80 558.30 Z M 665.60 559.90 L 665.20 560.40 L 665.60 560.90 L 679.30 568.80 L 680.20 569.00 L 681.00 568.80 L 694.90 560.80 L 695.30 560.30 L 695.00 559.80 L 681.20 551.80 L 680.40 551.60 L 679.50 551.80 L 665.60 559.90 Z M 591.60 562.60 L 591.20 563.10 L 591.60 563.60 L 605.30 571.60 L 606.20 571.80 L 607.00 571.60 L 621.00 563.60 L 621.30 563.10 L 620.90 562.60 L 607.20 554.60 L 605.50 554.60 L 591.60 562.60 Z M 691.00 565.20 L 690.60 565.70 L 691.00 566.20 L 704.70 574.20 L 705.50 574.40 L 706.40 574.20 L 720.30 566.10 L 720.70 565.70 L 720.30 565.10 L 706.60 557.20 L 705.70 557.00 L 704.90 557.20 L 691.00 565.20 Z M 615.00 569.10 L 614.70 569.60 L 615.00 570.10 L 628.70 578.10 L 629.60 578.30 L 630.40 578.10 L 644.30 570.00 L 644.70 569.50 L 644.30 569.10 L 630.60 561.10 L 629.80 560.90 L 628.90 561.10 L 615.00 569.10 Z M 646.90 570.70 L 646.50 571.10 L 646.90 571.70 L 660.60 579.60 L 661.50 579.80 L 662.30 579.60 L 676.20 571.60 L 676.60 571.10 L 676.20 570.60 L 662.50 562.60 L 661.60 562.40 L 660.80 562.60 L 646.90 570.70 Z M 573.80 572.90 L 573.40 573.40 L 573.80 573.90 L 587.50 581.90 L 588.30 582.10 L 589.20 581.90 L 603.10 573.90 L 603.40 573.40 L 603.10 572.90 L 589.40 564.90 L 588.50 564.70 L 587.60 564.90 L 573.80 572.90 Z M 672.20 576.10 L 671.80 576.50 L 672.20 577.00 L 685.90 585.00 L 686.70 585.20 L 687.60 585.00 L 701.50 577.00 L 701.90 576.50 L 701.50 576.00 L 687.80 568.00 L 686.90 567.80 L 686.10 568.00 L 672.20 576.10 Z M 596.20 580.00 L 595.90 580.50 L 596.20 580.90 L 609.90 588.90 L 610.80 589.10 L 611.60 588.90 L 625.50 580.90 L 625.90 580.40 L 625.50 579.90 L 611.80 571.90 L 610.90 571.70 L 610.10 572.00 L 596.20 580.00 Z M 628.20 581.50 L 627.80 582.00 L 628.20 582.50 L 641.90 590.40 L 642.80 590.60 L 643.60 590.40 L 657.50 582.40 L 657.90 581.90 L 657.50 581.40 L 643.80 573.50 L 642.90 573.20 L 642.10 573.40 L 628.20 581.50 Z M 653.40 586.90 L 653.00 587.40 L 653.40 587.90 L 667.10 595.90 L 667.90 596.10 L 668.80 595.90 L 682.70 587.80 L 683.10 587.40 L 682.70 586.80 L 669.00 578.90 L 668.10 578.70 L 667.30 578.90 L 653.40 586.90 Z M 688.20 586.80 L 687.80 587.30 L 688.10 587.80 L 704.50 597.30 L 705.30 597.50 L 706.20 597.30 L 800.40 542.90 L 800.70 542.40 L 800.40 541.90 L 784.10 532.40 L 782.40 532.40 L 688.20 586.80 Z M 577.40 590.80 L 577.00 591.30 L 577.40 591.80 L 591.10 599.80 L 592.00 600.00 L 592.80 599.80 L 606.70 591.80 L 607.10 591.30 L 606.70 590.80 L 593.00 582.80 L 592.20 582.60 L 591.30 582.80 L 577.40 590.80 Z M 609.40 592.30 L 609.10 592.80 L 609.50 593.30 L 623.20 601.30 L 624.00 601.50 L 624.90 601.30 L 638.80 593.20 L 639.10 592.70 L 638.80 592.20 L 625.10 584.30 L 624.20 584.00 L 623.40 584.20 L 609.40 592.30 Z M 634.60 597.70 L 634.20 598.30 L 634.60 598.70 L 648.30 606.70 L 649.20 606.90 L 650.00 606.70 L 663.90 598.70 L 664.30 598.20 L 663.90 597.70 L 650.20 589.70 L 649.30 589.50 L 648.50 589.70 L 634.60 597.70 Z M 670.40 597.00 L 670.00 597.60 L 670.40 598.00 L 686.70 607.50 L 687.60 607.70 L 688.50 607.50 L 701.50 600.00 L 701.80 599.50 L 701.50 599.00 L 685.20 589.50 L 684.30 589.30 L 683.50 589.50 L 670.40 597.00 Z M 784.10 471.50 L 783.80 472.00 L 784.10 472.40 L 797.90 480.40 L 798.70 480.60 L 799.50 480.40 L 811.40 473.60 L 811.80 473.10 L 811.40 472.60 L 797.70 464.60 L 796.90 464.40 L 796.00 464.60 L 784.10 471.50 Z M 796.10 484.50 L 795.70 485.00 L 796.10 485.50 L 809.80 493.50 L 810.70 493.70 L 811.60 493.50 L 828.70 483.60 L 829.00 483.10 L 828.70 482.60 L 814.90 474.60 L 814.10 474.40 L 813.20 474.60 L 796.10 484.50 Z M 777.90 495.00 L 777.50 495.50 L 777.90 496.00 L 791.60 504.00 L 792.50 504.20 L 793.30 504.00 L 807.20 496.00 L 807.60 495.50 L 807.20 495.00 L 793.50 487.00 L 792.70 486.80 L 791.80 487.00 L 777.90 495.00 Z M 803.20 500.40 L 802.80 500.90 L 803.20 501.40 L 816.90 509.40 L 817.80 509.60 L 818.60 509.40 L 845.90 493.60 L 846.30 493.10 L 845.90 492.60 L 832.20 484.60 L 831.30 484.50 L 830.50 484.60 L 803.20 500.40 Z M 784.90 510.90 L 784.60 511.40 L 784.90 511.90 L 798.70 519.90 L 799.50 520.10 L 800.40 519.90 L 814.30 511.90 L 814.60 511.40 L 814.30 510.90 L 800.50 502.90 L 799.70 502.70 L 798.80 502.90 L 784.90 510.90 Z M 699.40 487.00 L 699.00 487.50 L 699.40 488.00 L 706.30 492.00 L 707.20 492.30 L 708.00 492.10 L 721.50 484.30 L 721.90 483.80 L 721.50 483.20 L 714.60 479.20 L 713.70 479.00 L 712.80 479.20 L 699.40 487.00 Z M 735.60 466.10 L 735.20 466.60 L 735.60 467.10 L 742.50 471.10 L 743.40 471.30 L 744.30 471.10 L 757.70 463.30 L 758.10 462.90 L 757.70 462.30 L 750.80 458.30 L 749.90 458.10 L 749.10 458.30 L 735.60 466.10 Z M 752.30 469.80 L 752.00 470.30 L 752.30 470.80 L 766.10 478.80 L 766.90 479.00 L 767.80 478.80 L 781.70 470.80 L 782.00 470.30 L 781.70 469.80 L 767.90 461.80 L 767.10 461.60 L 766.30 461.80 L 752.30 469.80 Z M 717.50 476.50 L 717.10 477.10 L 717.50 477.50 L 724.40 481.60 L 725.30 481.80 L 726.20 481.60 L 739.60 473.80 L 740.00 473.30 L 739.60 472.80 L 732.70 468.80 L 731.80 468.60 L 731.00 468.80 L 717.50 476.50 Z M 734.50 480.10 L 734.10 480.60 L 734.50 481.10 L 748.20 489.10 L 749.10 489.30 L 749.90 489.10 L 763.80 481.10 L 764.20 480.60 L 763.80 480.10 L 750.10 472.10 L 749.20 471.90 L 748.40 472.10 L 734.50 480.10 Z M 765.40 482.30 L 765.10 482.80 L 765.40 483.20 L 779.10 491.20 L 780.00 491.40 L 780.80 491.20 L 794.70 483.20 L 795.10 482.70 L 794.70 482.20 L 781.00 474.20 L 780.20 474.00 L 779.30 474.30 L 765.40 482.30 Z M 771.00 459.10 L 770.60 459.60 L 771.00 460.10 L 784.70 468.00 L 785.50 468.30 L 786.40 468.10 L 794.20 463.60 L 794.50 463.10 L 794.20 462.60 L 780.40 454.60 L 779.60 454.40 L 778.80 454.60 L 771.00 459.10 Z M 753.70 455.60 L 753.30 456.10 L 753.70 456.60 L 760.70 460.70 L 761.50 460.90 L 762.40 460.70 L 775.80 452.90 L 776.20 452.40 L 775.80 451.90 L 768.90 447.90 L 768.00 447.70 L 767.20 447.90 L 753.70 455.60 Z M 834.70 502.20 L 834.30 502.70 L 834.70 503.20 L 851.00 512.70 L 851.90 512.90 L 852.70 512.70 L 865.80 505.10 L 866.10 504.70 L 865.80 504.20 L 849.40 494.70 L 848.60 494.50 L 847.70 494.70 L 834.70 502.20 Z M 818.40 511.60 L 818.00 512.10 L 818.40 512.60 L 834.70 522.10 L 836.40 522.10 L 849.40 514.60 L 849.80 514.10 L 849.40 513.60 L 833.10 504.10 L 832.20 503.90 L 831.40 504.10 L 818.40 511.60 Z M 629.00 634.10 L 628.60 634.60 L 629.00 635.00 L 634.00 638.00 L 634.80 638.20 L 635.70 638.00 L 648.80 630.40 L 649.10 629.90 L 648.80 629.40 L 643.70 626.50 L 642.90 626.30 L 642.00 626.50 L 629.00 634.10 Z M 617.70 627.50 L 617.30 628.00 L 617.70 628.50 L 622.70 631.40 L 623.60 631.60 L 624.40 631.40 L 637.50 623.90 L 637.80 623.40 L 637.50 622.90 L 632.40 619.90 L 631.60 619.80 L 630.80 619.90 L 617.70 627.50 Z M 635.60 617.20 L 635.20 617.60 L 635.60 618.10 L 651.90 627.60 L 652.80 627.80 L 653.60 627.60 L 666.70 620.10 L 667.00 619.60 L 666.70 619.10 L 650.40 609.60 L 649.50 609.40 L 648.60 609.60 L 635.60 617.20 Z M 653.00 607.10 L 652.60 607.60 L 653.00 608.10 L 669.30 617.60 L 670.20 617.80 L 671.00 617.60 L 684.10 610.10 L 684.40 609.60 L 684.10 609.10 L 667.80 599.60 L 666.90 599.40 L 666.00 599.60 L 653.00 607.10 Z M 598.90 638.30 L 598.60 638.80 L 598.90 639.30 L 615.30 648.80 L 616.10 649.00 L 616.90 648.80 L 630.00 641.30 L 630.30 640.80 L 630.00 640.30 L 613.70 630.80 L 612.80 630.60 L 612.00 630.80 L 598.90 638.30 Z M 645.10 518.40 L 644.70 518.90 L 645.00 519.40 L 652.00 523.40 L 652.90 523.60 L 653.70 523.40 L 667.20 515.60 L 667.50 515.10 L 667.20 514.60 L 660.20 510.60 L 659.40 510.40 L 658.50 510.60 L 645.10 518.40 Z" fill="#bac1ce" fill-rule="nonzero" group-id="1,19" node-id="200" stroke="none" target-height="201.29999" target-width="348.19995" target-x="517.9" target-y="447.7"></path><path d="M 635.30 395.20 L 636.30 394.90 L 637.10 395.20 L 659.10 417.10 L 678.20 389.30 L 680.20 387.80 L 681.60 388.30 L 690.70 406.20 L 710.60 369.70 L 712.40 367.90 L 714.10 367.90 L 730.60 382.50 L 731.00 384.20 L 730.80 385.30 L 729.60 387.20 L 727.80 388.10 L 727.00 387.80 L 712.20 374.60 L 691.70 412.00 L 690.00 413.80 L 689.60 414.00 L 687.90 413.50 L 678.70 395.20 L 660.00 422.30 L 658.40 423.80 L 656.90 423.70 L 633.40 400.40 L 633.10 399.80 L 633.40 397.60 L 634.00 396.40 L 635.30 395.20 Z" fill="#5b5e71" fill-rule="nonzero" group-id="1,20" node-id="205" stroke="none" target-height="55.899994" target-width="97.900024" target-x="633.1" target-y="367.9"></path><path d="M 620.30 373.90 L 743.50 302.70 L 743.80 412.80 L 620.60 483.90 L 620.30 373.90 Z M 730.20 386.40 L 731.00 384.20 L 730.60 382.50 L 714.10 367.90 L 712.40 367.90 L 710.60 369.70 L 690.70 406.20 L 681.60 388.40 L 680.20 387.80 L 678.20 389.30 L 659.10 417.10 L 637.10 395.20 L 636.30 394.90 L 635.30 395.20 L 634.00 396.40 L 633.10 398.70 L 633.40 400.40 L 656.80 423.70 L 658.40 423.80 L 660.00 422.30 L 678.70 395.20 L 687.90 413.50 L 689.60 414.00 L 690.00 413.80 L 691.70 412.00 L 712.20 374.60 L 727.00 387.90 L 727.70 388.10 L 728.70 387.80 L 730.20 386.40 Z" fill="#9ad898" fill-rule="nonzero" group-id="1,21" node-id="210" stroke="none" target-height="181.19998" target-width="123.5" target-x="620.3" target-y="302.7"></path><path d="M 577.70 483.00 L 577.70 491.80 L 523.40 523.10 L 523.40 514.30 L 577.70 483.00 Z M 577.70 499.80 L 577.80 508.60 L 523.40 540.00 L 523.40 531.20 L 577.70 499.80 Z" fill="#f9607f" fill-rule="nonzero" group-id="1,22" node-id="215" stroke="none" target-height="57" target-width="54.399963" target-x="523.4" target-y="483"></path><path d="M 605.80 449.80 L 605.90 458.50 L 523.30 506.20 L 523.30 497.50 L 605.80 449.80 Z M 605.80 433.00 L 605.80 441.70 L 523.30 489.30 L 523.30 480.60 L 605.80 433.00 Z M 605.70 416.00 L 605.80 424.80 L 523.20 472.50 L 523.20 463.70 L 605.70 416.00 Z M 605.70 399.20 L 605.70 408.00 L 523.20 455.60 L 523.20 446.80 L 605.70 399.20 Z M 605.60 382.30 L 605.70 391.10 L 523.10 438.80 L 523.10 430.00 L 605.60 382.30 Z" fill="#d4dae8" fill-rule="nonzero" group-id="1,23" node-id="220" stroke="none" target-height="123.900024" target-width="82.80005" target-x="523.1" target-y="382.3"></path><path d="M 728.20 378.90 L 730.10 378.20 L 731.60 378.00 L 732.90 378.50 L 733.90 379.30 L 734.60 380.70 L 734.90 382.80 L 734.70 385.00 L 732.90 389.50 L 730.00 393.20 L 728.20 394.50 L 726.20 395.30 L 724.70 395.40 L 723.40 395.00 L 722.40 394.10 L 721.70 392.70 L 721.50 390.50 L 721.70 388.40 L 723.40 383.90 L 726.40 380.20 L 728.20 378.90 Z" fill="#ffffff" fill-rule="nonzero" group-id="1,24" node-id="225" stroke="none" target-height="17.399994" target-width="13.400024" target-x="721.5" target-y="378"></path><path d="M 712.30 364.60 L 714.10 363.80 L 715.50 363.70 L 716.70 364.10 L 717.70 365.00 L 718.30 366.20 L 718.60 368.20 L 718.40 370.20 L 717.70 372.30 L 715.50 376.20 L 714.00 377.80 L 712.30 379.00 L 710.50 379.70 L 709.10 379.80 L 707.90 379.50 L 707.00 378.60 L 706.30 377.40 L 706.10 375.40 L 706.30 373.40 L 707.90 369.20 L 710.70 365.80 L 712.30 364.60 Z" fill="#fed57a" fill-rule="nonzero" group-id="1,25" node-id="230" stroke="none" target-height="16.099976" target-width="12.5" target-x="706.1" target-y="363.7"></path><path d="M 690.60 405.50 L 692.40 404.70 L 693.90 404.60 L 695.00 405.00 L 696.00 405.90 L 696.60 407.10 L 696.90 409.10 L 696.10 413.20 L 693.80 417.10 L 692.30 418.70 L 690.70 419.90 L 688.90 420.60 L 687.40 420.70 L 686.20 420.30 L 685.30 419.50 L 684.70 418.20 L 684.40 416.30 L 684.60 414.30 L 686.20 410.10 L 689.00 406.70 L 690.60 405.50 Z" fill="#f9607f" fill-rule="nonzero" group-id="1,26" node-id="235" stroke="none" target-height="16.100006" target-width="12.5" target-x="684.4" target-y="404.6"></path><path d="M 680.60 384.50 L 682.40 383.70 L 683.80 383.60 L 685.00 384.00 L 686.00 384.80 L 686.60 386.10 L 686.90 388.00 L 686.70 390.10 L 685.10 394.20 L 682.30 397.70 L 680.70 398.90 L 678.80 399.60 L 677.40 399.70 L 676.20 399.30 L 675.30 398.50 L 674.60 397.20 L 674.40 395.30 L 674.60 393.20 L 676.20 389.10 L 679.00 385.70 L 680.60 384.50 Z" fill="#576cfb" fill-rule="nonzero" group-id="1,27" node-id="240" stroke="none" target-height="16.100006" target-width="12.5" target-x="674.4" target-y="383.6"></path><path d="M 658.60 414.60 L 660.40 413.90 L 661.80 413.80 L 663.00 414.20 L 663.90 415.00 L 664.60 416.30 L 664.80 418.20 L 664.60 420.20 L 664.00 422.30 L 661.80 426.20 L 660.20 427.80 L 658.60 429.00 L 656.70 429.80 L 655.30 429.90 L 654.10 429.50 L 653.10 428.70 L 652.50 427.40 L 652.20 425.50 L 652.40 423.50 L 654.10 419.30 L 656.90 415.80 L 658.60 414.60 Z" fill="#fed57a" fill-rule="nonzero" group-id="1,28" node-id="245" stroke="none" target-height="16.100006" target-width="12.599976" target-x="652.2" target-y="413.8"></path><path d="M 634.50 390.40 L 636.30 389.70 L 637.70 389.60 L 638.90 390.00 L 639.90 390.80 L 640.50 392.10 L 640.80 394.00 L 640.60 396.00 L 639.00 400.10 L 636.20 403.60 L 634.50 404.80 L 632.70 405.60 L 631.20 405.70 L 630.00 405.30 L 629.10 404.50 L 628.40 403.20 L 628.20 401.30 L 628.40 399.30 L 629.00 397.20 L 631.30 393.30 L 634.50 390.40 Z" fill="#ffffff" fill-rule="nonzero" group-id="1,29" node-id="250" stroke="none" target-height="16.100006" target-width="12.599976" target-x="628.2" target-y="389.6"></path><path d="M 487.70 41.90 L 522.50 62.20 L 519.10 60.50 L 515.60 59.10 L 511.80 58.10 L 507.80 57.50 L 503.60 57.30 L 498.40 57.50 L 492.80 58.40 L 487.00 60.00 L 480.70 62.30 L 445.80 42.00 L 452.10 39.70 L 458.00 38.20 L 463.50 37.30 L 468.70 37.00 L 473.00 37.20 L 477.00 37.90 L 480.70 38.80 L 484.30 40.20 L 487.70 41.90 Z" fill="#bac1ce" fill-rule="nonzero" group-id="1,30" node-id="255" stroke="none" target-height="25.3" target-width="76.70001" target-x="445.8" target-y="37"></path><path d="M 427.30 16.70 L 462.10 37.00 L 458.70 35.20 L 455.10 33.90 L 451.20 32.80 L 447.10 32.20 L 443.10 32.00 L 434.20 32.70 L 424.80 35.10 L 415.00 39.20 L 404.90 45.00 L 400.10 48.30 L 390.70 56.00 L 382.00 64.60 L 347.10 44.30 L 355.80 35.70 L 365.20 28.10 L 370.00 24.70 L 380.20 18.90 L 390.00 14.80 L 399.40 12.50 L 408.20 11.70 L 412.30 12.00 L 416.40 12.60 L 420.20 13.60 L 423.90 15.00 L 427.30 16.70 Z M 142.30 403.50 L 107.50 383.30 L 104.20 381.10 L 101.20 378.50 L 98.40 375.40 L 96.00 371.90 L 93.70 367.80 L 92.00 363.70 L 90.60 359.10 L 89.60 354.10 L 88.90 348.50 L 88.60 342.30 L 88.90 334.90 L 89.80 327.30 L 91.30 319.60 L 93.20 311.90 L 95.70 304.10 L 98.70 296.40 L 102.20 288.80 L 106.00 281.40 L 110.20 274.10 L 114.90 267.10 L 119.80 260.40 L 125.00 254.10 L 130.60 248.10 L 136.40 242.60 L 142.30 237.70 L 177.20 257.90 L 171.20 262.90 L 165.50 268.40 L 159.90 274.40 L 154.70 280.70 L 149.70 287.40 L 145.10 294.40 L 140.90 301.60 L 137.00 309.10 L 133.60 316.60 L 130.60 324.40 L 128.10 332.10 L 126.10 339.80 L 124.70 347.60 L 123.80 355.20 L 123.50 362.50 L 123.80 368.70 L 124.50 374.30 L 125.50 379.40 L 126.90 384.00 L 128.60 388.10 L 130.80 392.10 L 133.30 395.70 L 136.00 398.70 L 139.00 401.30 L 142.30 403.50 Z" fill="#d4dae8" fill-rule="nonzero" group-id="1,31" node-id="260" stroke="none" target-height="391.8" target-width="373.5" target-x="88.6" target-y="11.7"></path><path d="M 371.40 56.50 L 367.10 54.30 L 362.70 52.40 L 358.00 51.00 L 353.20 49.90 L 348.10 49.10 L 341.80 48.80 L 335.10 49.10 L 328.20 50.00 L 320.80 51.60 L 313.70 53.70 L 306.30 56.50 L 298.50 60.00 L 290.40 64.40 L 282.80 69.00 L 275.30 74.20 L 268.00 79.90 L 260.70 86.10 L 253.70 92.60 L 246.90 99.50 L 240.30 106.80 L 233.90 114.40 L 222.00 130.50 L 211.20 147.60 L 206.20 156.50 L 197.30 174.50 L 189.90 193.10 L 186.80 202.50 L 181.80 221.10 L 179.90 230.50 L 178.50 239.80 L 177.60 248.90 L 177.20 257.80 L 142.30 237.50 L 142.70 228.60 L 143.60 219.50 L 145.00 210.20 L 146.90 200.80 L 151.90 182.20 L 158.60 163.40 L 166.70 145.10 L 176.30 127.30 L 187.10 110.20 L 199.00 94.10 L 205.50 86.50 L 212.10 79.20 L 218.80 72.30 L 225.80 65.80 L 233.10 59.60 L 240.50 53.90 L 247.90 48.70 L 255.50 44.10 L 263.70 39.70 L 271.40 36.20 L 278.90 33.40 L 286.00 31.30 L 293.40 29.70 L 300.40 28.80 L 307.00 28.50 L 313.40 28.80 L 318.50 29.60 L 323.30 30.70 L 327.90 32.10 L 332.30 34.00 L 336.50 36.20 L 371.40 56.50 Z" fill="#bac1ce" fill-rule="nonzero" group-id="1,32" node-id="265" stroke="none" target-height="229.29999" target-width="229.09999" target-x="142.3" target-y="28.5"></path><path d="M 290.50 64.50 L 298.30 60.30 L 305.70 56.80 L 312.90 54.10 L 319.70 51.90 L 326.20 50.40 L 333.10 49.30 L 339.60 48.90 L 345.80 49.00 L 351.70 49.60 L 357.30 50.80 L 362.80 52.50 L 368.00 54.80 L 373.00 57.50 L 377.60 60.80 L 382.00 64.60 L 390.70 56.00 L 400.10 48.30 L 409.80 42.00 L 416.30 38.60 L 422.40 35.90 L 428.20 34.00 L 433.70 32.80 L 439.50 32.10 L 444.80 32.00 L 449.80 32.60 L 454.50 33.70 L 459.00 35.40 L 463.20 37.60 L 467.00 40.40 L 470.60 43.80 L 473.60 47.50 L 476.30 51.80 L 478.70 56.70 L 480.70 62.30 L 486.30 60.20 L 491.50 58.70 L 496.50 57.80 L 501.20 57.30 L 505.60 57.30 L 510.20 57.80 L 514.40 58.80 L 518.40 60.20 L 522.20 62.00 L 525.70 64.30 L 528.90 66.90 L 531.80 70.00 L 534.50 73.50 L 536.90 77.50 L 539.10 82.00 L 540.70 86.50 L 542.10 91.50 L 543.10 96.90 L 543.70 102.90 L 544.00 109.40 L 543.80 116.40 L 543.10 123.50 L 542.00 130.80 L 540.30 138.20 L 536.00 152.80 L 530.00 167.40 L 525.30 176.80 L 520.00 185.90 L 514.20 194.80 L 509.50 201.20 L 499.50 213.00 L 494.10 218.40 L 488.50 223.50 L 482.70 228.20 L 476.80 232.40 L 470.90 236.10 L 188.50 399.10 L 182.90 402.00 L 177.70 404.30 L 172.70 406.00 L 167.90 407.10 L 163.40 407.80 L 158.70 407.90 L 154.30 407.60 L 150.20 406.80 L 146.40 405.50 L 142.80 403.80 L 139.40 401.60 L 136.30 399.00 L 133.50 396.00 L 131.00 392.40 L 128.70 388.30 L 127.00 384.20 L 125.60 379.60 L 124.50 374.50 L 123.80 368.80 L 123.50 362.50 L 123.80 355.20 L 124.70 347.60 L 126.10 339.80 L 128.10 332.10 L 130.60 324.40 L 133.60 316.60 L 137.00 309.10 L 140.90 301.60 L 145.10 294.40 L 149.70 287.40 L 154.70 280.70 L 159.90 274.40 L 165.50 268.40 L 171.20 262.90 L 177.20 257.90 L 177.60 249.00 L 178.50 239.90 L 179.90 230.60 L 181.70 221.10 L 186.70 202.50 L 189.90 193.20 L 197.30 174.60 L 206.20 156.50 L 216.50 139.00 L 227.80 122.40 L 240.40 106.80 L 247.00 99.60 L 253.80 92.70 L 260.70 86.20 L 268.00 80.00 L 275.40 74.30 L 282.90 69.10 L 290.50 64.50 Z" fill="#e4e8f4" fill-rule="nonzero" group-id="1,33" node-id="270" stroke="none" target-height="375.9" target-width="420.5" target-x="123.5" target-y="32"></path><path d="M 204.40 767.70 L 205.50 768.30 L 205.50 791.20 L 204.50 793.00 L 184.50 804.50 L 183.50 803.90 L 183.40 781.00 L 184.40 779.20 L 204.40 767.70 Z" fill="#75ca75" fill-rule="nonzero" group-id="1,34" node-id="275" stroke="none" target-height="36.799988" target-width="22.100006" target-x="183.4" target-y="767.7"></path><path d="M 238.80 747.80 L 240.00 748.30 L 240.00 771.30 L 238.90 773.10 L 219.00 784.60 L 217.90 784.00 L 217.90 761.10 L 218.90 759.30 L 238.80 747.80 Z" fill="#576cfb" fill-rule="nonzero" group-id="1,35" node-id="280" stroke="none" target-height="36.799988" target-width="22.100006" target-x="217.9" target-y="747.8"></path><path d="M 330.60 665.30 L 330.60 673.00 L 148.80 777.90 L 148.80 770.20 L 330.60 665.30 Z M 348.80 624.10 L 348.80 631.80 L 148.80 747.30 L 148.70 739.60 L 348.80 624.10 Z M 298.80 622.20 L 298.80 629.90 L 148.70 716.60 L 148.60 708.90 L 298.80 622.20 Z M 348.60 562.80 L 348.60 570.50 L 148.60 686.00 L 148.50 678.30 L 348.60 562.80 Z" fill="#e4e8f4" fill-rule="nonzero" group-id="1,36" node-id="285" stroke="none" target-height="215.10004" target-width="200.29999" target-x="148.5" target-y="562.8"></path><path d="M 170.00 787.60 L 171.00 788.20 L 171.10 811.10 L 170.00 812.90 L 150.00 824.40 L 149.00 823.90 L 148.90 800.90 L 149.90 799.20 L 170.00 787.60 Z" fill="#fa5168" fill-rule="nonzero" group-id="1,37" node-id="290" stroke="none" target-height="36.80005" target-width="22.200012" target-x="148.9" target-y="787.6"></path><path d="M 525.30 834.80 L 555.10 817.50 L 555.10 815.10 L 525.30 832.40 L 525.30 834.80 Z M 583.40 801.40 L 613.20 784.10 L 613.20 781.70 L 583.40 799.00 L 583.40 801.40 Z" fill="#416e84" fill-rule="nonzero" group-id="1,38" node-id="295" stroke="none" target-height="53.099976" target-width="87.900024" target-x="525.3" target-y="781.7"></path><path d="M 905.70 810.90 L 905.50 831.70 L 904.20 834.50 L 903.20 835.80 L 900.00 838.20 L 606.20 1009.00 L 600.60 1011.30 L 594.10 1012.20 L 587.50 1011.90 L 584.20 1011.20 L 578.60 1009.00 L 417.90 916.00 L 415.40 913.50 L 414.10 910.70 L 414.10 889.70 L 414.70 892.60 L 415.50 894.00 L 417.20 896.00 L 419.80 897.80 L 578.70 989.50 L 584.30 991.80 L 587.50 992.50 L 594.10 992.80 L 597.40 992.50 L 600.60 991.80 L 606.20 989.50 L 900.10 818.80 L 902.60 817.00 L 904.30 815.10 L 905.10 813.70 L 905.70 810.90 Z" fill="#5b5e71" fill-rule="nonzero" group-id="1,39" node-id="300" stroke="none" target-height="201.29999" target-width="491.6" target-x="414.1" target-y="810.9"></path><path d="M 900.00 802.80 L 902.30 804.50 L 904.00 806.20 L 905.10 807.90 L 905.60 809.90 L 905.70 811.70 L 905.10 813.70 L 904.10 815.40 L 902.50 817.10 L 900.10 818.80 L 606.20 989.50 L 600.60 991.80 L 594.10 992.80 L 587.50 992.50 L 584.30 991.80 L 578.70 989.50 L 419.80 897.80 L 417.40 896.20 L 415.80 894.50 L 414.70 892.70 L 414.10 890.80 L 414.10 888.90 L 414.70 887.00 L 415.70 885.30 L 417.30 883.60 L 419.70 881.90 L 713.60 711.10 L 719.20 708.80 L 725.70 707.80 L 732.30 708.20 L 735.50 708.90 L 741.10 711.10 L 900.00 802.80 Z" fill="#474b59" fill-rule="nonzero" group-id="1,40" node-id="305" stroke="none" target-height="285" target-width="491.6" target-x="414.1" target-y="707.8"></path><path d="M 881.70 818.30 L 605.30 978.90 L 600.00 981.00 L 597.00 981.70 L 593.90 982.00 L 587.70 981.70 L 584.70 981.10 L 579.40 979.00 L 438.10 897.40 L 435.90 895.80 L 434.30 894.20 L 433.30 892.50 L 432.80 890.70 L 432.80 889.00 L 433.30 887.20 L 434.30 885.50 L 435.80 883.90 L 438.00 882.40 L 714.50 721.80 L 719.80 719.60 L 722.80 719.00 L 725.90 718.70 L 732.10 719.00 L 737.90 720.50 L 779.40 744.30 L 774.20 747.40 L 772.70 748.60 L 771.90 749.80 L 771.60 751.00 L 771.90 752.20 L 772.70 753.40 L 774.20 754.60 L 824.80 783.80 L 826.60 784.60 L 828.80 785.10 L 833.30 785.10 L 835.40 784.60 L 837.30 783.80 L 842.50 780.70 L 881.70 803.30 L 883.90 804.90 L 885.50 806.50 L 886.40 808.10 L 887.00 809.90 L 887.00 811.70 L 886.40 813.50 L 885.50 815.10 L 883.90 816.70 L 881.70 818.30 Z" fill="#ffffff" fill-rule="nonzero" group-id="1,41" node-id="310" stroke="none" target-height="263.3" target-width="454.2" target-x="432.8" target-y="718.7"></path><path d="M 834.10 776.80 L 830.90 778.70 L 783.10 751.00 L 786.20 749.20 L 834.10 776.80 Z" fill="#5b5e71" fill-rule="nonzero" group-id="1,42" node-id="315" stroke="none" target-height="29.5" target-width="51" target-x="783.1" target-y="749.2"></path><path d="M 857.40 816.90 L 757.50 875.00 L 617.00 793.90 L 716.90 735.80 L 857.40 816.90 Z" fill="#f9607f" fill-rule="nonzero" group-id="1,43" node-id="320" stroke="none" target-height="139.20001" target-width="240.40002" target-x="617" target-y="735.8"></path><path d="M 745.60 881.90 L 742.60 883.60 L 602.10 802.50 L 605.20 800.80 L 745.60 881.90 Z M 734.90 888.10 L 731.90 889.80 L 591.40 808.80 L 594.40 807.00 L 734.90 888.10 Z M 724.10 894.40 L 721.20 896.10 L 580.70 815.00 L 583.60 813.30 L 724.10 894.40 Z M 713.40 900.60 L 710.40 902.40 L 569.90 821.30 L 572.90 819.50 L 713.40 900.60 Z" fill="#cad0dd" fill-rule="nonzero" group-id="1,44" node-id="325" stroke="none" target-height="101.60004" target-width="175.69995" target-x="569.9" target-y="800.8"></path><path d="M 574.30 884.40 L 513.40 919.80 L 456.70 887.10 L 517.60 851.70 L 574.30 884.40 Z" fill="#748bfd" fill-rule="nonzero" group-id="1,45" node-id="330" stroke="none" target-height="68.099976" target-width="117.599976" target-x="456.7" target-y="851.7"></path><path d="M 598.60 871.70 L 595.60 873.40 L 537.70 840.00 L 540.70 838.20 L 598.60 871.70 Z M 702.70 906.80 L 699.60 908.60 L 559.20 827.50 L 562.20 825.70 L 702.70 906.80 Z M 691.90 913.10 L 688.90 914.80 L 548.50 833.70 L 551.50 832.00 L 691.90 913.10 Z" fill="#cad0dd" fill-rule="nonzero" group-id="1,46" node-id="335" stroke="none" target-height="89.099976" target-width="165" target-x="537.7" target-y="825.7"></path><path d="M 658.00 932.80 L 597.10 968.20 L 540.60 935.60 L 601.60 900.20 L 658.00 932.80 Z" fill="#9ad898" fill-rule="nonzero" group-id="1,47" node-id="340" stroke="none" target-height="68" target-width="117.400024" target-x="540.6" target-y="900.2"></path><path d="M 770.40 782.40 L 772.80 784.00 L 774.70 785.70 L 776.90 789.30 L 777.30 791.10 L 777.30 793.00 L 776.80 794.80 L 775.90 796.60 L 774.50 798.40 L 778.00 799.60 L 781.20 801.10 L 784.10 803.10 L 786.10 805.20 L 787.40 807.30 L 788.00 809.10 L 788.10 812.60 L 787.50 814.30 L 786.20 816.50 L 784.20 818.50 L 780.80 820.80 L 782.50 822.70 L 783.70 824.60 L 784.30 826.50 L 784.50 828.50 L 784.10 830.40 L 783.20 832.40 L 781.90 834.20 L 780.10 836.00 L 777.50 837.70 L 773.90 839.40 L 769.80 840.70 L 765.40 841.40 L 760.90 841.70 L 756.40 841.40 L 752.00 840.60 L 747.80 839.40 L 744.10 837.60 L 676.20 798.40 L 673.20 796.30 L 671.20 794.30 L 669.90 792.20 L 669.40 790.40 L 669.30 787.00 L 669.90 785.20 L 671.10 783.10 L 673.10 781.10 L 675.90 779.10 L 681.50 776.70 L 684.70 775.80 L 689.70 775.10 L 694.80 775.10 L 698.10 775.40 L 704.40 776.80 L 708.10 774.90 L 711.70 773.60 L 715.60 772.80 L 719.60 772.40 L 723.60 772.40 L 727.60 772.80 L 731.50 773.60 L 735.00 774.80 L 738.30 776.30 L 740.90 778.20 L 742.70 780.10 L 747.30 779.00 L 752.10 778.50 L 757.10 778.50 L 761.80 779.20 L 765.00 780.00 L 770.40 782.40 Z" fill="#ffffff" fill-rule="nonzero" group-id="1,48" node-id="345" stroke="none" target-height="69.29999" target-width="118.79999" target-x="669.3" target-y="772.4"></path></g></g></svg>