<svg xmlns="http://www.w3.org/2000/svg" version="1.1"
     viewBox="0 0 420 170" width="420" height="170">
  <g transform="translate(-60 -280)">
    <path fill="#0f4ccb" d="&#10;  M 60.84 290.91&#10;  A 8.63 8.63 0.0 0 1 69.47 282.28&#10;  L 98.61 282.28&#10;  A 58.05 58.01 0.0 0 1 156.66 340.29&#10;  L 156.66 345.39&#10;  A 58.05 58.01 0.0 0 1 98.61 403.40&#10;  L 69.47 403.40&#10;  A 8.63 8.63 0.0 0 1 60.84 394.77&#10;  L 60.84 290.91&#10;  Z&#10;  M 76.98 301.05&#10;  L 77.12 384.65&#10;  A 4.43 4.43 0.0 0 0 81.56 389.07&#10;  L 98.08 389.04&#10;  A 43.60 43.13 89.9 0 0 141.13 345.36&#10;  L 141.13 340.10&#10;  A 43.60 43.13 89.9 0 0 97.92 296.58&#10;  L 81.40 296.61&#10;  A 4.43 4.43 0.0 0 0 76.98 301.05&#10;  Z"/>
    <path fill="#105dca" d="&#10;  M 268.97 402.71&#10;  C 267.10 404.06 264.82 403.95 262.42 403.95&#10;  Q 240.77 404.01 225.50 403.92&#10;  C 212.55 403.85 200.86 396.78 194.07 386.26&#10;  Q 185.70 373.31 186.98 357.03&#10;  C 188.52 337.55 203.29 321.24 223.00 318.46&#10;  C 228.39 317.70 236.07 317.94 242.07 319.86&#10;  Q 262.24 326.30 269.83 346.89&#10;  Q 270.77 349.42 271.57 354.75&#10;  Q 272.13 358.47 272.12 362.77&#10;  Q 272.07 378.77 272.11 394.76&#10;  C 272.12 398.06 271.48 400.89 268.97 402.71&#10;  Z&#10;  M 229.3992 331.8900&#10;  A 29.11 27.71 -90.1 0 0 201.7400 361.0484&#10;  A 29.11 27.71 -90.1 0 0 229.5008 390.1100&#10;  A 29.11 27.71 -90.1 0 0 257.1600 360.9516&#10;  A 29.11 27.71 -90.1 0 0 229.3992 331.8900&#10;  Z"/>
    <path fill="#1270c8" d="&#10;  M 336.02 378.65&#10;  A 0.44 0.43 -46.2 0 0 336.81 378.63&#10;  Q 349.24 350.06 361.46 322.96&#10;  C 364.27 316.73 369.39 318.02 373.97 321.09&#10;  A 3.30 3.27 11.7 0 1 375.35 323.17&#10;  Q 375.99 326.44 374.82 329.10&#10;  Q 369.48 341.30 327.31 436.30&#10;  C 325.95 439.37 323.01 441.53 319.42 440.02&#10;  C 315.96 438.57 313.11 437.48 313.21 433.46&#10;  Q 313.25 431.85 314.59 428.84&#10;  Q 322.90 410.22 328.58 397.33&#10;  C 329.76 394.64 328.66 393.06 327.45 390.74&#10;  Q 309.60 356.68 296.44 331.85&#10;  Q 293.98 327.21 294.16 324.87&#10;  Q 294.45 321.25 298.59 319.32&#10;  C 303.44 317.07 306.67 320.06 308.70 324.06&#10;  Q 322.88 352.05 336.02 378.65&#10;  Z"/>
    <path fill="#0e82c6" d="&#10;  M 400.19 321.51&#10;  C 403.42 318.66 406.84 317.01 410.66 319.58&#10;  Q 414.93 322.45 414.88 328.20&#10;  Q 414.79 340.97 414.87 366.28&#10;  C 414.91 376.60 419.67 385.71 430.05 388.43&#10;  C 438.70 390.70 448.59 389.96 455.61 384.12&#10;  C 461.54 379.20 462.24 374.12 462.22 365.87&#10;  Q 462.18 350.93 462.16 328.84&#10;  Q 462.15 324.06 463.22 322.33&#10;  C 466.37 317.18 474.40 316.89 477.10 322.44&#10;  Q 478.12 324.52 478.06 330.20&#10;  Q 478.01 335.03 478.04 394.69&#10;  C 478.04 398.04 477.32 401.59 474.39 403.34&#10;  Q 473.05 404.13 468.03 404.12&#10;  Q 451.43 404.06 434.99 404.12&#10;  C 422.50 404.16 409.68 397.54 403.79 386.24&#10;  Q 400.09 379.13 399.27 372.53&#10;  Q 399.00 370.38 398.97 358.01&#10;  Q 398.92 332.32 398.99 326.50&#10;  Q 399.01 324.73 399.60 322.47&#10;  A 1.88 1.84 -14.1 0 1 400.19 321.51&#10;  Z"/>
  </g>
</svg>
