<svg viewBox="0 0 1024 1024" height="1024" width="1024" version="1.1" fill="none" xmlns:xlink="http://www.w3.org/1999/xlink" xmlns="http://www.w3.org/2000/svg"><defs><clipPath id="master_svg0_33_3168"><rect rx="0" height="1024" width="1024" y="0" x="0"></rect></clipPath></defs><g clip-path="url(#master_svg0_33_3168)"><g><g><path style="mix-blend-mode:passthrough" fill-opacity="1" fill="#525566" d="M1016.1269378662109,655.3839488601684C1016.1269378662109,665.2609488601685,1012.7569378662109,671.9799488601684,1007.3009378662109,675.1309488601685L764.0619378662109,816.7029488601685C764.4789378662109,816.2859488601684,764.903937866211,815.8679488601684,765.321937866211,815.2379488601684C759.649937866211,820.6969488601685,750.827937866211,821.5399488601685,740.5329378662109,815.6549488601685L341.85893786621097,586.0749488601684L245.23193786621093,641.7329488601684L225.27993786621093,630.1779488601685L28.459337866210937,515.9149488601685L8.507091866210937,504.3589488601685L7.8769378662109375,218.89994886016845L38.12433786621094,147.27494886016845L274.0149378662109,10.948948860168457L293.9669378662109,22.717048860168457L490.78793786621094,136.97994886016846L510.73993786621094,148.53494886016847L541.1999378662109,185.29694886016847L541.616937866211,346.82094886016847L552.116937866211,352.90994886016847L561.5699378662109,358.3759488601685L681.0939378662109,427.27594886016846L690.5459378662109,432.73494886016846L810.062937866211,501.42094886016844L819.514937866211,507.09294886016846L939.0319378662109,575.7799488601685L948.4839378662109,581.2379488601684L985.4499378662109,602.4509488601684C1002.4649378662109,612.3279488601685,1016.326937866211,636.0619488601685,1016.1269378662109,655.3839488601684Z"></path></g><g><path style="mix-blend-mode:passthrough" fill-opacity="1" fill="#CAD0DD" d="M245.21648864746095,641.7956207351685L8.562396647460938,504.2646207351685L7.9164886474609375,218.96262073516846L244.57048864746093,356.49362073516846L245.21648864746095,641.7956207351685Z"></path></g><g><path style="mix-blend-mode:passthrough" fill-opacity="1" fill="#D4DAE8" d="M244.57867614746092,356.4942066726685L7.9086761474609375,218.96270667266845L38.19547614746094,147.18820667266846L274.85767614746095,284.71920667266846L244.57867614746092,356.4942066726685Z"></path></g><g><path style="mix-blend-mode:passthrough" fill-opacity="1" fill="#E4E8F4" d="M274.865109741211,284.7196187820435L38.20310974121094,147.18861878204345L274.03010974121094,11.035618782043457L510.68510974121097,148.56661878204346L274.865109741211,284.7196187820435Z"></path></g><g><path style="mix-blend-mode:passthrough" fill-opacity="1" fill="#37617B" d="M28.514688647460936,515.8596207351684L8.562396647460938,504.25662073516844L7.9164886474609375,218.96262073516846L27.86088864746094,230.55742073516845L28.514688647460936,515.8596207351684Z"></path></g><g><path style="mix-blend-mode:passthrough" fill-opacity="1" fill="#416E84" d="M27.86088864746094,230.55760667266844L7.9164886474609375,218.96270667266845L38.20328864746094,147.18820667266846L58.155488647460935,158.78300667266845L27.86088864746094,230.55760667266844Z"></path></g><g><path style="mix-blend-mode:passthrough" fill-opacity="1" fill="#4C7891" d="M58.15530974121094,158.78261878204347L38.20310974121094,147.18861878204345L274.03010974121094,11.035618782043457L293.97510974121093,22.630418782043456L58.15530974121094,158.78261878204347Z"></path></g><g><path style="mix-blend-mode:passthrough" fill-opacity="1" fill="#37617B" d="M510.68448474121095,148.56662464141846L541.2864847412109,185.19432464141846L541.9324847412109,470.4886246414185L245.20838974121094,641.7956246414185L244.56248474121094,356.4936246414185L274.85708474121094,284.7196246414185L510.68448474121095,148.56662464141846Z"></path></g><g><path style="mix-blend-mode:passthrough" fill-opacity="1" fill="#416E84" d="M511.7635020849609,197.40365659454346L512.3779120849609,462.09962659454345L503.60301208496094,467.4086265945435L510.9442920849609,463.12362659454345L519.924012084961,457.8146265945435L519.317512084961,193.11862659454346L511.7635020849609,197.40365659454346Z"></path></g><g><path style="mix-blend-mode:passthrough" fill-opacity="1" fill="#9AD898" d="M512.417621459961,462.13927307891845L503.59562145996097,467.39327307891847L503.3906214599609,467.39327307891847L489.73162145996093,475.15927307891843L475.66362145996095,483.35127307891844L462.00462145996096,491.3392730789185L447.936621459961,499.53127307891845L434.27862145996096,507.51027307891843L420.20962145996094,515.2842730789184L406.5516214599609,523.2642730789184L392.2706214599609,531.4562730789185L381.1406214599609,537.9702730789185L378.61962145996097,539.4352730789185L364.5439214599609,547.6272730789185L350.89322145996096,555.4022730789185L337.02982145996094,563.5942730789184L295.43972145996094,587.3352730789185L281.5763214599609,595.5272730789185L267.71293145996094,603.5062730789184L267.08277845996093,603.9232730789184L266.65742445996096,472.00927307891845L266.45262145996094,401.85727307891847L266.45262145996094,360.8970730789185L267.91774145996095,357.32877307891846L269.39073145996093,353.96537307891845L274.84944145996093,341.1495730789185L274.84944145996093,340.3146730789185L277.16522145996095,335.0607730789185L282.2065214599609,323.30047307891846L287.87792145996093,310.2720730789185L288.50802145996096,308.59427307891843L292.0763214599609,299.97690307891844L294.8096214599609,298.5117830789185L296.7000214599609,297.45627307891846L303.20642145996095,301.23718307891846L311.61102145996097,306.07361307891847L340.5981214599609,323.0877730789185L402.98362145996094,359.2113730789184L512.2126214599609,422.6522730789185L512.417621459961,462.13927307891845Z"></path></g><g><path style="mix-blend-mode:passthrough" fill-opacity="1" fill="#6EBA6E" d="M512.213180053711,422.65255042266847L402.98318005371095,359.21155042266844L340.59828005371094,323.08755042266847L311.61118005371094,306.07355042266846L303.20653005371094,301.24555042266843L296.70018005371094,297.4645504226685L308.6730800537109,290.53255042266846L322.74128005371097,282.34055042266846L336.39988005371094,274.3533504226684L373.7837800537109,252.71545042266845L375.8868800537109,251.66775042266846L377.9900800537109,250.40745042266846L391.85348005371094,242.42815042266847L405.92118005371094,234.44095042266846L419.7851800537109,226.46165042266847L433.6481800537109,218.26965042266846L447.3071800537109,210.50295042266845L461.37518005371095,202.31095042266847L475.0331800537109,194.32375042266847L489.1021800537109,186.13178042266847L498.136180053711,181.09055042266846L502.76018005371094,186.76194042266846L511.7871800537109,197.47455042266847L512.0001800537109,329.80655042266847L512.213180053711,422.65255042266847Z"></path></g><g><path style="mix-blend-mode:passthrough" fill-opacity="1" fill="#5B5E71" d="M1016.1226214599609,655.3836988601685C1016.1226214599609,665.2616988601685,1012.759621459961,671.9806988601684,1007.3006214599609,675.1306988601684L764.0616214599609,816.7026988601684C765.526621459961,815.2376988601685,766.786621459961,813.3476988601684,768.047621459961,811.4566988601684C768.047621459961,811.0316988601685,768.677621459961,810.8266988601684,768.889621459961,810.4016988601685C770.567621459961,807.0456988601685,771.410621459961,802.8396988601685,771.410621459961,798.0106988601684C771.410621459961,794.6476988601685,770.567621459961,791.0796988601685,769.5206214599609,787.5106988601684C765.951621459961,770.7016988601684,754.6096214599609,753.0576988601684,740.533621459961,744.8656988601684L702.7236214599609,723.2356988601684L693.4846214599609,717.7686988601685L573.754621459961,648.8776988601685L564.302621459961,643.4106988601684L444.5736214599609,574.5186988601685L435.3336214599609,569.0606988601685L381.1406214599609,537.9706988601685L315.6046214599609,500.16069886016845L306.3571214599609,494.69469886016844L266.65742445996096,472.00869886016847L266.45262145996094,360.89669886016844L274.84941145996095,341.1494988601685L274.84941145996095,340.3145988601685L288.50802145996096,308.59419886016843L292.07622145996095,299.97689886016843L294.80952145996093,298.5117988601685L296.7000214599609,297.45619886016846L308.67292145996095,290.5244988601685L322.74112145996094,282.33259886016845L336.3997214599609,274.35319886016845L375.8866214599609,251.66769886016846L511.99962145996096,329.80669886016847L552.1176214599609,352.9096988601685L561.5696214599609,358.37669886016846L681.093621459961,427.27569886016846L690.546621459961,432.73469886016846L810.062621459961,501.4216988601685L819.514621459961,507.09269886016847L939.0316214599609,575.7796988601685L948.4836214599609,581.2376988601684L985.450621459961,602.4506988601685C1002.4646214599609,612.3286988601685,1016.3276214599609,636.0616988601685,1016.1226214599609,655.3836988601685Z"></path></g><g><path style="mix-blend-mode:passthrough" fill-opacity="1" fill="#474B59" d="M771.315621459961,798.0824683914184C771.3236214599609,794.6794683914185,770.4256214599609,791.0874683914185,769.6466214599609,787.5264683914185C765.9286214599609,770.6154683914185,754.5776214599609,753.0654683914184,740.595621459961,745.0464683914184C554.2986214599609,637.5664683914184,315.00602145996095,499.27086839141845,266.45262145996094,471.90646839141846L266.45262145996094,542.5861683914185L740.485621459961,815.6394683914184C752.6166214599609,822.6344683914185,762.9346214599609,820.2944683914184,767.960621459961,811.4414683914185C768.2046214599609,811.0084683914184,768.6696214599609,810.8504683914184,768.882621459961,810.3854683914185C770.441621459961,807.0774683914185,771.315621459961,802.9494683914185,771.3236214599609,798.0894683914184L771.315621459961,798.0824683914184Z"></path></g><g><path style="mix-blend-mode:passthrough" fill-opacity="1" fill="#D4DAE8" d="M752.9234339599609,801.5481051101685C751.7104339599609,801.1921051101685,750.5484339599609,800.6811051101685,749.4654339599609,800.0271051101685L266.46043395996094,521.9722051101685L266.46043395996094,492.85910511016846L731.6164339599609,760.6591051101684C740.698433959961,765.8731051101685,749.284433959961,778.7911051101685,752.0574339599609,791.3871051101685C752.766433959961,794.6081051101685,753.3174339599609,797.0421051101684,753.3174339599609,798.0821051101684C753.3174339599609,799.5791051101685,753.159433959961,800.6811051101685,752.986433959961,801.4371051101684L752.9234339599609,801.5481051101685Z"></path></g><g><path style="mix-blend-mode:passthrough" fill-opacity="1" fill="#5B5E71" d="M290.59553458496094,515.8755236101684C293.81718458496096,517.7344726101685,296.34567458496093,522.0983026101685,296.32997458496095,525.9343926101684C296.31417458496094,529.5025926101684,293.77781458496094,530.9518926101684,290.5561645849609,529.0850926101684C287.45265458496095,527.2969926101684,284.8138885849609,522.8623426101684,284.82963562016096,519.2941026101685C284.8375091549609,515.4659166101685,287.49205458496095,514.0874426101684,290.59553458496094,515.8755236101684ZM371.79087458496093,562.7510926101685C375.00457458496095,564.6100926101684,377.64337458496095,569.0447926101684,377.6276745849609,572.8729926101685C377.61977458496096,576.4411926101684,374.9652745849609,577.8275926101685,371.7435745849609,575.9685926101685C368.6400745849609,574.1726926101685,366.0012745849609,569.7379926101685,366.01707458496094,566.1696926101685C366.0248745849609,562.3414926101684,368.67947458496093,560.9551926101684,371.7829745849609,562.7510926101685L371.79087458496093,562.7510926101685ZM453.0805745849609,609.6896926101684C456.19257458496094,611.4855926101684,458.8305745849609,615.9122926101685,458.8155745849609,619.7482926101685C458.80757458496095,623.3162926101685,456.1525745849609,624.6952926101685,453.04957458496096,622.8992926101685C449.8275745849609,621.0482926101685,447.1965745849609,616.6132926101684,447.20457458496094,613.0452926101684C447.212574584961,609.2091926101684,449.866574584961,607.8306926101684,453.08857458496095,609.6896926101684L453.0805745849609,609.6896926101684ZM534.275574584961,656.5652926101684C537.3795745849609,658.3532926101684,540.0185745849609,662.7882926101685,540.0025745849609,666.6242926101685C539.9945745849609,670.1922926101685,537.3405745849609,671.5712926101685,534.236574584961,669.7752926101684C531.0145745849609,667.9242926101684,528.3835745849609,663.4892926101685,528.391574584961,659.9212926101684C528.3995745849609,656.0852926101685,531.054574584961,654.7062926101685,534.275574584961,656.5652926101684ZM615.463574584961,703.4412926101685C618.566574584961,705.2292926101684,621.2055745849609,709.6632926101685,621.189574584961,713.4992926101685C621.189574584961,717.0682926101684,618.5275745849609,718.4462926101685,615.423574584961,716.6502926101684C612.202574584961,714.7912926101685,609.5715745849609,710.3562926101685,609.5795745849609,706.7882926101685C609.587574584961,702.9602926101685,612.241574584961,701.5822926101685,615.463574584961,703.4412926101685ZM696.650574584961,750.3082926101685C699.7545745849609,752.1042926101684,702.393574584961,756.5312926101685,702.3775745849609,760.3672926101684C702.3775745849609,763.9352926101685,699.7145745849609,765.3222926101685,696.6115745849609,763.5262926101684C693.3895745849609,761.6672926101685,690.7585745849609,757.2322926101684,690.766574584961,753.6642926101684C690.7745745849609,749.8362926101685,693.429574584961,748.4492926101684,696.650574584961,750.3082926101685Z"></path></g><g><g><path style="mix-blend-mode:passthrough" fill-opacity="1" fill="#525566" d="M690.506651977539,432.6636827468872L444.66065197753903,574.5506827468872L435.28665197753907,569.1466827468872L681.1416519775391,427.25968274688717L690.506651977539,432.6636827468872ZM561.5456519775391,358.2818827468872L315.70705197753904,500.16068274688723L306.33355197753906,494.7576827468872L552.1806519775391,352.8861827468872L561.5456519775391,358.2818827468872ZM432.58465197753907,283.89224274688723L266.45265197753906,379.7696827468872L266.46839907753906,368.9551827468872L423.21965197753906,278.4886827468872L432.58465197753907,283.89224274688723ZM948.4366519775391,581.2616827468872L702.7556519775391,723.1486827468873L693.397651977539,717.7456827468873L939.0626519775391,575.8586827468872L948.4366519775391,581.2616827468872ZM819.467651977539,507.0536827468872L573.8026519775391,648.9406827468872L564.2556519775391,643.3476827468871L810.102651977539,501.4686827468872L819.467651977539,507.0536827468872Z"></path></g></g><g><path style="mix-blend-mode:passthrough" fill-opacity="1" fill="#EFAC41" d="M847.9979691162109,551.7074937820435L847.7619691162109,624.4114937820434L728.5839691162109,693.6574937820435L728.8202971162109,620.9534937820434L847.9979691162109,551.7074937820435Z"></path></g><g><path style="mix-blend-mode:passthrough" fill-opacity="1" fill="#E4E8F4" d="M760.721655053711,613.5099840164185L760.642855053711,637.4163840164184L738.9970550537109,649.9958840164185L739.0758514537109,626.0894840164185L760.721655053711,613.5099840164185Z"></path></g><g><path style="mix-blend-mode:passthrough" fill-opacity="1" fill="#F9BB4A" d="M728.820151928711,620.9615433914184L728.583751928711,693.6653433914184L662.3388519287109,655.4073433914184L662.567306928711,582.7033433914185L728.820151928711,620.9615433914184Z"></path></g><g><path style="mix-blend-mode:passthrough" fill-opacity="1" fill="#FED57A" d="M848.0057425537109,551.7547687820435L728.8203425537109,621.0003687820434L699.872642553711,604.2465687820435L691.499442553711,599.5046687820435L691.326142553711,599.4258687820435L662.5517425537109,582.7503687820434L781.7457425537109,513.5043687820435L810.6927425537109,530.1798687820435L810.771742553711,530.2586687820435L819.065742553711,535.0005687820435L848.0057425537109,551.7547687820435Z"></path></g><g><path style="mix-blend-mode:passthrough" fill-opacity="1" fill="#EFAC41" d="M819.066156616211,535.0006433914184L699.872606616211,604.2387933914184L691.4994356162109,599.4968933914184L691.3261566162109,599.4180933914184L810.6931566162109,530.1720933914185L810.772156616211,530.2508897914184L819.066156616211,535.0006433914184Z"></path></g><g><path style="mix-blend-mode:passthrough" fill-opacity="1" fill="#EFAC41" d="M699.872666616211,604.2465605007934L699.793866616211,631.7528305007935L691.3261566162109,626.9163305007935L691.4049530162109,599.4101305007935L699.872666616211,604.2465605007934Z"></path></g><g><path style="mix-blend-mode:passthrough" fill-opacity="1" fill="#3F434F" d="M743.4788666162109,661.5985230789184L745.7631666162109,665.9308230789185L744.345326616211,666.7500230789185L741.2260586162109,668.5381230789185L743.4788666162109,661.5985230789184ZM744.345326616211,666.7500230789185L744.3689466162109,675.3359230789184L742.6675266162109,676.3205230789184L742.636036616211,667.7347230789185L744.345326616211,666.7500230789185ZM752.805206616211,671.2241230789184L752.8130066162109,673.0673230789184L741.0527801562109,679.8572230789184L741.0449066162109,678.0219230789185L752.805206616211,671.2241230789184ZM765.313706616211,648.9875230789185L765.3294066162109,655.1078830789185C765.3294066162109,657.0377530789185,764.2267066162109,659.2826230789185,762.7380066162109,660.4169230789184L762.7537066162109,665.9307230789185C763.793406616211,665.4503230789185,764.5812066162109,665.4975230789184,764.5812066162109,666.0725230789185L759.9889066162109,668.7192230789185C759.9889066162109,668.1442230789185,760.776706616211,667.1989230789185,761.8085066162109,666.4743230789185L761.7928066162109,660.9604230789184C761.1153066162109,661.2361230789185,760.5324066162109,661.1652230789184,760.075606616211,660.8816230789184C759.5400066162109,660.4799230789184,759.1855066162109,659.7316230789185,759.1777066162109,658.6524430789185L759.1619066162109,652.5399530789184L765.313706616211,648.9875230789185ZM751.158906616211,662.8194230789185L751.182506616211,671.4052230789184L749.4810666162109,672.3820230789185L749.457446616211,663.7961230789184L751.158906616211,662.8194230789185ZM750.3002766162109,657.6521330789185L752.568806616211,662.0002230789185L751.158906616211,662.8194230789185L748.055346616211,664.5917230789184L750.3002766162109,657.6521330789185Z"></path></g><g><path style="mix-blend-mode:passthrough" fill-opacity="1" fill="#EFAC41" d="M632.8319534912109,414.90915393829346L632.5959534912109,487.61315393829346L513.4179534912109,556.8591539382935L513.6542814912109,484.15515393829344L632.8319534912109,414.90915393829346Z"></path></g><g><path style="mix-blend-mode:passthrough" fill-opacity="1" fill="#E4E8F4" d="M545.555639428711,476.71140003204346L545.476839428711,500.6178000320435L523.8310394287109,513.1973000320435L523.9098358287109,489.29090003204345L545.555639428711,476.71140003204346Z"></path></g><g><path style="mix-blend-mode:passthrough" fill-opacity="1" fill="#F9BB4A" d="M513.654136303711,484.1630594070435L513.417736303711,556.8667594070434L447.17283630371094,518.6087594070434L447.39338730371094,445.90475940704346L513.654136303711,484.1630594070435Z"></path></g><g><path style="mix-blend-mode:passthrough" fill-opacity="1" fill="#FED57A" d="M632.8397269287109,414.95632893829344L513.6543269287109,484.20202893829344L484.70662692871093,467.4482289382935L476.33342692871094,462.70622893829346L476.16012692871095,462.62752893829344L447.38572692871094,445.95202893829344L566.5797269287109,376.70602893829346L595.518726928711,393.3814289382935L595.605726928711,393.4602289382935L603.899726928711,398.20212893829347L632.8397269287109,414.95632893829344Z"></path></g><g><path style="mix-blend-mode:passthrough" fill-opacity="1" fill="#EFAC41" d="M603.900140991211,398.20200190704344L484.70659099121093,467.4480219070434L476.3334199912109,462.70612190704344L476.16014099121094,462.62732190704344L595.519140991211,393.38132190704346L595.606140991211,393.46008780704346L603.900140991211,398.20200190704344Z"></path></g><g><path style="mix-blend-mode:passthrough" fill-opacity="1" fill="#EFAC41" d="M484.70659099121093,467.44822065704346L484.6278209912109,494.95449065704344L476.16014099121094,490.11799065704344L476.23890689121095,462.61179065704346L484.70659099121093,467.44822065704346Z"></path></g><g><path style="mix-blend-mode:passthrough" fill-opacity="1" fill="#3F434F" d="M528.304980991211,524.7999390945434L530.5892809912109,529.1322390945435L529.171430991211,529.9514390945435L526.0600429912109,531.7395390945435L528.304980991211,524.7999390945434ZM529.171430991211,529.9593390945435L529.2029309912109,538.5372390945435L527.4936409912109,539.5218390945435L527.470020991211,530.9360390945435L529.171430991211,529.9593390945435ZM537.639190991211,534.4255390945434L537.6469909912109,536.2687390945434L525.8788909912109,543.0586390945434L525.8788909912109,541.2233390945435L537.639190991211,534.4255390945434ZM550.147690991211,512.1889390945435L550.1633909912109,518.3092990945435C550.1633909912109,520.2391690945435,549.0606909912109,522.4840390945435,547.5719909912109,523.6183390945434L547.5876909912109,529.1321390945435C548.627390991211,528.6517390945435,549.407290991211,528.6989390945434,549.4151909912109,529.2739390945435L544.8228909912109,531.9206390945435C544.8228909912109,531.3456390945435,545.610690991211,530.4003390945435,546.6424909912109,529.6757390945435L546.6267909912109,524.1618390945434C545.9492909912109,524.4375390945435,545.3663909912109,524.3666390945434,544.909590991211,524.0830390945434C544.366090991211,523.6813390945434,544.0194909912109,522.9330390945435,544.0116909912109,521.8538590945435L543.9958909912109,515.7413690945434L550.147690991211,512.1889390945435ZM535.992890991211,526.0208390945435L536.016490991211,534.6067390945434L534.3150509912109,535.5834390945435L534.291430991211,526.9976390945435L535.992890991211,526.0208390945435ZM535.1342609912109,520.8535490945435L537.402790991211,525.2016390945435L535.992890991211,526.0208390945435L532.889330991211,527.7931390945434L535.1342609912109,520.8535490945435Z"></path></g><g><path style="mix-blend-mode:passthrough" fill-opacity="1" fill="#EFAC41" d="M417.65793786621094,278.11056995391846L417.42993786621093,350.81456995391846L298.25193786621094,420.06056995391845L298.4882358662109,347.35656995391844L417.65793786621094,278.11056995391846Z"></path></g><g><path style="mix-blend-mode:passthrough" fill-opacity="1" fill="#E4E8F4" d="M330.3895238037109,339.91281604766846L330.31082380371095,363.81931604766845L308.66502380371094,376.3987160476685L308.74378970371095,352.4922160476685L330.3895238037109,339.91281604766846Z"></path></g><g><path style="mix-blend-mode:passthrough" fill-opacity="1" fill="#F9BB4A" d="M298.5904214599609,347.45116526641846L298.1651214599609,420.1315652664185L266.45262145996094,401.85706526641843L266.45262145996094,360.89706526641845L267.91774145996095,357.32886526641846L269.39073145996093,353.9653652664185L274.84944145996093,341.14963526641844L274.84944145996093,340.3146752664185L277.16522145996095,335.06076526641846L298.5904214599609,347.45116526641846Z"></path></g><g><path style="mix-blend-mode:passthrough" fill-opacity="1" fill="#FED57A" d="M417.68951208496094,278.13420628204346L340.59841208496096,323.08780628204346L298.59071208496096,347.45110628204344L277.16551208496094,335.06070628204344L282.2067420849609,323.30040628204347L287.87811208496095,310.27200628204344L288.50831208496095,308.59420628204344L292.07651208496094,299.97680628204347L294.8098120849609,298.51170628204346L296.70031208496096,297.45620628204347L308.67321208496094,290.52450628204343L322.7414120849609,282.3325062820435L336.40001208496096,274.35320628204346L373.78391208496095,252.71530628204346L380.2985120849609,256.49621628204346L380.51051208496096,256.70889628204344L388.702512084961,261.33264628204347L417.68951208496094,278.13420628204346Z"></path></g><g><path style="mix-blend-mode:passthrough" fill-opacity="1" fill="#EFAC41" d="M388.7029534912109,261.33267464141846L311.61125349121096,306.07362464141846L282.2067534912109,323.30042464141843L287.87805349121095,310.27202464141845L303.2065534912109,301.24502464141847L380.29795349121093,256.50412464141846L380.51095349121096,256.7089276414185L388.7029534912109,261.33267464141846ZM269.3909434912109,353.9653246414185L269.3909434912109,358.1641246414184L267.91795349121094,357.32912464141845L269.3909434912109,353.9653246414185Z"></path></g><g><path style="mix-blend-mode:passthrough" fill-opacity="1" fill="#3F434F" d="M313.1389653662109,388.0014992507935L315.42326536621096,392.33379925079345L314.0054153662109,393.15309925079345L310.89402736621093,394.94109925079346L313.1389653662109,388.0014992507935ZM314.01332536621095,393.15309925079345L314.03694536621094,401.73889925079345L312.32765536621093,402.72349925079345L312.30403536621094,394.13769925079345L314.01332536621095,393.15309925079345ZM322.48097536621094,397.62709925079344L322.48097536621094,399.47029925079346L310.71287536621094,406.2602992507935L310.71287536621094,404.4248992507935L322.48097536621094,397.62709925079344ZM334.98167536621094,375.39059925079346L334.9973753662109,381.51095925079346C334.9973753662109,383.4407992507935,333.89467536621095,385.68569925079345,332.4058753662109,386.81999925079344L332.42167536621093,392.3338992507935C333.4613753662109,391.8533992507935,334.2412753662109,391.90059925079345,334.24907536621095,392.47569925079347L329.65687536621095,395.12229925079345C329.65687536621095,394.54729925079346,330.4445753662109,393.60209925079346,331.47637536621096,392.8773992507935L331.4606753662109,387.36349925079344C330.78327536621094,387.63919925079347,330.20037536621095,387.5682992507935,329.74347536621093,387.28469925079344C329.19997536621094,386.88299925079343,328.8533753662109,386.13469925079346,328.84557536621094,385.06344925079344L328.8297753662109,378.94308925079343L334.98167536621094,375.39059925079346ZM320.8268753662109,389.2224992507935L320.85047536621096,397.8082992507935L319.14906536621095,398.78509925079345L319.12544536621095,390.19919925079347L320.8268753662109,389.2224992507935ZM319.96827536621095,384.05520925079344L322.23687536621094,388.40329925079345L320.8268753662109,389.2224992507935L317.72334536621094,391.00269925079346L319.96827536621095,384.05520925079344Z"></path></g><g><path style="mix-blend-mode:passthrough" fill-opacity="1" fill="#4C7891" d="M407.93021208496094,216.84386120391846C409.6710120849609,215.83562220391846,410.98641208496093,216.74933320391847,410.99431208496094,218.58465620391846C410.99431208496094,220.41998620391846,409.6946120849609,222.84607620391847,407.95381208496093,223.85432620391845L363.20500208496094,249.69067620391846C361.6059720849609,250.61227620391844,360.29054260256095,249.69067620391846,360.29054260256095,247.86317620391844C360.28266906496094,246.01997620391845,361.5823520849609,243.60177620391846,363.18138208496094,242.68017620391845L407.93021208496094,216.84386120391846Z"></path></g><g><path style="mix-blend-mode:passthrough" fill-opacity="1" fill="#37617B" d="M245.21666208496094,641.8274508132935L225.28016708496094,630.2324508132934L224.63426208496094,344.93845081329346L244.57866208496094,356.5332508132935L245.21666208496094,641.8274508132935Z"></path></g><g><path style="mix-blend-mode:passthrough" fill-opacity="1" fill="#416E84" d="M244.57864958496094,356.53319261016844L224.62644958496094,344.93829261016845L254.91324958496094,273.16379261016846L274.8654495849609,284.7585926101685L244.57864958496094,356.53319261016844Z"></path></g><g><path style="mix-blend-mode:passthrough" fill-opacity="1" fill="#4C7891" d="M274.86527067871094,284.7590640945434L254.91307067871094,273.16406409454345L490.74007067871094,137.01116409454346L510.68507067871093,148.60606409454346L274.86527067871094,284.7590640945434ZM519.3180706787109,193.11806409454346L510.33807067871095,182.50806409454344L505.64307067871096,176.79006409454345L498.0890706787109,181.08306409454346L502.7840706787109,186.79306409454347L511.76407067871094,197.40406409454346L519.3180706787109,193.11806409454346ZM814.8520706787109,91.63226409454346C793.214070678711,79.13156409454345,625.239070678711,368.75806409454344,646.554070678711,381.10106409454346L623.9550706787109,367.95506409454345C602.6400706787109,355.61906409454343,589.4930706787109,329.3260640945435,589.3360706787109,291.8240640945435C589.1780706787109,216.49706409454345,642.229070678711,124.65236409454346,707.623070678711,86.82736409454346C740.8010706787109,67.75732409454346,770.6150706787109,65.99290409454346,792.253070678711,78.49357409454346L814.8520706787109,91.63226409454346Z"></path></g><g><path style="mix-blend-mode:passthrough" fill-opacity="1" fill="#416E84" d="M730.2698792724609,99.98175862579346C795.9628792724609,62.054358625793455,849.2508792724609,92.41993862579346,849.4628792724609,167.79425862579347C849.675879272461,243.16845862579345,796.7428792724609,334.97445862579343,731.041879272461,372.90945862579343C665.552779272461,410.71845862579346,612.163009272461,380.29745862579347,611.9424896244609,304.92345862579344C611.737716272461,229.54945862579345,664.7729792724609,137.79895862579346,730.2698792724609,99.98175862579346Z"></path></g><g><path style="mix-blend-mode:passthrough" fill-opacity="1" fill="#4C7891" d="M797.932555053711,99.12326526641846C816.8605550537109,110.70236526641845,828.549555053711,134.53006526641846,828.6605550537109,168.16446526641846C828.8885550537109,237.41826526641844,780.114555053711,321.70926526641847,719.9822550537109,356.34426526641846C694.3744550537109,371.15326526641843,670.767255053711,374.6032652664185,652.0595550537109,368.25426526641843C671.8779550537109,380.73126526641846,699.9433550537109,379.5022652664185,731.0099550537109,361.5742652664185C791.134555053711,326.94726526641847,839.7905550537109,242.65626526641844,839.6875550537109,173.39476526641846C839.467555053711,133.63996526641847,823.2095550537109,107.47281526641845,797.932555053711,99.12326526641846Z"></path></g><g><path style="mix-blend-mode:passthrough" fill-opacity="1" fill="#E4E8F4" d="M719.9819941162109,356.3437437820435C780.1140941162109,321.70974378204346,828.8880941162109,237.41874378204346,828.660094116211,168.16444378204346C828.550094116211,134.52994378204346,816.8600941162109,110.70224378204345,797.9320941162109,99.12316378204346C779.3350941162109,93.00279378204345,755.8380941162109,96.44501178204345,730.2300941162109,111.15124378204345C670.325894116211,145.99874378204345,621.551987116211,230.06874378204347,621.662277221211,299.2207437820434C621.7725681162109,332.73674378204345,633.3515941162109,356.45474378204347,652.0671941162109,368.25374378204344C670.766994116211,374.60274378204343,694.3740941162109,371.15274378204344,719.9819941162109,356.3437437820435Z"></path></g><g><path style="mix-blend-mode:passthrough" fill-opacity="1" fill="#75CA75" d="M725.1020931787109,229.64371203204345C727.858993178711,228.05257103204346,730.174833178711,229.26561403204346,730.1827331787109,232.43214503204345C730.190633178711,235.59866503204347,727.8905531787109,239.58437503204345,725.141463178711,241.17557503204347C722.3845631787109,242.76667503204345,720.1475067187109,241.39607503204346,720.1396331787109,238.22955503204346C720.1396331787109,235.06303503204344,722.3452031787109,231.23485503204347,725.1020931787109,229.64371203204345Z"></path></g><g><path style="mix-blend-mode:passthrough" fill-opacity="1" fill="#FA5168" d="M730.1909069287109,228.45452034454345L803.7849769287109,191.69292034454347L730.2145869287109,237.36332034454347L730.1909069287109,228.45452034454345ZM725.827076928711,154.42722034454346L730.5610769287109,225.85512034454345L721.5419769287109,231.03032034454344L725.827076928711,154.42722034454346Z"></path></g><g><path style="mix-blend-mode:passthrough" fill-opacity="1" fill="#525566" d="M735.0744183349609,229.61227745391847L734.901118334961,231.95959745391846L734.9720183349609,231.92021745391847C734.066118334961,237.70185745391845,729.9937183349609,244.00345745391846,725.149458334961,246.79185745391845C719.6356083349609,249.97415745391845,715.1851654349609,247.43775745391846,715.1694183349609,241.10475745391847C715.1694183349609,240.22245745391845,715.2482147349609,239.31665745391845,715.4057463349609,238.39505745391847C715.4608613349609,238.17445745391845,715.4924163349609,237.95395745391846,715.5396573349609,237.74125745391845L715.6184543349609,237.36315745391846C715.905624334961,236.15635745391845,716.301068334961,234.97795745391846,716.7999683349609,233.84215745391845L716.8629583349609,233.68465745391845C718.6431683349609,229.62805745391844,721.6521483349609,225.90226745391845,725.086468334961,223.91728745391845C729.922918334961,221.12884745391847,734.018918334961,222.71211745391847,734.9563183349609,227.43039745391846L734.885418334961,227.46977745391845L735.0744183349609,229.61227745391847ZM725.1337083349609,241.17555745391846C727.8906183349609,239.59235745391845,730.1907183349609,235.59875745391847,730.182818334961,232.43222745391847C730.1750183349609,229.26570745391845,727.8592183349609,228.05266745391845,725.102218334961,229.64378745391846C722.3453183349609,231.23492745391846,720.1397583349609,235.06315745391845,720.1397583349609,238.22965745391846C720.1476283349609,241.39615745391845,722.376818334961,242.76675745391844,725.1337083349609,241.17555745391846Z"></path></g><g><path style="mix-blend-mode:passthrough" fill-opacity="1" fill="#4C7891" d="M726.133908178711,123.68345862579346L726.173308178711,137.55465862579345L723.6133081787109,139.03555862579344L723.5739081787109,125.17215862579346L726.133908178711,123.68345862579346ZM726.716808178711,328.56245862579345L726.756108178711,342.36245862579347L724.1883081787109,343.84345862579346L724.1489081787109,330.03545862579347L726.716808178711,328.56245862579345ZM685.804108178711,156.67195862579345L690.9004081787109,166.24245862579346L688.6319081787109,168.79455862579346L683.5276081787109,159.16105862579346L685.804108178711,156.67195862579345ZM761.6435081787109,298.7634586257934L766.8025081787109,308.36545862579345L764.4705081787109,310.9574586257935L759.366508178711,301.3234586257935L761.6435081787109,298.7634586257934ZM652.8628081787109,203.98865862579345L662.110308178711,207.56475862579344L660.5191081787109,210.70765862579344L651.2795081787109,207.20245862579344L652.8628081787109,203.98865862579345ZM789.8035081787109,256.81945862579346L799.050508178711,260.3954586257935L797.4045081787109,263.56945862579346L788.156508178711,259.99345862579344L789.8035081787109,256.81945862579346ZM633.5091381787109,256.96145862579345L645.1355081787109,253.79445862579345L644.4580081787109,257.0004586257935L632.839588178711,260.1744586257935L633.5091381787109,256.96145862579345ZM805.808508178711,210.55805862579348L817.4275081787109,207.45455862579345L816.8135081787109,210.62885862579344L805.1865081787109,213.73245862579347L805.808508178711,210.55805862579348ZM643.150508178711,296.2824586257934L643.5522081787109,298.9294586257935L631.721115178711,308.18445862579347L631.3115081787109,305.5374586257934L643.150508178711,296.2824586257934ZM818.545508178711,159.43675862579346L819.0185081787109,161.98885862579345L807.1795081787109,171.24425862579346L806.714508178711,168.62915862579345L818.545508178711,159.43675862579346ZM656.5176081787109,327.08945862579344L657.9512081787109,328.6254586257935L648.120808178711,342.28345862579346L646.6951081787109,340.69245862579345L656.5176081787109,327.08945862579344ZM802.2015081787109,125.30605862579345L803.6345081787109,126.83415862579346L793.8045081787109,140.50065862579345L792.315508178711,138.94105862579346L802.2015081787109,125.30605862579345ZM682.7320081787109,340.39345862579347L684.9533081787109,340.55045862579345L678.9511081787109,356.0054586257935L676.729808178711,355.8474586257935L682.7320081787109,340.39345862579347ZM771.3715081787109,111.52145862579346L773.5375081787109,111.78139962579345L767.597508178711,127.20445862579345L765.368508178711,126.97595862579345L771.3715081787109,111.52145862579346Z"></path></g><g><path style="mix-blend-mode:passthrough" fill-opacity="1" fill="#3F434F" d="M700.478808803711,279.50474768829343C702.8102988037109,278.16564768829346,704.8347988037109,277.88994768829343,706.6227988037109,278.55954768829343C708.418698803711,279.1266476882935,709.285198803711,280.9540476882935,709.2930988037109,283.90794768829346C709.2930988037109,285.60144768829343,708.9149988037109,287.3501476882935,708.135198803711,289.31144768829347C707.4419988037109,291.23344768829344,706.047798803711,293.9194476882935,704.117998803711,297.36954768829344L697.6037488037109,308.82264768829344L710.198998803711,301.55224768829345L710.2146988037109,306.72734768829343L691.1604458037109,317.73144768829343L691.1525728037109,313.17074768829343L699.5965988037109,298.44874768829345C701.4555988037109,295.22704768829345,702.7709988037109,292.76944768829344,703.6295988037109,291.02074768829345C704.401498803711,289.3272476882935,704.787498803711,287.7597476882935,704.7795988037109,286.50724768829343C704.7795988037109,285.25484768829347,704.3069988037109,284.45924768829343,703.5270988037109,283.92364768829344C702.6685988037109,283.52194768829344,701.5814988037109,283.7031476882935,700.258228803711,284.46714768829344C698.0054188037109,285.76684768829347,696.0597988037109,288.23234768829343,694.586838803711,291.76124768829345L690.7743988037109,291.46194768829344C692.0110888037109,288.68924768829345,693.3343988037109,286.31824768829347,694.8073588037109,284.39624768829344C696.2803188037109,282.46644768829344,698.225938803711,280.81224768829344,700.4787488037109,279.51254768829347L700.478808803711,279.50474768829343ZM729.0877988037109,263.79814768829345L719.036898803711,288.65774768829345L725.732198803711,284.7980476882935L725.708598803711,278.89824768829345L730.1432988037109,276.33824768829345L730.1589988037109,282.2459476882934L733.498898803711,280.30814768829345L733.5145988037109,285.2233476882935L730.1747988037109,287.15324768829345L730.1983988037109,295.18764768829345L725.7636988037109,297.75554768829346L725.7400988037109,289.71324768829345L713.7671988037109,296.62124768829347L713.7514988037109,291.8005476882935L723.959898803711,266.75194768829346L729.0877988037109,263.79814768829345ZM742.699098803711,253.96774768829346L742.738498803711,267.99654768829345C743.3528988037109,266.1218476882934,744.282398803711,264.42044768829345,745.605698803711,262.85289768829347C746.921098803711,261.19874768829345,748.2444988037109,259.9857076882935,749.7174988037109,259.1349976882935C752.1277988037109,257.74077768829346,754.0733988037109,257.51234768829346,755.5620988037109,258.26854768829344C757.0429988037109,259.11137768829343,757.743998803711,261.11998768829346,757.759798803711,264.33374768829344L757.7990988037109,279.26054768829346L753.364398803711,281.81264768829345L753.325098803711,268.41394768829343C753.3171988037109,263.94777768829346,751.670898803711,262.65596768829346,748.4885988037109,264.4991476882935C746.936898803711,265.39714768829344,745.6135988037109,266.78344768829345,744.447798803711,268.61874768829347C743.3010988037109,270.43674768829345,742.712298803711,272.55084768829346,742.754298803711,274.6997476882934L742.7935988037109,287.92514768829346L738.280098803711,290.52454768829347L738.185598803711,256.5749976882935L742.699098803711,253.96774768829346Z"></path></g><g><path style="mix-blend-mode:passthrough" fill-opacity="1" fill="#F9BB4A" d="M292.29622692871095,690.7905015945435L293.5172269287109,836.7345015945434L234.00742692871094,871.2425015945435L216.80422692871093,881.3565015945435L158.94822692871094,914.9125015945435L159.38145492871095,768.0079015945435L216.59152692871095,734.6728015945434L233.79472692871093,724.7715015945435L292.29622692871095,690.7905015945435Z"></path></g><g><path style="mix-blend-mode:passthrough" fill-opacity="1" fill="#EFAC41" d="M159.55484020996093,768.0946258132934L159.01084020996095,914.8103258132935L25.276840209960938,837.5373258132935L25.717947209960936,690.9559068132935L25.717947209960936,690.7353258132935L25.938501209960936,690.7353258132935L83.95994020996093,724.3619258132935L97.14584020996094,732.0498258132934L101.10014020996094,734.2553258132934L159.55484020996093,768.0946258132934Z"></path></g><g><path style="mix-blend-mode:passthrough" fill-opacity="1" fill="#FED57A" d="M292.38324645996096,690.9243180007935L159.47624645996095,768.1418180007935L101.05314645996094,734.3188180007935L84.14134645996094,724.7558180007934L83.80264645996094,724.5828180007934L25.718246459960938,690.9244180007935L158.62524645996095,613.7148180007935L292.38324645996096,690.9243180007935Z"></path></g><g><path style="mix-blend-mode:passthrough" fill-opacity="1" fill="#E4E8F4" d="M83.73191833496094,657.1008044851685L216.63891833496095,734.3182644851685L233.55891833496094,724.7556644851685L233.89791833496093,724.5824644851684L100.65151833496094,647.3649644851685L100.47821833496094,647.5382434851684L83.73191833496094,657.1008044851685Z"></path></g><g><path style="mix-blend-mode:passthrough" fill-opacity="1" fill="#CAD0DD" d="M234.00768161621093,763.0927121414185L216.80445861621095,773.1988121414184L216.59178161621094,734.6728121414185L216.59178161621094,734.2395421414185L220.45935161621094,732.0891421414185L233.79498161621095,724.5588121414185L233.79498161621095,724.7714581414184L234.00768161621093,763.0927121414185Z"></path></g><g><path style="mix-blend-mode:passthrough" fill-opacity="1" fill="#3F434F" d="M140.65817083496094,852.4877672195435L136.30223083496094,860.7742672195435L138.99614083496093,862.3338972195435L144.95109083496095,865.7445672195435L140.65817083496094,852.4877672195435Z"></path></g><g><path style="mix-blend-mode:passthrough" fill-opacity="1" fill="#3F434F" d="M138.99624177246093,862.3339476882935L138.94894177246096,878.7258476882935L142.20214177246095,880.6084476882935L142.24934177246092,864.2086476882935L138.99624177246093,862.3339476882935ZM122.82484177246093,870.8804476882934L122.82484177246093,874.3935476882934L145.28984177246093,887.3667476882935L145.29774177246094,883.8536476882934L122.82484177246093,870.8804476882934ZM81.76247407246093,819.4677476882935L81.73096466066093,831.1492476882935C81.72309112246094,834.8356476882934,83.85773177246094,839.1206476882935,86.67767177246094,841.2947476882935L86.65404177246094,851.8182476882935C84.66906177246094,850.9045476882934,83.17245177246093,850.9911476882935,83.16456177246094,852.0939476882935L91.93154177246093,857.1509476882934C91.93154177246093,856.0481476882935,90.43497177246094,854.2364476882934,88.45785177246094,852.8659476882934L88.48936177246094,842.3345476882935C89.78118177246094,842.8544476882935,90.89970177246094,842.7283476882934,91.76614177246094,842.1769476882935C92.79804177246093,841.4129476882935,93.47544177246094,839.9793476882935,93.47544177246094,837.9313476882935L93.51484177246094,826.2498476882935L81.76247407246093,819.4677476882935ZM125.97564177246093,854.8193476882934L125.92834177246094,871.2033476882934L129.18944177246095,873.0937476882934L129.22884177246095,856.6940476882935L125.97564177246093,854.8193476882934ZM127.60614177246094,844.9574476882934L123.27384177246094,853.2596476882934L125.97564177246093,854.8193476882934L131.90694177246093,858.2063476882935L127.60614177246094,844.9574476882934Z"></path></g><g><path style="mix-blend-mode:passthrough" fill-opacity="1" fill="#3F434F" d="M104.77878474121093,868.6197695632934C104.33348474121094,868.6087695632934,103.89898474121094,868.4810695632934,103.51848474121094,868.2494695632935L73.05056474121093,850.6602695632935C71.64607974121094,849.7215695632934,70.76945494121094,848.1728695632935,70.68748474121094,846.4855695632934L70.78988674121094,811.4175195632935C70.78988674121094,810.5353095632935,71.13647474121093,809.8263905632934,71.73511474121094,809.4797715632934C72.33376474121094,809.1489615632935,73.07418474121094,809.1962022632935,73.81462474121093,809.6215565632934L104.29828474121094,827.2107695632934C105.63738474121094,827.9984695632935,106.73228474121095,829.8731695632935,106.70868474121093,831.4091695632934L106.61418474121093,866.4850695632935C106.61418474121093,867.3515695632934,106.25968474121095,868.0525695632934,105.64528474121093,868.3833695632934C105.38348474121094,868.5398695632935,105.08378474121093,868.6215695632934,104.77878474121093,868.6197695632934ZM72.60157474121094,810.5353095632935C72.51493474121094,810.5353095632935,72.44403474121094,810.5589295632934,72.38102474121094,810.5904295632935C72.19197474121094,810.7007195632934,72.06594474121094,811.0079095632934,72.06594474121094,811.4096395632935L71.97142474121094,846.4855695632934C71.97142474121094,847.5725695632934,72.77487474121094,849.0061695632935,73.70435474121093,849.5418695632934L104.18018474121094,867.1309695632934C104.52678474121095,867.3278695632935,104.81028474121094,867.3515695632934,105.01508474121093,867.2649695632934C105.20418474121094,867.1467695632934,105.32228474121094,866.8710695632934,105.33018474121093,866.4771695632935L105.42468474121094,831.4012695632935C105.32918474121094,830.1556695632935,104.67468474121094,829.0202695632935,103.64458474121093,828.3134695632934L73.16085474121094,810.7243395632935C72.99373474121094,810.6143495632934,72.80113474121094,810.5492895632934,72.60157474121094,810.5353095632935ZM150.13408474121093,894.8026695632934C149.69698474121094,894.7940695632934,149.27008474121095,894.6688695632935,148.89748474121092,894.4402695632934L118.41378474121095,876.8510695632934C116.99668474121094,875.9240695632934,116.11618474121093,874.3684695632935,116.05068474121094,872.6763695632934L116.15308474121093,837.5925695632934C116.15308474121093,836.7260695632934,116.48388474121094,836.0171695632935,117.09828474121093,835.6705695632935C117.70488474121095,835.3161695632934,118.43738474121093,835.3712695632935,119.17778474121093,835.7965695632935L149.65358474121092,853.4015695632935C151.08948474121092,854.3281695632935,151.98768474121096,855.8927695632934,152.06398474121093,857.5999695632935L151.96948474121092,892.6758695632934C151.96948474121092,893.5265695632935,151.63858474121093,894.2197695632934,151.03998474121096,894.5662695632934C150.76448474121094,894.7244695632935,150.45178474121093,894.8060695632935,150.13408474121093,894.8026695632934ZM117.96478474121093,836.7339695632935C117.88278474121094,836.7340695632935,117.80198474121093,836.7528695632934,117.72848474121093,836.7890695632934C117.54728474121094,836.8993695632935,117.42918474121095,837.1986695632935,117.42918474121095,837.5925695632934L117.32678474121093,872.6842695632935C117.32678474121093,873.7712695632935,118.14598474121094,875.2048695632934,119.06758474121094,875.7404695632935L149.53548474121095,893.3296695632935C149.87418474121094,893.5186695632934,150.18928474121094,893.5502695632935,150.38618474121094,893.4557695632934C150.57518474121093,893.3375695632934,150.69338474121093,893.0618695632935,150.69338474121093,892.6759695632935L150.78788474121092,857.5999695632935C150.69398474121095,856.3519695632934,150.03558474121093,855.2149695632935,148.99988474121093,854.5122695632934L118.51618474121094,836.9151695632935C118.34978474121094,836.8111695632934,118.16058474121094,836.7489695632935,117.96478474121093,836.7339695632935Z"></path></g><g><path style="mix-blend-mode:passthrough" fill-opacity="1" fill="#576CFB" d="M567.3122738037109,628.5947066726685C572.786273803711,631.7607066726684,577.213273803711,639.4177066726685,577.1892738037109,645.7107066726685L576.213273803711,991.9097066726684C576.1892738037109,998.2027066726685,571.738273803711,1000.7397066726685,566.272273803711,997.5807066726684L351.9410838037109,873.8347066726685C346.47450380371095,870.6837066726684,342.0555572037109,863.0197066726685,342.07130432131095,856.7337066726684L343.0480498037109,510.5271066726685C343.07167380371095,504.23343367266847,347.52214380371095,501.70495667266846,352.99657380371093,504.85571667266845L567.3122738037109,628.5947066726685Z"></path></g><g><path style="mix-blend-mode:passthrough" fill-opacity="1" fill="#FFFFFF" d="M555.1970003662109,656.9432301101684L554.323000366211,969.8622301101684L364.16600036621094,860.2312301101684L365.0324553662109,547.3122301101685L555.1970003662109,656.9432301101684Z"></path></g><g><path style="mix-blend-mode:passthrough" fill-opacity="1" fill="#748BFD" d="M601.575812866211,631.5480504226684L600.6468128662109,977.6600504226685C600.6468128662109,980.8980504226685,599.488812866211,982.9850504226685,597.865812866211,984.1430504226685L573.3138128662109,998.2740504226684C575.1648128662109,997.3450504226685,576.094812866211,995.0290504226684,576.3228128662109,992.0200504226684L577.2518128662109,645.6790504226685C577.2518128662109,639.4250504226684,572.840812866211,631.7840504226684,567.287812866211,628.5390504226684L352.99626286621094,504.83205042266843C350.21571286621094,503.20945042266845,347.67146286621096,503.20945042266845,346.04881286621094,504.13105042266847L370.3727128662109,489.9998524226685C372.22381286621095,488.84195442266844,374.77591286621094,489.0782514226685,377.55651286621094,490.70090042266844L591.8478128662109,614.4000504226684C597.172812866211,617.4090504226684,601.8048128662109,625.2860504226685,601.575812866211,631.5400504226684L601.575812866211,631.5480504226684Z"></path></g><g><path style="mix-blend-mode:passthrough" fill-opacity="1" fill="#F9607F" d="M412.71934177246095,598.7721480789185L412.60904177246096,637.7865480789185L378.79344177246094,618.2596480789184L378.90373277246096,579.2531480789185L412.71934177246095,598.7721480789185Z"></path></g><g><path style="mix-blend-mode:passthrough" fill-opacity="1" fill="#D4DAE8" d="M541.0658402099609,689.4356222976685L541.049840209961,695.3748222976685L424.52684020996094,628.1059322976685L424.54258730996094,622.1667222976685L541.0658402099609,689.4356222976685Z"></path></g><g><path style="mix-blend-mode:passthrough" fill-opacity="1" fill="#37617B" d="M412.50645114746095,674.2252730789185L412.39615114746096,713.0742730789185L378.58055114746094,693.5552730789185L378.69084214746096,654.7062730789185L412.50645114746095,674.2252730789185Z"></path></g><g><path style="mix-blend-mode:passthrough" fill-opacity="1" fill="#75CA75" d="M412.2862488037109,749.5206832351685L412.1759488037109,788.5272832351684L378.36814880371094,769.0081832351684L378.47843980371096,730.0016832351685L412.2862488037109,749.5206832351685Z"></path></g><g><path style="mix-blend-mode:passthrough" fill-opacity="1" fill="#5B5E71" d="M412.07325817871094,824.8082808914185L411.96295817871095,863.8226808914185L378.15525817871094,844.3036808914185L378.26554917871096,805.2892808914185L412.07325817871094,824.8082808914185Z"></path></g><g><g><path style="mix-blend-mode:passthrough" fill-opacity="1" fill="#D4DAE8" d="M493.99331540527345,905.2320308914184L493.97751540527344,911.1710308914185L423.84141540527344,870.6840308914184L423.85716250527344,864.7370308914185L493.99331540527345,905.2320308914184ZM540.4194154052734,915.4800308914184L540.4044154052734,921.4190308914185L423.8886566052734,854.1500308914185L423.9044037052734,848.2030308914184L540.4194154052734,915.4800308914184ZM494.20591540527346,829.9360308914185L494.1902154052734,835.8830308914185L424.05406140527344,795.3880308914185L424.0698094052734,789.4490308914185L494.20591540527346,829.9360308914185ZM540.4674154052734,898.9380308914185L540.4514154052735,904.8770308914185L423.9359589052734,837.6080308914185L423.95170640527346,831.6690308914185L540.4674154052734,898.9380308914185ZM540.8534154052734,764.8890308914184L540.8374154052734,770.6700308914185L424.31401040527345,703.4014308914185L424.3297574052734,697.6197308914185L540.8534154052734,764.8890308914184ZM494.6313154052734,679.1956308914184L494.6155154052734,685.1348308914185L424.4794154052734,644.6474308914185L424.49516340527344,638.7003308914185L494.6313154052734,679.1956308914184ZM540.9004154052734,748.3550308914184L540.8844154052734,754.1370308914185L424.36131240527345,686.8677308914184L424.3770604052734,681.0861308914184L540.9004154052734,748.3550308914184ZM541.1134154052735,672.9019308914185L541.0974154052734,678.8411308914185L424.57395940527346,611.5722408914185L424.58970640527343,605.6330308914185L541.1134154052735,672.9019308914185ZM540.6404154052734,840.1840308914184L540.6164154052734,846.1230308914185L424.10136440527344,778.8540308914185L424.1171114052734,772.9150308914185L540.6404154052734,840.1840308914184ZM494.41861540527344,754.6490308914184L494.40291540527346,760.4220308914184L424.26676940527346,719.9350308914185L424.28251640527344,714.1530308914184L494.41861540527344,754.6490308914184ZM540.6874154052734,823.6500308914185L540.6644154052734,829.5900308914185L424.14860540527343,762.3210308914184L424.16435240527346,756.3740308914184L540.6874154052734,823.6500308914185Z"></path></g></g><g><path style="mix-blend-mode:passthrough" fill-opacity="1" fill="#416E84" d="M502.8628058349609,632.8479742507934L408.6547698349609,578.1111742507935L408.53660583496094,536.8124742507935L502.72880583496095,591.5570742507934L502.8628058349609,632.8479742507934Z"></path></g><g><path style="mix-blend-mode:passthrough" fill-opacity="1" fill="#4C7891" d="M498.1840183349609,621.6468293289184L416.18525833496096,573.9914293289185L413.29441833496094,575.4407693289185L498.1919183349609,624.7818293289184L498.1840183349609,621.6468293289184Z"></path></g><g><path style="mix-blend-mode:passthrough" fill-opacity="1" fill="#37617B" d="M416.11409427246093,546.5640622195434L413.20750427246094,544.8783922195435L413.28627017246095,575.4407922195435L416.18498427246095,573.9993922195434L416.11409427246093,546.5640622195434Z"></path></g><g><path style="mix-blend-mode:passthrough" fill-opacity="1" fill="#D4DAE8" d="M498.18394255371095,621.6467390945435L498.11304255371095,594.2193390945434L416.11424255371094,546.5639390945435L416.19300845371095,573.9992390945434L498.18394255371095,621.6467390945435Z"></path></g><g><path style="mix-blend-mode:passthrough" fill-opacity="1" fill="#4C7891" d="M502.73661833496095,591.5569469070434L408.54441833496094,536.8122469070435L438.6027183349609,519.4594469070435L532.7954183349609,574.2040469070434L502.73661833496095,591.5569469070434Z"></path></g><g><path style="mix-blend-mode:passthrough" fill-opacity="1" fill="#37617B" d="M532.795201147461,574.1962633132935L532.810901147461,579.8046633132934L507.78593114746093,594.2588633132934L507.88832114746094,629.9412633132935L502.8549651474609,632.8557633132934L502.73680114746094,591.5491633132934L532.795201147461,574.1962633132935Z"></path></g><g><path style="mix-blend-mode:passthrough" fill-opacity="1" fill="#F9BB4A" d="M146.77876427246093,816.7265367507935L145.70750427246094,944.5685367507934L197.83700427246094,974.8005367507935L212.91340427246092,983.6545367507935L263.5935042724609,1013.0505367507935L263.2155042724609,884.3656367507934L213.10250427246092,855.1580367507935L198.02600427246094,846.4933367507934L146.77876427246093,816.7265367507935Z"></path></g><g><path style="mix-blend-mode:passthrough" fill-opacity="1" fill="#EFAC41" d="M263.06541442871094,884.4367176101684L263.53804042871093,1012.9644176101684L380.68341442871093,945.2784176101684L380.2974144287109,816.8684436101685L380.2974144287109,816.6794176101685L380.10841442871094,816.6794176101685L329.2867144287109,846.1312176101685L317.73911442871093,852.8660176101685L314.27331442871093,854.7959176101684L263.06541442871094,884.4367176101684Z"></path></g><g><path style="mix-blend-mode:passthrough" fill-opacity="1" fill="#FED57A" d="M146.70750427246094,816.8368406570435L263.12850427246093,884.4835406570435L314.31250427246096,854.8505406570434L329.1215042724609,846.4698406570435L329.4205042724609,846.3280406570434L380.30550427246095,816.8447406570434L263.88450427246096,749.2055406570435L146.70750427246094,816.8368406570435Z"></path></g><g><path style="mix-blend-mode:passthrough" fill-opacity="1" fill="#E4E8F4" d="M329.476437866211,787.2196965945435L213.05523786621094,854.8510265945434L198.23875386621094,846.4699265945435L197.93943786621094,846.3281265945435L314.66743786621095,778.6811265945435L314.8174378662109,778.8386585945434L329.476437866211,787.2196965945435Z"></path></g><g><path style="mix-blend-mode:passthrough" fill-opacity="1" fill="#CAD0DD" d="M197.83689880371094,880.0572617507935L212.91329880371094,888.9109617507935L213.10239880371094,855.1583017507935L213.10239880371094,854.7801817507934L209.71529880371094,852.8976217507934L198.02593980371094,846.3046617507935L198.02593980371094,846.4936877507935L197.83689880371094,880.0572617507935Z"></path></g><g><path style="mix-blend-mode:passthrough" fill-opacity="1" fill="#3F434F" d="M279.6230348974609,958.3696031570435L283.43547489746095,965.6321131570435L281.07240489746096,966.9948431570434L275.85789489746094,969.9881031570435L279.6230348974609,958.3696031570435Z"></path></g><g><path style="mix-blend-mode:passthrough" fill-opacity="1" fill="#3F434F" d="M281.07246599121095,966.9948308914185L281.11186599121095,981.3544308914185L278.2604259912109,983.0007308914185L278.2210259912109,968.6411308914185L281.07246599121095,966.9948308914185ZM295.2351659912109,974.4857308914185L295.2430659912109,977.5577308914185L275.55863953121093,988.9241308914185L275.55076599121094,985.8521308914185L295.2351659912109,974.4857308914185ZM331.20906599121093,929.4455308914185L331.24056599121093,939.6776308914184C331.24056599121093,942.9072308914184,329.3816659912109,946.6644308914184,326.90036599121095,948.5628308914185L326.9240659912109,957.7867308914184C328.66486599121095,956.9832308914184,329.97236599121095,957.0620308914184,329.98026599121096,958.0230308914184L322.30026599121095,962.4577308914185C322.30026599121095,961.4888308914185,323.60786599121093,959.9056308914185,325.34076599121096,958.7004308914185L325.3171659912109,949.4844308914185C324.1828659912109,949.9255308914185,323.2061659912109,949.8231308914185,322.44206599121094,949.3427308914185C321.5440659912109,948.6652308914184,320.94546599121094,947.4128308914185,320.94546599121094,945.6169308914184L320.91396599121094,935.3848008914184L331.20906599121093,929.4455308914185ZM292.47036599121094,960.4097308914185L292.51766599121095,974.7693308914185L289.66616599121096,976.4235308914184L289.62676599121096,962.0560308914185L292.47036599121094,960.4097308914185Z"></path></g><g><path style="mix-blend-mode:passthrough" fill-opacity="1" fill="#3F434F" d="M291.0444216162109,951.7686246414185L294.8411116162109,959.0469246414184L292.47804161621093,960.4096246414184L287.27928161621094,963.3871246414185L291.0444216162109,951.7686246414185ZM310.28778161621096,972.2959246414184C309.75208161621094,972.0045246414185,309.4369816162109,971.3980246414185,309.4369816162109,970.6339246414185L309.35828161621095,939.9060246414184C309.4312816162109,938.4122246414184,310.2163816162109,937.0441246414184,311.46928161621094,936.2274246414185L338.17208161621096,920.8122916414185C338.81008161621094,920.4499254414185,339.4638816162109,920.4026846414184,339.99158161621096,920.6941266414185C340.5193816162109,921.0013166414185,340.81868161621094,921.6156946414185,340.81868161621094,922.3876646414185L340.9131816162109,953.1156246414184C340.9131816162109,954.4546246414185,339.98378161621093,956.1088246414184,338.84158161621093,956.7705246414184L312.13888161621094,972.1777246414184C311.8096816162109,972.3745246414185,311.4351816162109,972.4830246414184,311.05188161621095,972.4928246414185C310.7838816162109,972.4987246414184,310.51948161621095,972.4306246414185,310.28778161621096,972.2959246414184ZM338.73918161621094,921.7890946414185L312.0363816162109,937.2042246414185C311.13478161621094,937.8226246414184,310.56138161621095,938.8159246414184,310.4767816162109,939.9060246414184L310.55558161621093,970.6260246414184C310.57128161621097,970.9725246414184,310.67368161621096,971.2246246414185,310.83908161621093,971.3192246414185C311.0123816162109,971.3980246414185,311.27238161621096,971.3743246414184,311.5716816162109,971.2010246414185L338.2743816162109,955.7937246414184C339.16238161621095,955.1800246414184,339.7197816162109,954.1929246414185,339.78678161621093,953.1156246414184L339.70018161621095,922.3956046414185C339.70018161621095,922.0411746414185,339.5977816162109,921.7654746414185,339.43228161621096,921.6709346414185C339.37148161621093,921.6395646414185,339.30388161621096,921.6233246414184,339.23538161621093,921.6236946414184C339.05848161621094,921.6349246414185,338.88748161621095,921.6919346414185,338.73918161621094,921.7890946414185Z"></path></g><g><path style="mix-blend-mode:passthrough" fill-opacity="1" fill="#3F434F" d="M270.52491786621096,995.2334707351685C269.99717686621096,994.9262707351685,269.70570376621095,994.3197707351685,269.70570376621095,993.5792707351685L269.62693786621094,962.8513707351684C269.69358826621095,961.3557707351684,270.4802398662109,959.9849707351684,271.73795786621093,959.1728707351684L298.44073786621095,943.7497907351684C299.07873786621093,943.3716783351684,299.7246378662109,943.3244367351684,300.2524378662109,943.6395007351684C300.7880378662109,943.9466907351684,301.08733786621093,944.5610707351684,301.08733786621093,945.3251707351685L301.17403786621094,976.0609707351684C301.11643786621096,977.5429707351684,300.34433786621094,978.9051707351684,299.10243786621095,979.7158707351684L272.39964786621096,995.1231707351685C272.0719178662109,995.3233707351685,271.6966078662109,995.4320707351685,271.31263786621093,995.4381707351685C271.03657786621096,995.4408707351685,270.7647578662109,995.3701707351685,270.52491786621096,995.2334707351685ZM299.00783786621093,944.7266007351684L272.30509786621093,960.1417707351685C271.39967786621094,960.7602707351684,270.8255478662109,961.7577707351685,270.74546786621096,962.8513707351684L270.8242378662109,993.5713707351684C270.8242378662109,993.9100707351685,270.92661786621096,994.1542707351684,271.09205786621095,994.2566707351684C271.27323786621093,994.3354707351684,271.5489078662109,994.3117707351685,271.84037786621093,994.1463707351685L298.52743786621096,978.7390707351684C299.42043786621093,978.1279707351684,299.98373786621096,977.1407707351684,300.05553786621095,976.0609707351684L299.9610378662109,945.3251707351685C299.9610378662109,944.9707407351684,299.8586378662109,944.7186607351684,299.69323786621095,944.6162507351685C299.6317378662109,944.5864607351684,299.5645378662109,944.5703507351684,299.49623786621095,944.5690007351684C299.32303786621094,944.5808507351685,299.1553378662109,944.6349207351684,299.00783786621093,944.7266007351684Z"></path></g></g></g></svg>