<svg viewBox="0 0 1024 1024" height="1024" width="1024" version="1.1" fill="none" xmlns:xlink="http://www.w3.org/1999/xlink" xmlns="http://www.w3.org/2000/svg"><defs><clipPath id="master_svg0_33_7225"><rect rx="0" height="1024" width="1024" y="0" x="0"></rect></clipPath></defs><g clip-path="url(#master_svg0_33_7225)"><g><g><path style="mix-blend-mode:passthrough" fill-opacity="1" fill="#EFAC41" d="M1012.0034638183594,429.04832458496094L1011.7041638183593,501.22452458496093L927.7991638183594,549.9823245849609L928.0906068183593,477.8065245849609L1012.0034638183594,429.04832458496094Z"></path></g><g><path style="mix-blend-mode:passthrough" fill-opacity="1" fill="#F9BB4A" d="M928.1378774902344,477.83013630371096L927.7991774902343,549.9823363037109L843.3506774902344,501.19313630371096L843.6263734902344,429.11924730371095L843.6263734902344,428.98533630371094L843.7681574902343,428.98533630371094L880.4036774902344,450.2136363037109L888.7296774902344,455.0737363037109L891.2266774902344,456.4600363037109L928.1378774902344,477.83013630371096Z"></path></g><g><path style="mix-blend-mode:passthrough" fill-opacity="1" fill="#FED57A" d="M1012.0273122558594,429.10329958496095L928.0905122558594,477.86149958496094L891.2029122558594,456.507199584961L880.5218122558593,450.46559958496096L880.3012122558594,450.3552995849609L843.6263122558594,429.10329958496095L927.5549122558593,380.34519958496094L1012.0273122558594,429.10329958496095Z"></path></g><g><path style="mix-blend-mode:passthrough" fill-opacity="1" fill="#EFAC41" d="M880.2619323730469,407.7490427099609L964.1905323730468,456.5071527099609L974.8716323730469,450.46555270996095L975.0842323730469,450.35525270996095L890.9429323730469,401.59715270996094L890.8326323730469,401.70744370996096L880.2619323730469,407.7490427099609Z"></path></g><g><path style="mix-blend-mode:passthrough" fill-opacity="1" fill="#D8983A" d="M964.1668395996094,456.46748520996096L964.3007505996094,528.6752652099609L975.1236395996094,522.4288652099609L974.9897395996094,450.35496520996094L966.6637895996093,455.08113520996096L964.1668395996094,456.46748520996096Z"></path></g><g><path style="mix-blend-mode:passthrough" fill-opacity="1" fill="#EFAC41" d="M975.1237610839844,407.7490427099609L891.2030610839844,456.5071527099609L880.5219420839844,450.46555270996095L880.3013610839844,450.35525270996095L964.4505610839843,401.59715270996094L964.5529610839844,401.70744370996096L975.1237610839844,407.7490427099609Z"></path></g><g><path style="mix-blend-mode:passthrough" fill-opacity="1" fill="#D8983A" d="M891.2266323730469,456.46748520996096L891.0926323730469,528.6752652099609L880.2619323730469,522.4288652099609L880.4037173730469,450.35496520996094L888.7296423730469,455.08113520996096L891.2266323730469,456.46748520996096Z"></path></g><g><path style="mix-blend-mode:passthrough" fill-opacity="1" fill="#EFAC41" d="M922.1592601074219,669.6567230224609L921.8678601074218,741.8330230224609L837.9628601074219,790.5907230224609L838.2543031074218,718.4149230224609L922.1592601074219,669.6567230224609Z"></path></g><g><path style="mix-blend-mode:passthrough" fill-opacity="1" fill="#F9BB4A" d="M838.3014392089843,718.446434741211L837.9628392089844,790.5987347412109L753.5064392089844,741.801534741211L753.7900082089844,669.727645741211L753.7900082089844,669.5937347412109L753.9239192089843,669.5937347412109L790.5594392089844,690.829934741211L798.8932392089844,695.6821347412109L801.3903392089844,697.0684347412109L838.3014392089843,718.446434741211Z"></path></g><g><path style="mix-blend-mode:passthrough" fill-opacity="1" fill="#FED57A" d="M922.1831960449219,669.7117980224609L838.2542960449218,718.4699980224609L801.3587960449219,697.115598022461L790.6776960449218,691.073998022461L790.4650960449219,690.9636980224609L753.7821960449219,669.7117980224609L837.7107960449218,620.9535980224609L922.1831960449219,669.7117980224609Z"></path></g><g><path style="mix-blend-mode:passthrough" fill-opacity="1" fill="#EFAC41" d="M790.4256286621094,648.349591147461L874.3542286621093,697.1077511474609L885.0274286621094,691.074051147461L885.2480286621094,690.9637511474609L801.1067286621094,642.2055511474609L800.9964286621093,642.3158421474609L790.4256286621094,648.349591147461Z"></path></g><g><path style="mix-blend-mode:passthrough" fill-opacity="1" fill="#D8983A" d="M874.3227233886719,697.0684619287109L874.4645083886719,769.2841519287109L885.2874233886719,763.0377519287109L885.1456233886719,690.9638519287109L876.8196733886718,695.6899919287109L874.3227233886719,697.0684619287109Z"></path></g><g><path style="mix-blend-mode:passthrough" fill-opacity="1" fill="#EFAC41" d="M885.2873573730469,648.349591147461L801.3587573730468,697.1077511474609L790.6777033730468,691.074051147461L790.4650573730469,690.9637511474609L874.6063573730469,642.2055511474609L874.7166573730469,642.3158421474609L885.2873573730469,648.349591147461Z"></path></g><g><path style="mix-blend-mode:passthrough" fill-opacity="1" fill="#D8983A" d="M801.3903286621094,697.0684619287109L801.2485286621094,769.2841519287109L790.4256286621094,763.0377519287109L790.5595396621094,690.9638519287109L798.8933386621094,695.6899919287109L801.3903286621094,697.0684619287109Z"></path></g><g><path style="mix-blend-mode:passthrough" fill-opacity="1" fill="#FED57A" d="M877.0953483886718,309.9802113037109L329.36534838867186,628.2872113037109L12.713348388671875,445.4632113037109L560.4433483886719,127.15721130371094L877.0953483886718,309.9802113037109Z"></path></g><g><path style="mix-blend-mode:passthrough" fill-opacity="1" fill="#EFAC41" d="M877.0950871582031,309.98045349121094L876.3710871582032,568.4454534912109L328.6330871582031,886.752453491211L329.36563115820314,628.286453491211L877.0950871582031,309.98045349121094Z"></path></g><g><path style="mix-blend-mode:passthrough" fill-opacity="1" fill="#F9BB4A" d="M329.36580444335937,628.2868519287109L328.63280444335936,886.7528519287109L11.980804443359375,703.9288519287109L12.713357443359374,445.46385192871094L329.36580444335937,628.2868519287109Z"></path></g><g><path style="mix-blend-mode:passthrough" fill-opacity="1" fill="#4C7891" d="M109.27655029296875,623.4504613037109L109.54436529296875,599.0634613037109L202.09825029296877,652.4847613037109L201.81465029296874,676.879561303711L109.27655029296875,623.4504613037109Z"></path></g><g><path style="mix-blend-mode:passthrough" fill-opacity="1" fill="#E4E8F4" d="M730.0171904296875,224.37435817871093L182.0198904296875,542.4682581787109L182.0198904296875,620.0792581787109L161.9415904296875,590.4152581787109L142.3201904296875,598.662258178711L142.3201904296875,519.499258178711L690.3181904296875,201.40525817871094L730.0171904296875,224.37435817871093Z"></path></g><g><path style="mix-blend-mode:passthrough" fill-opacity="1" fill="#FFFFFF" d="M851.8024831542969,552.7241605224609L683.9295961542969,649.688160522461L683.5514831542969,531.6450605224609L851.4164831542969,434.68016052246094L851.8024831542969,552.7241605224609Z"></path></g><g><g><path style="mix-blend-mode:passthrough" fill-opacity="1" fill="#5B5E71" d="M694.5555765527344,534.0397299560547L694.8391465527344,634.5568299560547L690.9242855527344,636.8178299560547L690.6407165527344,536.3003299560547L694.5555765527344,534.0397299560547ZM717.1939165527343,520.9718299560546L717.4774165527343,621.4888299560547L713.4366165527343,623.8208299560547L713.1530165527344,523.3034299560547L717.1939165527343,520.9718299560546ZM709.7265165527343,525.2806299560547L710.0101165527344,625.7978299560547L707.5683165527344,627.2158299560547L707.2768165527343,526.6905299560547L709.7265165527343,525.2806299560547ZM722.0775165527343,518.1440299560547L722.3690165527344,618.6618299560547L719.9271165527343,620.0788299560547L719.6357165527344,519.5540299560547L722.0775165527343,518.1440299560547ZM725.0156165527344,516.4505299560547L725.3071165527343,616.9678299560546L724.3225165527343,617.5348299560546L724.0389165527343,517.0176299560546L725.0156165527344,516.4505299560547ZM729.3007165527343,513.9772299560547L729.5842165527343,614.4948299560547L727.1424165527344,615.9128299560547L726.8510165527343,515.3871299560547L729.3007165527343,513.9772299560547ZM735.4210165527344,510.4483299560547L735.7046165527344,610.9578299560546L732.0339165527344,613.0848299560547L731.7504165527344,512.5672299560547L735.4210165527344,510.4483299560547ZM740.3126165527344,507.62052995605467L740.5962165527344,608.1378299560547L738.1544165527343,609.5558299560547L737.8629165527344,509.0304299560547L740.3126165527344,507.62052995605467ZM703.7243165527344,528.7385299560547L704.0158165527343,629.2558299560546L697.1628765527344,633.2178299560546L696.8793065527344,532.6927299560547L703.7243165527344,528.7385299560547ZM746.6772165527344,503.9498299560547L746.9608165527344,604.4598299560547L743.0459165527344,606.7278299560546L742.7623165527343,506.2105299560547L746.6772165527344,503.9498299560547ZM761.7221165527344,495.26162995605466L762.0057165527344,595.7708299560547L759.5639165527343,597.1888299560546L759.2803165527343,496.6715299560547L761.7221165527344,495.26162995605466ZM774.0810165527344,488.1251299560547L774.3646165527343,588.6428299560547L771.9227165527344,590.0608299560547L771.6313165527343,489.5350299560547L774.0810165527344,488.1251299560547ZM777.1372165527343,486.3607299560547L777.4287165527344,586.8698299560547L776.4440165527344,587.4448299560547L776.1605165527344,486.9199299560547L777.1372165527343,486.3607299560547ZM787.4166165527344,480.4215299560547L787.7002165527343,580.9468299560547L784.1556165527344,582.9948299560547L783.8720165527344,482.4694299560547L787.4166165527344,480.4215299560547ZM792.3077165527344,477.60152995605466L792.5997165527344,578.1108299560547L790.1499165527343,579.5288299560547L789.8663165527344,479.0115299560547L792.3077165527344,477.60152995605466ZM755.8538165527343,498.6487299560547L756.1373165527343,599.1658299560547L749.2844165527343,603.1198299560547L749.0009165527343,502.61082995605466L755.8538165527343,498.6487299560547ZM798.6727165527344,473.9230299560547L798.9567165527344,574.4478299560546L795.0417165527343,576.7008299560547L794.7577165527343,476.19162995605467L798.6727165527344,473.9230299560547ZM813.8437165527343,465.1639299560547L814.1277165527343,565.6888299560546L811.6857165527343,567.0988299560547L811.3937165527344,466.5817299560547L813.8437165527343,465.1639299560547ZM833.4177165527344,453.86838995605467L833.7017165527344,554.3778299560547L831.2597165527344,555.7958299560547L830.9757165527344,455.2783699560547L833.4177165527344,453.86838995605467ZM839.5387165527344,450.33164995605466L839.8217165527344,550.8488299560547L836.1507165527344,552.9758299560547L835.8677165527344,452.4505499560547L839.5387165527344,450.33164995605466ZM807.8497165527344,468.6297299560547L808.1327165527343,569.1388299560547L801.2797165527344,573.1018299560546L800.9967165527344,472.5839299560547L807.8497165527344,468.6297299560547ZM769.1815165527344,490.94502995605467L769.4730165527344,591.4708299560547L765.5581165527344,593.7308299560547L765.2746165527344,493.2057299560547L769.1815165527344,490.94502995605467ZM781.4223165527344,483.8794299560547L781.7059165527344,584.4048299560548L779.2641165527343,585.8228299560546L778.9726165527344,485.2973299560547L781.4223165527344,483.8794299560547ZM821.3107165527343,460.8552299560547L821.5947165527343,561.3728299560547L817.6797165527344,563.6328299560547L817.3957165527344,463.1238299560547L821.3107165527343,460.8552299560547ZM826.2027165527344,458.0352299560547L826.4857165527344,558.5448299560546L824.0447165527344,559.9628299560547L823.7527165527343,459.4452299560547L826.2027165527344,458.0352299560547ZM829.1407165527344,456.3338499560547L829.4247165527344,556.8588299560547L828.4477165527344,557.4188299560547L828.1557165527344,456.9088899560547L829.1407165527344,456.3338499560547ZM844.4297165527344,447.5038299560547L844.7137165527344,548.0288299560547L842.2717165527343,549.4388299560546L841.9877165527344,448.9216799560547L844.4297165527344,447.5038299560547Z"></path></g></g><g><path style="mix-blend-mode:passthrough" fill-opacity="1" fill="#3F434F" d="M280.04838671875,762.8644050537109L271.20238671875,779.886405053711L276.68438671875003,783.0923050537109L288.76838671875,790.1028050537109L280.04838671875,762.8644050537109ZM276.68438671875003,783.0923050537109L276.59038671875,816.7743050537109L283.19138671875,820.633305053711L283.28538671875003,786.9519050537109L276.68438671875003,783.0923050537109ZM243.86168671874998,800.6503050537109L243.83808671875,807.8653050537109L289.45338671875004,834.5203050537109L289.47738671875004,827.305305053711L243.86168671874998,800.6503050537109ZM160.49232481875,695.0283050537109L160.42143249515,719.021405053711C160.40568541875,726.5990050537109,164.73010671875,735.405405053711,170.47238671875,739.863705053711L170.41723671875,761.493805053711C166.38424671875,759.6191050537109,163.34376671875,759.792305053711,163.34376671875,762.0530050537109L181.12988671875002,772.4505050537109C181.12988671875002,770.1820050537109,178.10508671875,766.4641050537109,174.07998671875,763.6363050537109L174.14298671875,742.0063050537109C176.76608671875,743.0696050537109,179.02668671875,742.8097050537109,180.80688671875,741.691205053711C182.89428671875,740.1158050537109,184.26488671875,737.1698050537109,184.27278671875,732.955705053711L184.34368671875,708.962605053711L160.49232481875,695.0283050537109ZM250.24988671875002,767.6457050537109L250.15528671875,801.3273050537109L256.77198671875,805.1873050537109L256.85858671875,771.5054050537109L250.24988671875002,767.6457050537109Z"></path></g><g><path style="mix-blend-mode:passthrough" fill-opacity="1" fill="#3F434F" d="M253.573849609375,747.3939488037109L244.775849609375,764.4474488037109L250.24984960937502,767.6454488037109L262.293849609375,774.6246488037109L253.573849609375,747.3939488037109ZM207.210349609375,796.0026488037109C206.31324960937502,795.976648803711,205.438549609375,795.716648803711,204.673949609375,795.246648803711L142.800769609375,759.1068488037109C140.154109609375,757.555148803711,137.995849609375,753.695448803711,137.995849609375,750.544648803711L138.216400609375,678.470808803711C138.216400609375,676.6590988037109,138.925323609375,675.2176388037109,140.138369609375,674.508712803711C141.351409609375,673.815536803711,142.863789609375,673.925826803711,144.352519609375,674.7844088037109L206.225749609375,710.923748803711C208.959049609375,712.5463488037109,211.172449609375,716.406148803711,211.133049609375,719.556848803711L210.93614960937498,791.630648803711C210.93614960937498,793.418648803711,210.211449609375,794.8366488037109,208.974749609375,795.529648803711C208.44164960937502,795.847648803711,207.83084960937498,796.010648803711,207.210349609375,796.0026488037109ZM141.879169609375,676.6827288037109C141.725539609375,676.684558803711,141.574489609375,676.722338803711,141.438059609375,676.793018803711C141.044219609375,677.029338803711,140.815779609375,677.659468803711,140.815779609375,678.478678803711L140.603099609375,750.544648803711C140.603099609375,752.7895488037109,142.241499609375,755.7197488037109,144.124079609375,756.8225488037109L205.98944960937501,792.9616488037109C206.698349609375,793.371648803711,207.297049609375,793.418648803711,207.698749609375,793.245648803711C208.084749609375,793.0086488037109,208.321049609375,792.4266488037109,208.336749609375,791.622648803711L208.533649609375,719.556848803711C208.533649609375,717.351348803711,206.824449609375,714.334448803711,204.910349609375,713.215948803711L143.037079609375,677.0765888037109C142.692869609375,676.844898803711,142.293229609375,676.708968803711,141.879169609375,676.6827288037109Z"></path></g><g><path style="mix-blend-mode:passthrough" fill-opacity="1" fill="#3F434F" d="M299.2914548339844,849.793586303711C298.4004548339844,849.7815863037109,297.52945483398435,849.5275863037109,296.7704548339844,849.0615863037109L234.90545483398438,812.9215863037109C232.19545483398437,811.346586303711,230.08445483398438,807.5655863037109,230.08445483398438,804.351586303711L230.29745483398438,732.270586303711C230.29745483398438,730.4745863037109,230.98245483398438,729.0325863037109,232.21945483398437,728.3155863037109C233.45645483398437,727.583586303711,234.94545483398437,727.6855863037109,236.44145483398438,728.5755863037109L298.3064548339844,764.7385863037109C301.04045483398437,766.3145863037109,303.2534548339844,770.197586303711,303.21445483398435,773.371586303711L303.0254548339844,845.437586303711C303.0254548339844,847.1865863037109,302.33945483398435,848.6045863037109,301.1264548339844,849.321586303711C300.56845483398433,849.640586303711,299.9344548339844,849.804586303711,299.2914548339844,849.793586303711ZM233.99145483398436,730.4975863037109C233.82845483398438,730.4975863037109,233.66645483398437,730.5355863037109,233.51945483398438,730.6085863037109C233.1334548339844,730.8445863037109,232.89745483398437,731.443586303711,232.89745483398437,732.2625863037109L232.68445483398438,804.351586303711C232.68445483398438,806.596586303711,234.34645483398438,809.534586303711,236.2284548339844,810.629586303711L298.0784548339844,846.7765863037109C298.75545483398434,847.1625863037109,299.39445483398435,847.225586303711,299.80345483398435,847.0365863037109C300.18945483398437,846.8005863037109,300.41845483398436,846.2095863037109,300.41845483398436,845.437586303711L300.6144548339844,773.3645863037109C300.6144548339844,771.150586303711,298.9054548339844,768.149586303711,296.99145483398433,767.023586303711L235.11845483398437,730.8685863037109C234.7764548339844,730.6525863037109,234.38645483398437,730.525586303711,233.9844548339844,730.4975863037109L233.99145483398436,730.4975863037109ZM115.12905483398437,742.226586303711C114.23825483398437,742.2135863037109,113.36745483398437,741.9605863037109,112.60845483398438,741.4935863037109L50.73525483398438,705.3546863037109C48.03347483398437,703.7793863037109,45.922454833984375,699.998386303711,45.922454833984375,696.7846863037109L46.135131833984374,624.6950563037109C46.135131833984374,622.906966303711,46.81254583398437,621.4654963037109,48.049224833984375,620.756576303711C49.285904833984375,620.016159303711,50.78251483398437,620.126449303711,52.27125483398437,621.008651303711L114.14445483398437,657.1637863037109C116.87775483398437,658.7390863037109,119.09115483398438,662.6303863037109,119.05175483398438,665.8046863037109L118.85485483398438,737.870586303711C118.85485483398438,739.611586303711,118.17745483398437,741.0375863037109,116.96445483398438,741.7535863037109C116.40625483398438,742.073586303711,115.77225483398438,742.236586303711,115.12905483398437,742.226586303711ZM49.82153483398437,622.9306463037109C49.65824483398438,622.928326303711,49.49658483398437,622.9633663037109,49.348914833984374,623.0330663037109C48.97082483398437,623.2693963037109,48.73452483398437,623.875896303711,48.73452483398437,624.695116303711L48.521844833984375,696.7924863037109C48.521844833984375,699.0374863037109,50.183874833984376,701.975586303711,52.06645483398437,703.070386303711L113.90815483398437,739.2095863037109C114.59345483398438,739.6035863037109,115.23155483398438,739.6665863037109,115.64115483398437,739.4695863037109C116.01915483398437,739.2335863037109,116.25555483398438,738.650586303711,116.25555483398438,737.8785863037109L116.44455483398437,665.8046863037109C116.44455483398437,663.583386303711,114.74315483398438,660.5901863037109,112.82115483398438,659.4637863037109L50.94794483398437,623.3086963037109C50.608614833984376,623.0945863037109,50.221724833984375,622.967396303711,49.821544833984376,622.9384663037109L49.82153483398437,622.9306463037109Z"></path></g><g><path style="mix-blend-mode:passthrough" fill-opacity="1" fill="#3F434F" d="M81.05359267578125,648.1762542724609L81.03779267578125,651.531844272461C68.43469267578125,645.0964242724609,58.35225297578125,651.421554272461,58.30499267578125,666.1356542724609L80.95899267578125,679.3688542724609L80.88029267578125,706.126854272461C80.87239267578124,710.7505542724609,84.15709267578126,716.508554272461,88.16639267578125,718.8480542724609C92.17579267578125,721.1954542724609,95.48409267578126,719.2891542724609,95.49199267578125,714.657554272461L92.44359267578125,712.877254272461C92.44359267578125,715.5554542724609,90.50589267578124,716.673954272461,88.17429267578125,715.3112542724609C85.84269267578125,713.940654272461,83.92079267578126,710.585154272461,83.93649267578125,707.9069542724609L84.01529267578125,681.149054272461L106.66139267578126,694.382254272461C106.70079267578126,679.6681542724609,96.73649267578125,661.629954272461,84.08619267578125,653.311994272461L84.09399267578125,649.956404272461L81.05359267578125,648.1762542724609Z"></path></g><g><path style="mix-blend-mode:passthrough" fill-opacity="1" fill="#EFAC41" d="M765.2277224121094,121.20213317871094L764.5417224121094,336.2421331787109L569.2967224121094,449.70913317871094L569.9820254121094,234.66913317871092L765.2277224121094,121.20213317871094Z"></path></g><g><path style="mix-blend-mode:passthrough" fill-opacity="1" fill="#F9BB4A" d="M570.092046142578,234.72453161621092L569.3040461425782,449.70953161621094L372.7910461425781,336.1715316162109L373.43695114257815,121.37561061621093L373.43695114257815,121.06053161621094L373.7599181425781,121.06053161621094L459.0118461425781,170.46463161621094L478.38904614257814,181.76793161621094L484.2020461425781,184.99753161621095L570.092046142578,234.72453161621092Z"></path></g><g><path style="mix-blend-mode:passthrough" fill-opacity="1" fill="#FED57A" d="M765.2741687011719,121.33593786621094L569.9741687011718,234.79493786621094L484.1231687011719,185.09193786621094L459.27186870117185,171.03993786621095L458.77566870117187,170.78793786621094L373.4291687011719,121.33593786621094L568.7291687011718,7.8769378662109375L765.2741687011719,121.33593786621094Z"></path></g><g><path style="mix-blend-mode:passthrough" fill-opacity="1" fill="#EFAC41" d="M547.0679777832031,148.53525192871092L484.1313777832031,185.09235192871094L459.2797237832031,171.03935192871094L458.7834777832031,170.78735192871093L522.2163777832031,134.22295192871093L522.4683777832031,134.47495192871094L547.0679777832031,148.53525192871092ZM679.3054777832031,71.71165192871094L616.3694777832031,108.26845192871093L591.5174777832032,94.20815192871095L591.0214777832032,93.96395192871094L654.6984777832031,57.65135192871094L679.3054777832031,71.71165192871094Z"></path></g><g><path style="mix-blend-mode:passthrough" fill-opacity="1" fill="#D8983A" d="M484.19443432617186,184.99758239746095L483.8793343261719,400.11658239746095L458.6889343261719,385.5915823974609L459.0119023261719,170.78758239746094L478.38913432617187,181.76798239746094L484.19443432617186,184.99758239746095Z"></path></g><g><path style="mix-blend-mode:passthrough" fill-opacity="1" fill="#5B5E71" d="M648.7591247558594,217.73385505371095L748.5518247558593,160.12205505371094L748.7330247558593,223.20045505371093L648.9402767558594,280.81205505371094L648.7591247558594,217.73385505371095ZM746.5196247558594,221.94015505371095L746.3621247558593,163.91873505371095L650.9725647558594,218.99415505371093L651.1300947558593,277.01605505371094L746.5196247558594,221.94015505371095Z"></path></g><g><path style="mix-blend-mode:passthrough" fill-opacity="1" fill="#FFFFFF" d="M746.4644970214844,222.01131755371094L651.0907290214843,276.9841175537109L650.9331970214844,219.04171755371095L746.3148970214844,163.91111755371094L746.4644970214844,222.01131755371094Z"></path></g><g><path style="mix-blend-mode:passthrough" fill-opacity="1" fill="#FFFFFF" d="M751.9306608886719,153.44241314746094C753.1366608886718,152.75712614746095,754.2386608886719,153.26911914746094,754.2466608886718,154.76573114746094L754.4356608886719,221.97955114746094C754.3396608886719,223.59005114746094,753.4906608886719,225.06125114746095,752.1436608886719,225.94945114746093L645.6556108886718,287.42905114746094C644.3559308886719,288.17705114746093,643.3555598886719,287.60205114746094,643.3476868886719,286.11305114746096L643.1586608886719,218.89965114746093C643.1586608886719,217.40305114746093,644.1511538886718,215.67795114746093,645.4429608886719,214.92965114746093L751.9306608886719,153.44241314746094ZM748.7326608886718,223.20045114746094L748.5516608886719,160.12205114746095L648.7591208886719,217.73385114746094L648.9402808886719,280.8120511474609L748.7326608886718,223.20045114746094Z"></path></g><g><path style="mix-blend-mode:passthrough" fill-opacity="1" fill="#5B5E71" d="M741.3759817871094,173.35545349121094L741.3837817871093,175.87606349121094L655.9979553271094,225.18565349121093L655.9900817871094,222.65715349121092L741.3759817871094,173.35545349121094ZM741.4232817871093,190.13325349121095L741.4310817871094,192.65395349121093L656.0452575871094,241.96345349121094L656.0373839871094,239.42705349121093L741.4232817871093,190.13325349121095ZM741.3995817871094,181.74438349121093L741.4074817871094,184.26495349121095L656.0216369871093,233.57455349121093L656.0137633871094,231.04605349121096L741.3995817871094,181.74438349121093ZM716.0516817871094,213.18115349121092L716.0516817871094,215.70175349121092L656.0688781871094,250.34445349121094L656.0610046871094,247.82385349121094L716.0516817871094,213.18115349121092Z"></path></g><g><path style="mix-blend-mode:passthrough" fill-opacity="1" fill="#FFFFFF" d="M383.9527282714844,323.86738395996093L449.2760282714844,361.59788395996094L449.4257282714844,315.65968395996094L384.10238627148436,277.92918395996094L383.9527282714844,323.86738395996093Z"></path></g><g><g><path style="mix-blend-mode:passthrough" fill-opacity="1" fill="#5B5E71" d="M445.1406252441406,316.5893815673828L445.0303252441406,355.7060815673828L446.55062524414063,356.58838156738284L446.6687252441406,317.4715815673828L445.1406252441406,316.5893815673828ZM436.3342252441406,311.50868156738284L436.2239252441406,350.6254815673828L437.7993252441406,351.5313815673828L437.9017252441406,312.4145815673828L436.3342252441406,311.50868156738284ZM439.24082524414064,313.1864815673828L439.13052524414064,352.3032815673828L440.07572524414064,352.85468156738284L440.18602524414064,313.7299815673828L439.24082524414064,313.1864815673828ZM434.4280252441406,310.4059815673828L434.3177252441406,349.5227815673828L435.2629252441406,350.0741815673828L435.3811252441406,310.9573815673828L434.4280252441406,310.4059815673828ZM433.2859252441406,309.7442815673828L433.17562524414063,348.8610815673828L433.55372524414065,349.08158156738284L433.6639252441406,309.96478156738283L433.2859252441406,309.7442815673828ZM431.6159252441406,308.7832815673828L431.50572524414065,347.9000815673828L432.4587252441406,348.4514815673828L432.5690252441406,309.3346815673828L431.6159252441406,308.7832815673828ZM429.23712524414066,307.4127815673828L429.1268252441406,346.5294815673828L430.5604252441406,347.34878156738284L430.6707252441406,308.2397815673828L429.23712524414066,307.4127815673828ZM427.3388252441406,306.3099815673828L427.22062524414065,345.4267815673828L428.17372524414066,345.9781815673828L428.2840252441406,306.8613815673828L427.3388252441406,306.3099815673828ZM441.5724252441406,314.5255815673828L441.4621252441406,353.6502815673828L444.1245252441406,355.1862815673828L444.2348252441406,316.0694815673828L441.5724252441406,314.5255815673828ZM424.8575252441406,304.8842815673828L424.7473252441406,344.00098156738284L426.27542524414065,344.8753815673828L426.38572524414064,305.7585815673828L424.8575252441406,304.8842815673828ZM419.0050252441406,301.5049815673828L418.8947252441406,340.61398156738284L419.8399252441406,341.1652815673828L419.9581252441406,302.0485815673828L419.0050252441406,301.5049815673828ZM414.1922252441406,298.72448156738284L414.0819252441406,337.8412815673828L415.0350252441406,338.3926815673828L415.1453252441406,299.27588156738284L414.1922252441406,298.72448156738284ZM413.00282524414064,298.0391815673828L412.89252524414064,337.1559815673828L413.2706252441406,337.3764815673828L413.38872524414063,298.2596815673828L413.00282524414064,298.0391815673828ZM409.0013252441406,295.73128156738284L408.8910252441406,334.8480815673828L410.2773252441406,335.6356815673828L410.3876252441406,296.52678156738284L409.0013252441406,295.73128156738284ZM407.1030252441406,294.62848156738283L406.9927252441406,333.7452815673828L407.9379252441406,334.2966815673828L408.0561252441406,295.17988156738284L407.1030252441406,294.62848156738283ZM421.2893252441406,302.8204815673828L421.17902524414063,341.9372815673828L423.8414252441406,343.4732815673828L423.9517252441406,304.3564815673828L421.2893252441406,302.8204815673828ZM404.62172524414063,293.20278156738283L404.51142524414064,332.3195815673828L406.0396252441406,333.1938815673828L406.1499252441406,294.07708156738283L404.62172524414063,293.20278156738283ZM398.7219252441406,289.7920415673828L398.6116252441406,328.9087815673828L399.5568252441406,329.4601815673828L399.6750252441406,290.3434315673828L398.7219252441406,289.7920415673828ZM391.10494524414065,285.3967115673828L390.99465524414063,324.5055815673828L391.9398852441406,325.0569815673828L392.0580452441406,285.9402315673828L391.10494524414065,285.3967115673828ZM388.7261352441406,284.0182615673828L388.6079752441406,323.1350815673828L390.0415652441406,323.9621815673828L390.1518552441406,284.8453515673828L388.7261352441406,284.0182615673828ZM401.05352524414064,291.1311215673828L400.94322524414065,330.2557815673828L403.60562524414064,331.7917815673828L403.72382524414064,292.6750015673828L401.05352524414064,291.1311215673828ZM416.0984252441406,299.8272815673828L415.98812524414063,338.9440815673828L417.5083252441406,339.8183815673828L417.6186252441406,300.7015815673828L416.0984252441406,299.8272815673828ZM411.3329252441406,297.0781815673828L411.2305252441406,336.1949815673828L412.1757252441406,336.7463815673828L412.2860252441406,297.62168156738284L411.3329252441406,297.0781815673828ZM395.81536524414065,288.1142715673828L395.70507524414063,327.23108156738283L397.2332252441406,328.11328156738284L397.3435252441406,288.9964715673828L395.81536524414065,288.1142715673828ZM393.90914524414063,287.0114915673828L393.7988552441406,326.1282815673828L394.7519552441406,326.67968156738283L394.86224524414064,287.5628815673828L393.90914524414063,287.0114915673828ZM392.7669952441406,286.3577115673828L392.65670524414065,325.4744815673828L393.0426652441406,325.69508156738283L393.1529552441406,286.5782615673828L392.7669952441406,286.3577115673828ZM386.81991624414064,282.9154815673828L386.7096252441406,322.0322815673828L387.65484624414063,322.5836815673828L387.77301524414065,283.46687356738283L386.81991624414064,282.9154815673828Z"></path></g></g><g><path style="mix-blend-mode:passthrough" fill-opacity="1" fill="#525566" d="M663.6623315917968,795.128094116211L658.2272315917969,793.080094116211L655.0450115917969,770.709594116211L660.4800315917969,772.7654941162109L663.6623315917968,795.128094116211ZM659.5032315917969,765.928294116211L654.0682115917969,763.8803941162109L647.1286315917969,715.2245941162109L652.5636915917969,717.2725641162109L659.5032315917969,765.928294116211Z"></path></g><g><path style="mix-blend-mode:passthrough" fill-opacity="1" fill="#5B5E71" d="M602.8051466699219,798.6648558349609L597.3700866699219,796.6168558349609L654.0681866699218,763.8803558349609L659.5032866699219,765.9283258349609L602.8051466699219,798.6648558349609Z"></path></g><g><path style="mix-blend-mode:passthrough" fill-opacity="1" fill="#525566" d="M651.5791718261719,710.435130053711L646.1519518261719,708.3872300537109L639.2123718261719,659.7314300537109L644.6474318261719,661.7794000537109L651.5791718261719,710.435130053711Z"></path></g><g><path style="mix-blend-mode:passthrough" fill-opacity="1" fill="#5B5E71" d="M594.8888869042969,743.1721800537109L589.4538269042969,741.1241800537109L646.1519269042968,708.3876800537109L651.5870269042969,710.4356500537109L594.8888869042969,743.1721800537109Z"></path></g><g><path style="mix-blend-mode:passthrough" fill-opacity="1" fill="#525566" d="M643.6705899902344,654.942454272461L638.2355699902344,652.8945542724609L631.2959899902344,604.2387542724609L636.7310499902344,606.2867242724609L643.6705899902344,654.942454272461Z"></path></g><g><path style="mix-blend-mode:passthrough" fill-opacity="1" fill="#5B5E71" d="M586.9725050683594,687.6790159912109L581.5374450683594,685.6310159912109L638.2355450683593,652.8945159912109L643.6706450683594,654.9424859912109L586.9725050683594,687.6790159912109Z"></path></g><g><path style="mix-blend-mode:passthrough" fill-opacity="1" fill="#525566" d="M635.7465302246094,599.449778491211L630.3193102246094,597.4018784912109L623.3797302246094,548.7460784912109L628.8147902246094,550.7940484912109L635.7465302246094,599.449778491211Z"></path></g><g><path style="mix-blend-mode:passthrough" fill-opacity="1" fill="#5B5E71" d="M579.0562453027344,632.1858519287109L573.6211853027344,630.1378519287109L630.3192853027343,597.4013519287109L635.7543853027344,599.4493219287109L579.0562453027344,632.1858519287109Z"></path></g><g><path style="mix-blend-mode:passthrough" fill-opacity="1" fill="#525566" d="M627.8300782714844,543.901519897461L622.3950782714844,541.853519897461L615.4554782714844,493.1899198974609L620.8905382714844,495.2379198974609L627.8300782714844,543.901519897461ZM619.9137882714843,488.40861989746094L614.4787282714843,486.36061989746094L611.2964782714844,464.06101989746094L616.7315382714844,466.10901989746094L619.9137882714843,488.40861989746094Z"></path></g><g><path style="mix-blend-mode:passthrough" fill-opacity="1" fill="#5B5E71" d="M616.7315700683594,466.10887520996096L611.2965700683594,464.0608652099609L616.8497700683594,460.85496520996094L622.2848700683594,462.90296520996094L616.7315700683594,466.10887520996096ZM571.1320700683593,576.6299652099609L565.6970700683594,574.5819652099609L622.3951700683593,541.8454652099609L627.8302700683594,543.8934652099609L571.1320700683593,576.6299652099609ZM563.2157700683593,521.137065209961L557.7807300683594,519.089065209961L614.4788700683594,486.3604652099609L619.9138700683594,488.4084652099609L563.2157700683593,521.137065209961ZM554.4881300683594,502.05126520996095L549.0530700683594,500.00326520996094L554.6062900683594,496.79736520996096L560.0413700683594,498.84536520996096L554.4881300683594,502.05126520996095Z"></path></g><g><path style="mix-blend-mode:passthrough" fill-opacity="1" fill="#474B59" d="M616.7316286621094,466.10914755371095L622.2848286621094,462.91111755371094L669.2151286621094,791.9221175537109L663.6621286621094,795.1281175537109L660.4801286621093,772.766117553711L603.7819286621094,805.502117553711L606.9720286621093,827.857117553711L601.4188286621094,831.063117553711L554.4881286621094,502.04381755371094L560.0334786621094,498.8457175537109L563.2157286621094,521.137417553711L619.9138286621094,488.40881755371095L616.7316286621094,466.10914755371095ZM659.5031286621094,765.928117553711L652.5637286621094,717.2731175537109L595.8655286621093,750.0091175537109L602.7972286621093,798.665117553711L659.5031286621094,765.928117553711ZM643.6706286621094,654.9421175537109L636.7310286621093,606.2871175537109L580.0329286621094,639.0231175537109L586.9725286621094,687.679117553711L643.6706286621094,654.9421175537109ZM635.7543286621094,599.4501175537109L628.8147286621094,550.7939175537109L572.1166286621094,583.530117553711L579.0562286621093,632.1861175537109L635.7543286621094,599.4501175537109ZM627.8301286621094,543.9016175537109L620.8905286621093,495.2459175537109L564.1924086621094,527.9745175537109L571.1320286621094,576.630117553711L627.8301286621094,543.9016175537109ZM651.5869286621094,710.4351175537109L644.6473286621094,661.780117553711L587.9492286621094,694.516117553711L594.8887286621093,743.1721175537109L651.5869286621094,710.4351175537109Z"></path></g><g><path style="mix-blend-mode:passthrough" fill-opacity="1" fill="#525566" d="M601.4190612792969,831.062164428711L595.9840612792968,829.014164428711L549.0530612792969,499.99536442871096L554.4880612792969,502.04336442871096L601.4190612792969,831.062164428711ZM392.4440612792969,501.7597644287109L397.5640612792969,499.8299644287109L400.57303127929686,478.7434644287109L395.45303127929685,480.6732644287109L392.4440612792969,501.7597644287109ZM396.3667612792969,474.22996442871096L401.48675127929687,472.29226442871095L408.04036127929686,426.40916442871094L402.92036127929686,428.3468744287109L396.3667612792969,474.22996442871096Z"></path></g><g><path style="mix-blend-mode:passthrough" fill-opacity="1" fill="#5B5E71" d="M449.83530327148435,505.09986520996097L454.95530327148435,503.16996520996094L401.4946032714844,472.29246520996094L396.3746032714844,474.2301752099609L449.83530327148435,505.09986520996097Z"></path></g><g><path style="mix-blend-mode:passthrough" fill-opacity="1" fill="#525566" d="M403.8340759277344,421.89598005371096L408.9540759277344,419.96618005371096L415.5076759277344,374.07518005371094L410.38766592773436,376.0128900537109L403.8340759277344,421.89598005371096Z"></path></g><g><path style="mix-blend-mode:passthrough" fill-opacity="1" fill="#5B5E71" d="M457.3026494628906,452.76539255371097L462.4226494628906,450.83549255371094L408.96194946289063,419.95799255371094L403.8419494628906,421.8957025537109L457.3026494628906,452.76539255371097Z"></path></g><g><path style="mix-blend-mode:passthrough" fill-opacity="1" fill="#525566" d="M411.3013610839844,369.56150739746096L416.4213610839844,367.63170739746096L422.9670610839844,321.74070739746094L417.8470810839844,323.6784173974609L411.3013610839844,369.56150739746096Z"></path></g><g><path style="mix-blend-mode:passthrough" fill-opacity="1" fill="#5B5E71" d="M464.76996108398436,400.43140817871097L469.88996108398436,398.50150817871094L416.4213610839844,367.62400817871094L411.3013610839844,369.5617181787109L464.76996108398436,400.43140817871097Z"></path></g><g><path style="mix-blend-mode:passthrough" fill-opacity="1" fill="#525566" d="M418.7687072753906,317.22743552246095L423.88870727539063,315.29763552246095L430.43440727539064,269.41453552246094L425.31442727539064,271.34437552246095L418.7687072753906,317.22743552246095Z"></path></g><g><path style="mix-blend-mode:passthrough" fill-opacity="1" fill="#5B5E71" d="M472.2373072753906,348.09693552246097L477.3573072753906,346.16703552246094L423.88870727539063,315.28953552246094L418.7687072753906,317.2272455224609L472.2373072753906,348.09693552246097Z"></path></g><g><path style="mix-blend-mode:passthrough" fill-opacity="1" fill="#525566" d="M426.2438659667969,264.83796520996094L431.3638659667969,262.90816520996094L437.9016659667969,217.01716520996092L432.7817059667969,218.95486520996093L426.2438659667969,264.83796520996094ZM433.7033359667969,212.50366520996093L438.82336596679687,210.57386520996093L441.8244659667969,189.54246520996094L436.7044659667969,191.48019520996093L433.7033359667969,212.50366520996093Z"></path></g><g><path style="mix-blend-mode:passthrough" fill-opacity="1" fill="#5B5E71" d="M436.70442700195315,191.47994536621093L441.82442700195315,189.55010536621094L436.59422700195313,186.52537536621094L431.4741870019531,188.45521536621095L436.70442700195315,191.47994536621093ZM479.7046270019531,295.70737536621095L484.8246270019531,293.77737536621095L431.36392700195313,262.90007536621096L426.2439270019531,264.83777536621096L479.7046270019531,295.70737536621095ZM487.1719270019531,243.37307536621094L492.2919270019531,241.44327536621094L438.83122700195315,210.56577536621094L433.7112170019531,212.50347536621095L487.1719270019531,243.37307536621094ZM495.40332700195313,225.37437536621093L500.52332700195313,223.43667536621092L495.29302700195313,220.41977536621093L490.17302700195313,222.34957536621093L495.40332700195313,225.37437536621093Z"></path></g><g><path style="mix-blend-mode:passthrough" fill-opacity="1" fill="#474B59" d="M433.7034020996094,212.50385114746095L487.17200209960936,243.38135114746095L490.17290209960936,222.34995114746093L495.4029020996094,225.37475114746093L451.1429020996094,535.646551147461L445.9126020996094,532.6295511474609L448.92160209960934,511.54355114746096L395.4530320996094,480.67355114746096L392.44406209960937,501.76055114746094L387.2059020996094,498.74355114746095L431.4742020996094,188.45555114746094L436.7045020996094,191.48028114746094L433.7034020996094,212.50385114746095ZM396.36679209960937,474.2305511474609L449.8354020996094,505.09955114746094L456.3811020996094,459.21655114746096L402.91250209960936,428.33955114746095L396.36679209960937,474.2305511474609ZM411.30150209960937,369.56155114746093L464.77000209960937,400.439551147461L471.30790209960935,354.5485511474609L417.8472020996094,323.67055114746097L411.30150209960937,369.56155114746093ZM418.7688020996094,317.22755114746093L472.2373020996094,348.1055511474609L478.7752020996094,302.21455114746095L425.3145020996094,271.344451147461L418.7688020996094,317.22755114746093ZM426.24400209960936,264.84595114746094L479.70460209960936,295.69955114746097L486.2425020996094,249.81685114746094L432.78180209960937,218.93925114746094L426.24400209960936,264.84595114746094ZM403.83410209960937,421.88855114746093L457.3027020996094,452.76555114746094L463.84840209960936,406.8745511474609L410.3798020996094,375.99755114746097L403.83410209960937,421.88855114746093Z"></path></g><g><path style="mix-blend-mode:passthrough" fill-opacity="1" fill="#525566" d="M451.1428527832031,535.654808959961L456.26285278320313,533.7168089599609L500.53115278320314,223.44480895996094L495.41115278320314,225.37464895996095L451.1428527832031,535.654808959961Z"></path></g><g><path style="mix-blend-mode:passthrough" fill-opacity="1" fill="#37617B" d="M598.2838962402344,92.29402886621094L598.2288962402343,104.89711286621093C598.2048962402343,113.25451286621094,592.7148962402343,121.59621286621093,581.7737962402343,127.96071286621094C559.6868962402343,140.80011286621095,523.6656962402344,140.80011286621095,501.4291962402344,127.96071286621094C490.2439262402344,121.50171286621094,484.6513366402344,113.01031286621094,484.6749572754344,104.52691286621094L484.7379760402344,91.92381286621094C484.7143554402344,100.40725286621094,490.2990762402344,108.89861286621094,501.49219624023436,115.35761286621094C523.7286962402344,128.19701286621094,559.7419962402344,128.19701286621094,581.8367962402344,115.35761286621094C592.7778962402343,109.00101286621094,598.2598962402344,100.65931286621094,598.2838962402344,92.29402886621094Z"></path></g><g><path style="mix-blend-mode:passthrough" fill-opacity="1" fill="#4C7891" d="M484.7379455566406,92.00232536621094C484.7379455566406,97.80762536621094,487.39245555664064,103.63652536621095,492.66213555664064,108.80372536621094C494.1114855566406,110.22162536621093,495.7341455566406,111.56072536621093,497.57734555664064,112.86822536621094C498.7746455566406,113.75042536621095,500.0821455566406,114.56182536621094,501.5000455566406,115.38102536621093C506.6043455566406,118.28912536621094,512.0748455566406,120.50112536621094,517.7659455566406,121.95822536621094C520.3101455566406,122.62772536621094,522.8858455566407,123.19492536621094,525.5404455566406,123.65172536621094C536.2477455566407,125.46432536621094,547.1836455566406,125.46432536621094,557.8909455566406,123.65172536621094C560.5455455566406,123.19492536621094,563.1291455566407,122.62772536621094,565.6418455566406,121.95822536621094C571.3125455566407,120.50752536621093,576.7604455566407,118.29502536621094,581.8368455566406,115.38102536621093C582.5063455566407,114.98712536621093,583.1758455566406,114.56182536621094,583.8139455566406,114.14432536621094C586.7709455566406,112.30542536621094,589.4619455566407,110.06842536621093,591.8089455566407,107.49622536621094C595.2349455566406,103.71522536621094,597.3229455566407,99.61142536621094,597.9919455566406,95.43662536621093C598.1819455566406,94.39712536621093,598.2769455566406,93.34252536621094,598.2759455566406,92.28582536621093C598.3149455566406,83.80242536621094,592.7229455566406,75.31892536621093,581.5138455566406,68.84412536621093C559.2773455566406,56.044125366210935,523.2482455566407,56.044125366210935,501.21654555664065,68.84412536621093C490.22033555664063,75.24802536621094,484.73800659184064,83.62912536621094,484.7379455566406,92.00232536621094ZM491.6302455566406,95.60992536621094C492.8669155566406,89.46592536621094,497.60884555664063,83.44792536621094,505.80874555664064,78.67452536621093C525.3277455566406,67.33176536621093,557.2214455566407,67.33176536621093,576.9216455566407,78.67452536621093C585.2709455566406,83.44792536621094,590.0759455566406,89.52892536621094,591.3839455566406,95.82262536621093C590.0759455566406,102.01382536621094,585.3339455566406,107.99242536621094,577.2366455566406,112.72642536621095C557.6861455566407,124.07712536621094,525.7530455566406,124.07712536621094,506.09224555664065,112.72642536621095C497.7506455566406,107.95302536621094,492.9063155566406,101.87202536621093,491.6302455566406,95.60992536621094Z"></path></g><g><path style="mix-blend-mode:passthrough" fill-opacity="1" fill="#37617B" d="M491.6302800058594,95.61002458496094C492.86694100585936,89.46602458496093,497.60886100585935,83.44812458496094,505.8087810058594,78.67472458496094C525.3277810058594,67.33191458496094,557.2214810058593,67.33191458496094,576.9215810058594,78.67472458496094C585.2711810058594,83.44812458496094,590.0760810058594,89.52912458496094,591.3837810058594,95.82272458496094C593.2587810058594,87.19752458496095,588.4455810058594,78.10752458496094,576.9215810058594,71.49881458496094C557.2292810058593,60.14816458496094,525.3277810058594,60.14816458496094,505.8087810058594,71.49881458496094C494.4975310058594,78.07602458496093,489.75561100585935,87.01632458496094,491.6302800058594,95.61002458496094Z"></path></g><g><path style="mix-blend-mode:passthrough" fill-opacity="1" fill="#D4DAE8" d="M582.5614929199219,121.55689661621093C582.5614929199219,123.10865661621094,583.0971379199219,124.17995661621094,583.9714629199219,124.70765661621094L598.2444929199219,132.96265661621095C597.3701929199219,132.48215661621094,596.7872929199219,131.36365661621093,596.7872929199219,129.85915661621095C596.7872929199219,126.70845661621094,599.0164929199219,122.91965661621094,601.7339929199219,121.31271661621093C603.0966929199219,120.54077661621093,604.3096929199219,120.44625661621095,605.2313929199219,120.97401661621093L590.9583429199218,112.67173761621093C590.1312529199218,112.14398161621094,588.8709429199218,112.19124561621094,587.4688429199218,113.01832561621094C584.7434429199219,114.57007661621094,582.5614929199219,118.39826661621093,582.5614929199219,121.55689661621093Z"></path></g><g><path style="mix-blend-mode:passthrough" fill-opacity="1" fill="#F34858" d="M601.7181709277344,121.31248508496094C604.4514509277344,119.73709908496093,606.6648909277344,120.99740608496094,606.6806309277343,124.14818208496094C606.6806309277343,127.25168208496093,604.4750709277344,131.07196208496094,601.7496609277343,132.65526208496095C599.0085109277344,134.23066208496093,596.7872009277344,132.97036208496093,596.7872009277344,129.85106208496094C596.7793273877344,126.70817208496094,598.9769609277344,122.89574208496094,601.7181709277344,121.31248508496094Z"></path></g><g><path style="mix-blend-mode:passthrough" fill-opacity="1" fill="#F9607F" d="M652.0910704589844,144.13199880371093C650.7047704589844,143.34429880371093,648.7749704589844,143.43879880371094,646.6402704589843,144.68339880371093C642.3316704589844,147.10949880371095,638.9602704589844,153.05659880371093,638.9602704589844,157.96389880371095C638.9602704589844,160.34269880371093,639.8031704589844,162.02839880371093,641.1894704589844,162.82389880371093L593.8176604589844,134.67969880371095C592.4234314589844,133.89199880371095,591.5884704589844,132.19849880371095,591.5884704589844,129.77239880371093C591.5884704589844,124.91230880371094,594.9519304589844,118.96522880371094,599.2684604589844,116.53913880371094C601.3952304589844,115.29458580371094,603.3329704589844,115.15280180371094,604.7192704589844,115.98775480371094L652.0910704589844,144.13199880371093Z"></path></g><g><path style="mix-blend-mode:passthrough" fill-opacity="1" fill="#F34858" d="M646.6166120605469,144.65951286621095C650.8622620605469,142.21766286621093,654.3202620605468,144.18690486621094,654.3359620605469,149.06271286621094C654.3517620605469,153.89911286621094,650.9095620605469,159.85411286621093,646.6717220605469,162.29591286621093C642.4024320605469,164.76931286621095,638.9681091605469,162.76851286621093,638.9523620605469,157.94001286621094C638.9444885205469,153.06419286621093,642.3473220605468,147.13286286621093,646.6244820605468,144.65951286621095L646.6166120605469,144.65951286621095Z"></path></g><g><path style="mix-blend-mode:passthrough" fill-opacity="0.250980406999588" fill="#748BFD" d="M576.9295060058594,78.67453520996094C557.2371060058593,67.33177520996094,525.3198060058594,67.33177520996094,505.80090600585936,78.67453520996094C497.6167560058594,83.45586520996093,492.8827160058594,89.45016520996094,491.6224060058594,95.60996520996093C492.9220860058594,101.88786520996094,497.7427660058594,107.96096520996093,506.08440600585936,112.74226520996095C525.7689060058594,124.08496520996093,557.6862060058594,124.08496520996093,577.2524060058594,112.74226520996095C585.3499060058593,108.00036520996093,590.0918060058593,102.00596520996093,591.3915060058594,95.80686520996093C590.0918060058593,89.52896520996094,585.2711060058593,83.45586520996093,576.9295060058594,78.67453520996094Z"></path></g><g><path style="mix-blend-mode:passthrough" fill-opacity="1" fill="#D4DAE8" d="M387.6863708496094,935.3217308349609L387.6863708496094,947.152730834961L393.0978108496094,950.2877308349609L393.0978108496094,960.834730834961L489.3613708496094,1016.122730834961L497.76637084960936,1011.2787308349609L503.3273708496094,1014.4847308349609L525.7763708496094,1001.589730834961L525.7763708496094,995.1067308349609L615.9753708496094,943.016730834961L621.1033708496094,946.0107308349609L643.4733708496094,933.1157308349609L643.4733708496094,927.1297308349609L654.5963708496095,920.717730834961L654.5173708496094,910.099730834961L665.4973708496093,903.7587308349609L665.4973708496093,891.9277308349609L584.9793708496094,845.689730834961L584.9793708496094,837.993730834961L508.1713708496094,793.315730834961L476.11267084960934,811.842730834961L476.0339708496094,811.842730834961L462.99757084960936,819.467730834961L461.43007084960936,820.3187308349609L461.21747084960936,756.483730834961L498.90837084960935,734.7434308349609L498.76637084960936,679.313520834961L489.71637084960935,674.1147308349609L409.9149708496094,720.139530834961L410.1276708496094,775.5777308349609L419.10737084960937,780.775730834961L441.5565708496094,767.810730834961L441.76137084960936,831.6537308349609L430.8597708496094,837.993730834961L431.0802708496094,910.2417308349609L387.6863708496094,935.3217308349609Z"></path></g><g><path style="mix-blend-mode:passthrough" fill-opacity="1" fill="#474B59" d="M447.6928122558594,918.031519897461L442.0686952558594,914.7545198974609L441.4700622558594,740.1235198974609L447.09417225585935,743.3924398974609L447.6928122558594,918.031519897461Z"></path></g><g><path style="mix-blend-mode:passthrough" fill-opacity="1" fill="#5B5E71" d="M461.1623467285156,735.2714691162109L461.76094672851565,909.9024691162109L447.69277972851563,918.0314691162109L447.0941467285156,743.400379116211L461.1623467285156,735.2714691162109Z"></path></g><g><path style="mix-blend-mode:passthrough" fill-opacity="1" fill="#D6A140" d="M455.53814198242185,743.3924261474609L449.9140319824219,740.1235161474609L463.98223198242187,732.0024261474609L469.60633198242186,735.2713461474609L455.53814198242185,743.3924261474609Z"></path></g><g><path style="mix-blend-mode:passthrough" fill-opacity="1" fill="#6EBA6E" d="M418.9735101855469,725.409588959961L409.9386901855469,720.1635589599609L410.0962221855469,775.546158959961L419.1231701855469,780.7922589599609L418.9735101855469,725.409588959961Z"></path></g><g><path style="mix-blend-mode:passthrough" fill-opacity="1" fill="#9AD898" d="M498.7667637207031,679.345135834961L489.73976372070314,674.0991058349609L409.9465637207031,720.1634058349609L418.9656337207031,725.4094058349609L498.7667637207031,679.345135834961Z"></path></g><g><path style="mix-blend-mode:passthrough" fill-opacity="1" fill="#75CA75" d="M418.9734802246094,725.4094995849609L419.1310122246094,780.7841995849609L498.9242802246094,734.719999584961L498.7666802246094,679.3451995849609L418.9734802246094,725.4094995849609Z"></path></g><g><path style="mix-blend-mode:passthrough" fill-opacity="1" fill="#E4E8F4" d="M493.31585581054685,724.227812084961L493.25285581054686,688.9155120849609L424.5109558105469,728.5995120849609L424.5739746105469,763.911712084961L493.31585581054685,724.227812084961Z"></path></g><g><path style="mix-blend-mode:passthrough" fill-opacity="1" fill="#4C7891" d="M489.9366672363281,722.7548698974609L489.8815672363281,694.2797698974609L427.8901672363281,730.0646698974609L427.93743893632814,758.5475698974609L489.9366672363281,722.7548698974609Z"></path></g><g><path style="mix-blend-mode:passthrough" fill-opacity="1" fill="#F9607F" d="M476.43570170898437,738.1069183349609L476.4436017089844,743.6050283349609L439.2487488089844,765.085418334961L439.2330017089844,759.5872183349609L476.43570170898437,738.1069183349609Z"></path></g><g><path style="mix-blend-mode:passthrough" fill-opacity="1" fill="#FFFFFF" d="M488.3377069824219,731.2382659912109L488.3534569824219,736.7363759912109L481.4454040824219,740.722095991211L481.4296569824219,735.223985991211L488.3377069824219,731.2382659912109Z"></path></g><g><path style="mix-blend-mode:passthrough" fill-opacity="1" fill="#3F434F" d="M608.0827331542969,932.0449066162109L608.1063537542968,938.496076616211L621.0954331542969,946.0422066162109L621.0796331542969,939.5988666162109L608.0827331542969,932.0449066162109Z"></path></g><g><path style="mix-blend-mode:passthrough" fill-opacity="1" fill="#525566" d="M621.0796813964844,939.599011303711L621.0954284964844,946.0423113037109L643.5052813964844,933.100511303711L643.4895813964844,926.6572113037109L621.0796813964844,939.599011303711Z"></path></g><g><path style="mix-blend-mode:passthrough" fill-opacity="1" fill="#000000" d="M608.0827331542969,932.0447245849609L621.0796331542969,939.5987245849609L643.4895331542969,926.6569045849609L630.5004331542968,919.1108245849609L608.0827331542969,932.0447245849609Z"></path></g><g><path style="mix-blend-mode:passthrough" fill-opacity="1" fill="#3F434F" d="M490.3462829589844,1000.5107269287109L490.3699035589844,1006.954026928711L503.35898295898437,1014.5080269287109L503.34318295898436,1008.0568069287109L490.3462829589844,1000.5107269287109Z"></path></g><g><path style="mix-blend-mode:passthrough" fill-opacity="1" fill="#525566" d="M503.3353576660156,1008.0569316162109L503.35897826601564,1014.5081316162109L525.7688576660156,1001.566331616211L525.7530576660156,995.1230316162109L503.3353576660156,1008.0569316162109Z"></path></g><g><path style="mix-blend-mode:passthrough" fill-opacity="1" fill="#000000" d="M490.3462829589844,1000.511120678711L503.34318295898436,1008.0572206787109L525.7530829589844,995.1232806787109L512.7639829589843,987.5693206787109L490.3462829589844,1000.511120678711Z"></path></g><g><path style="mix-blend-mode:passthrough" fill-opacity="1" fill="#BAC1CE" d="M393.0584411621094,949.7363128662109L393.09783936210937,960.819112866211L489.33024116210936,1016.1073128662109L489.29874116210937,1005.0244128662109L393.0584411621094,949.7363128662109Z"></path></g><g><path style="mix-blend-mode:passthrough" fill-opacity="1" fill="#CAD0DD" d="M489.2986755371094,1005.024337866211L489.33016963710935,1016.106937866211L654.5726755371094,920.701937866211L654.5406755371093,909.6269378662109L489.2986755371094,1005.024337866211Z"></path></g><g><path style="mix-blend-mode:passthrough" fill-opacity="1" fill="#697C88" d="M393.0584411621094,949.736339428711L489.2986411621094,1005.032039428711L654.5404411621093,909.627039428711L558.3084411621094,854.3310394287109L393.0584411621094,949.736339428711Z"></path></g><g><path style="mix-blend-mode:passthrough" fill-opacity="1" fill="#37617B" d="M387.6706237792969,935.3373870849609L387.70211787929685,947.1527870849609L489.27462377929686,1005.536487084961L489.2356237792969,993.7210870849609L387.6706237792969,935.3373870849609Z"></path></g><g><path style="mix-blend-mode:passthrough" fill-opacity="1" fill="#416E84" d="M489.2356872558594,993.720781616211L489.27508545585937,1005.5357816162109L665.5286872558594,903.7821816162109L665.4896872558594,891.9667816162109L489.2356872558594,993.720781616211Z"></path></g><g><path style="mix-blend-mode:passthrough" fill-opacity="1" fill="#4C7891" d="M387.6706237792969,935.3371800537109L489.2356237792969,993.7211800537109L665.4896237792968,891.9588800537109L563.9246237792969,833.5751800537109L387.6706237792969,935.3371800537109Z"></path></g><g><path style="mix-blend-mode:passthrough" fill-opacity="1" fill="#FED57A" d="M430.8676452636719,837.962715991211L507.68344526367184,882.6012159912109L584.9876452636719,837.962715991211L508.1875452636719,793.3320159912109L430.8676452636719,837.962715991211Z"></path></g><g><path style="mix-blend-mode:passthrough" fill-opacity="1" fill="#EFAC41" d="M430.8676452636719,837.9628753662109L431.11181626367187,923.2541753662109L507.9196452636719,967.892875366211L507.68334526367187,882.601375366211L430.8676452636719,837.9628753662109Z"></path></g><g><path style="mix-blend-mode:passthrough" fill-opacity="1" fill="#F9BB4A" d="M507.6834411621094,882.601375366211L507.91973916210935,967.892875366211L585.2317411621094,923.262075366211L584.9954411621094,837.9628753662109L507.6834411621094,882.601375366211Z"></path></g><g><path style="mix-blend-mode:passthrough" fill-opacity="1" fill="#4C7891" d="M563.1212147949219,899.0482072412109L563.0188147949219,890.2890472412109L529.7939147949219,909.477247241211L529.8963317949218,918.2285472412109L563.1212147949219,899.0482072412109Z"></path></g><g><path style="mix-blend-mode:passthrough" fill-opacity="1" fill="#F34858" d="M552.8970114746094,856.4736175537109L552.8970114746094,882.6013175537109L546.4221514746093,879.8759175537109L539.8055114746094,889.6670175537109L539.8055114746094,864.051197553711L552.8970114746094,856.4736175537109Z"></path></g><g><path style="mix-blend-mode:passthrough" fill-opacity="1" fill="#F9607F" d="M476.06545600585935,811.8744964599609L552.8969560058594,856.473596459961L539.7976560058594,864.0511964599609L462.9661560058594,819.452076459961L476.06545600585935,811.8744964599609Z"></path></g><g><path style="mix-blend-mode:passthrough" fill-opacity="1" fill="#E4E8F4" d="M437.02737108398435,730.663148022461L437.0825210839844,748.5910480224609L434.5776710839844,750.0325480224609L434.5382710839844,734.798548022461L431.37173462398437,736.6338480224609L431.3638610839844,733.939948022461L437.02737108398435,730.663148022461ZM445.8022610839844,725.165088022461C447.0940610839844,724.416798022461,448.23626108398435,724.243518022461,449.22086108398435,724.6294380224609C450.20546108398435,725.015368022461,450.70176108398437,726.0079480224609,450.70176108398437,727.654148022461C450.70176108398437,728.575748022461,450.50476108398436,729.560348022461,450.0872610839844,730.647348022461C449.6934610839844,731.7344480224609,448.9057610839844,733.262448022461,447.80296108398437,735.2159480224609L444.1480610839844,741.612048022461L451.2215610839844,737.5239480224609L451.22946108398435,740.4225480224609L440.5641210839844,746.5823480224609L440.5562410839844,744.0144480224609L445.2745610839844,735.8224480224609C446.3379610839844,733.9713480224609,447.07046108398436,732.5692480224609,447.51946108398437,731.6240480224609C447.92006108398436,730.841648022461,448.1457610839844,729.981648022461,448.18116108398436,729.103348022461C448.18116108398436,728.3944480224609,447.95266108398437,727.9061480224609,447.4643610839844,727.701248022461C446.99166108398435,727.457048022461,446.38516108398437,727.5437480224609,445.65266108398436,727.9691480224609C444.37656108398437,728.7095480224609,443.31316108398437,730.0722480224609,442.47036108398436,732.0651480224609L440.3435710839844,731.8839480224609C441.02887108398437,730.308548022461,441.7850610839844,728.9694480224609,442.61216108398435,727.9061480224609C443.43136108398437,726.834848022461,444.50256108398435,725.913248022461,445.8022610839844,725.165088022461ZM463.2102610839844,715.5473480224609L463.2102610839844,717.910448022461L459.46086108398435,724.9366880224609C460.88656108398436,724.1569080224609,462.0050610839844,724.0308680224609,462.8085610839844,724.5664480224609C463.61986108398435,725.0784780224609,464.02156108398435,726.023648022461,464.02946108398436,727.386448022461C464.02946108398436,729.1981480224609,463.50166108398435,730.946748022461,462.43046108398437,732.6166480224609C461.36706108398437,734.2866480224609,459.9570610839844,735.6099480224609,458.25566108398436,736.5945480224609C456.56996108398437,737.571248022461,454.9158610839844,737.909948022461,453.27746108398435,737.594848022461L454.3880610839844,734.515048022461C455.77856108398436,734.773648022461,457.2154610839844,734.4918480224609,458.40536108398436,733.7272480224609C459.3269610839844,733.2073480224609,460.08316108398435,732.5378480224609,460.66606108398435,731.7108480224609C461.24886108398437,730.883748022461,461.5324610839844,730.0093480224609,461.5324610839844,729.111448022461C461.5245610839844,728.1819480224609,461.2173610839844,727.614748022461,460.5399610839844,727.473048022461C459.89406108398435,727.307648022461,458.9724610839844,727.551848022461,457.81456108398436,728.2213480224609C457.2148610839844,728.574948022461,456.6549610839844,728.9922480224609,456.1446610839844,729.4658480224609L456.13676108398437,727.1579480224609L459.7365610839844,720.2498580224609L454.08876108398437,723.510908022461L454.08876108398437,720.8169980224609L463.2102610839844,715.5473480224609Z"></path></g></g></g></svg>